<svg width="200" height="97" viewBox="0 0 200 97" fill="none" xmlns="http://www.w3.org/2000/svg">
<path d="M93.8146 1.13494C92.5253 5.45928 90.064 19.3374 89.5561 25.0696C88.8919 32.5115 90.2984 37.4895 93.9318 40.6071C96.315 42.719 98.5028 43.4732 101.238 43.1212C105.496 42.6184 108.7 39.8025 110.419 34.9754C111.552 31.9081 111.63 27.8855 110.77 21.3487C110.028 16.0187 107.606 3.29711 106.942 1.5372C106.121 -0.725529 104.949 -0.323265 102.566 2.94513L100.378 5.9621L98.1903 2.99541C95.768 -0.27298 94.4006 -0.826092 93.8146 1.13494ZM104.598 19.3877C106.981 23.4606 108.231 26.7793 108.231 29.042C108.192 34.372 104.246 39.2494 100.027 39.2494C98.4638 39.1991 96.0025 37.5398 94.635 35.4782C92.9942 33.1149 92.6035 31.7573 92.6035 28.7403C92.6035 25.9747 93.7755 23.2594 97.6824 16.7227L100.222 12.5492L101.511 14.4599C102.253 15.5159 103.621 17.7283 104.598 19.3877Z" fill="#0072BB"/>
<path d="M99.2448 23.9634C96.7834 25.0696 95.3379 27.4329 95.3379 30.4499C95.3379 34.1709 97.4476 36.7353 100.534 36.7353C104.089 36.7353 106.512 31.6567 104.871 27.7346C103.699 24.9691 101.042 23.2092 99.2448 23.9634Z" fill="#0072BB"/>
<path d="M60.7232 23.1086C58.5353 24.416 57.3242 26.6787 57.1288 30.1482C56.9335 32.763 56.8163 33.0646 54.8629 35.3777C52.4797 38.1432 50.5262 42.7693 50.0965 46.5908L49.823 49.0546L47.4007 43.6744C42.3218 32.4613 37.7898 27.6844 31.07 26.4776C28.804 26.0753 24.9362 26.9301 22.5921 28.3381C19.9354 29.8968 17.0443 33.2155 15.716 36.2325C14.6611 38.5455 14.6221 38.6461 13.6844 37.9421C12.0435 36.7856 8.64456 37.0873 6.3395 38.5455C3.99538 40.054 2.86238 41.7636 1.29964 46.0377C-0.106839 50.01 -0.419388 56.6976 0.596398 61.1728C3.13587 72.4865 11.731 83.7499 25.6004 94.0076C31.07 98.0302 31.7342 97.5777 31.1872 90.0352C30.7184 83.4985 31.3435 76.5091 32.8672 70.978C36.8912 56.5971 37.7508 51.5185 37.1257 46.4399C36.2661 39.702 31.1872 33.7686 25.4832 32.8132L23.2563 32.411L25.0925 31.5059C27.671 30.1985 32.3202 30.5505 34.9769 32.2098C39.8995 35.2771 43.1032 41.2105 51.6202 62.8825C53.9252 68.8158 56.5819 75.1012 57.4414 76.8611C63.1454 87.9234 70.842 93.6053 80.0231 93.6053C85.6881 93.5551 90.4545 91.0409 94.4785 86.0126C96.3929 83.5487 98.8542 78.8724 99.4403 76.5091C99.7528 75.1515 100.3 75.1515 100.612 76.5594C101.198 78.9227 103.699 83.6493 105.769 86.264C109.637 91.1415 114.404 93.5551 120.029 93.6053C124.327 93.6053 127.882 92.4991 131.75 89.9347C138.157 85.7109 142.221 79.0233 148.784 62.1282C157.067 40.8082 160.778 34.1709 165.896 31.707C168.709 30.3494 173.046 30.3494 175.234 31.6567L176.796 32.6121L174.999 32.6624C172.499 32.7127 168.201 35.5788 166.052 38.5455C163.552 42.015 162.81 44.7303 162.849 49.8089C162.888 54.4852 163.826 59.3124 166.795 69.8718C168.709 76.6097 169.217 81.638 168.904 90.1861C168.592 98.2314 168.865 98.3319 176.132 92.7002C186.915 84.303 194.455 75.2018 197.815 66.6537C199.573 62.1282 200.159 58.6587 199.964 53.6304C199.847 49.7586 199.612 48.5015 198.558 45.5851C196.409 39.702 193.635 37.2381 189.259 37.2381C188.204 37.2884 186.915 37.5901 186.368 37.9421C185.47 38.6461 185.391 38.5455 184.376 36.2828C182.11 31.2042 177.734 27.5335 172.811 26.6284C170.037 26.1256 168.553 26.3267 165.466 27.5335C160.622 29.4946 156.832 34.4223 152.183 44.7806L150.23 49.0546L149.956 46.5908C149.526 42.8195 147.573 38.1432 145.19 35.3777C143.236 33.0646 143.119 32.763 142.924 30.1482C142.728 26.6787 141.517 24.416 139.329 23.1086C137.259 21.9018 135.423 21.9018 133.469 23.1589C128.82 26.0753 128.586 34.8246 133.039 38.1432C135.11 39.6517 138.353 39.5009 140.228 37.7912L141.517 36.6347L143.08 38.5455C146.557 42.8698 147.768 49.658 146.362 56.8485C145.62 60.7706 142.533 69.0673 140.033 74.0955C135.227 83.6493 127.765 89.5324 120.42 89.5324C117.412 89.5324 115.927 88.7279 113.583 85.7612C111.317 82.8448 110.458 80.4312 110.458 76.9617C110.458 70.3746 114.755 65.296 119.443 66.352C122.335 67.0559 124.64 70.274 124.64 73.643C124.64 75.7549 123.428 78.3696 122.061 79.2244C120.576 80.1295 119.795 80.1798 118.662 79.4255C117.412 78.5707 117.412 78.5707 118.506 77.4142C120.498 75.4532 119.483 70.9277 117.021 70.9277C114.286 70.9277 112.841 73.8441 113.661 77.8165C114.247 80.6323 115.38 82.2917 117.412 83.2973C121.202 85.1578 125.03 83.2973 126.788 78.7719C129.445 71.9334 126.359 63.9384 120.498 62.3796C113.544 60.5191 107.332 67.1565 107.254 76.4588C107.254 78.269 107.371 80.4815 107.527 81.3866L107.84 83.0962L106.395 80.8837C104.48 77.9171 102.839 73.3413 102.097 68.6147C100.104 56.1948 106.277 44.3783 115.927 42.0653C118.701 41.4116 119.522 40.5065 118.779 38.7466C118.115 37.0873 114.247 37.6404 110.145 39.9031C106.785 41.8139 102.175 47.4456 100.769 51.4179C100.144 53.2281 99.9091 53.1778 99.1668 51.1665C96.6664 44.4286 90.181 38.6461 84.1644 37.8918C81.9766 37.6404 81.7031 37.6907 81.3124 38.6963C80.531 40.5065 81.3124 41.4116 84.1253 42.0653C91.0796 43.7246 96.5883 50.5631 98.0338 59.2621C98.6589 63.0333 98.5808 65.6983 97.7213 70.0226C96.8227 74.5481 95.5334 78.0176 93.619 80.934L92.2126 83.0962L92.5251 81.3866C92.6814 80.4815 92.7986 78.269 92.7986 76.4588C92.7205 67.1062 86.196 60.2677 79.3589 62.3796C73.6158 64.1395 70.6466 72.0842 73.2642 78.7719C75.0223 83.2973 78.8511 85.1578 82.6407 83.2973C84.6723 82.2917 85.8053 80.6323 86.3913 77.8165C87.2118 73.8441 85.7662 70.9277 83.0314 70.9277C80.0622 70.9277 79.5543 76.9114 82.4454 78.0679C83.1095 78.3696 80.9217 79.9787 79.9059 79.9787C77.7181 79.9787 75.413 76.7103 75.413 73.643C75.413 69.6706 78.3822 66.2514 81.7812 66.2514C86.3522 66.2514 89.634 70.7769 89.634 77.2131C89.634 80.3809 88.6964 82.8951 86.4695 85.7612C84.1253 88.7279 82.6407 89.5324 79.6324 89.5324C72.2875 89.5324 64.8254 83.6493 60.0199 74.0955C57.5195 69.0673 54.4331 60.7706 53.6908 56.8485C52.2843 49.6077 53.5345 42.6184 57.0116 38.5958L58.6135 36.7353L59.7855 37.8415C61.5436 39.5009 64.9817 39.6517 67.0132 38.1432C71.4671 34.8246 71.2327 26.0753 66.5835 23.1589C64.63 21.9018 62.7938 21.9018 60.7232 23.1086ZM64.7863 26.729C66.4663 27.4832 67.443 30.1985 66.7788 32.2601C66.31 33.8189 64.6691 35.2268 63.3798 35.2268C62.2859 35.2268 60.6841 33.4669 60.4106 31.9081C60.059 30.098 60.8404 27.8352 62.0906 26.9301C63.3408 26.0753 63.3017 26.0753 64.7863 26.729ZM137.923 26.9301C140.189 28.4386 140.541 31.4556 138.743 33.7686C137.454 35.3777 136.477 35.5788 134.837 34.4726C132.219 32.763 132.688 27.8855 135.579 26.5279C136.516 26.0753 136.712 26.1256 137.923 26.9301ZM27.9445 38.1935C29.2338 38.998 30.8747 40.406 31.5779 41.3613L32.8672 43.1212L25.7957 41.6128C18.1773 39.9534 18.021 39.8026 21.0684 37.741C23.1 36.333 25.2097 36.4839 27.9445 38.1935ZM178.281 37.2884C178.75 37.5901 179.726 38.3444 180.391 38.9478L181.68 40.0037L174.726 41.5122C170.936 42.367 167.732 42.9704 167.654 42.9201C167.185 42.5178 169.998 39.5512 172.069 38.2438C174.491 36.6347 176.796 36.333 178.281 37.2884ZM26.3818 45.9874L33.8048 47.5964L33.922 49.9597C34.0002 51.6693 33.883 52.323 33.5313 52.323C33.2579 52.323 29.2728 51.4682 24.7409 50.4626L16.4192 48.5518V46.9427C16.4192 44.4286 16.7318 43.7749 17.9038 44.0766C18.4899 44.2275 22.3186 45.0823 26.3818 45.9874ZM183.399 44.5794C183.516 45.032 183.633 46.0879 183.633 46.993V48.5518L175.351 50.4626C170.78 51.4682 166.795 52.323 166.521 52.323C166.17 52.323 166.052 51.6191 166.131 49.9597L166.248 47.5964L174.452 45.736C178.984 44.7303 182.774 43.8755 182.891 43.8252C183.047 43.7749 183.282 44.1269 183.399 44.5794ZM196.76 58.005C196.604 59.1112 196.37 60.2677 196.214 60.5694C196.057 60.9214 194.26 58.9101 191.721 55.4909C187.97 50.5631 187.462 49.658 187.267 47.7473L187.032 45.6354L192.033 50.8145L196.995 55.9937L196.76 58.005ZM12.864 47.8981C12.864 49.306 12.1998 50.4626 8.44921 55.4909L3.99538 61.4745L3.56562 58.8095C3.25307 57.0496 3.25307 55.9937 3.48748 55.692C4.42513 54.4852 12.3561 46.3394 12.6296 46.3394C12.7858 46.2891 12.903 47.0433 12.864 47.8981ZM25.2097 54.7366C32.9844 56.5971 33.0234 56.6474 32.8672 57.8542C32.8281 58.5581 32.5546 59.7146 32.2811 60.4186L31.8514 61.7259L24.4674 59.5638C20.4042 58.357 17.0443 57.301 16.9662 57.2005C16.8881 57.1502 16.7318 56.0942 16.5755 54.9377C16.3802 53.3287 16.4583 52.8259 16.849 52.8761C17.1615 52.8761 20.9121 53.7309 25.2097 54.7366ZM183.555 54.9377C183.36 56.0942 183.125 57.1502 183.047 57.2508C183.008 57.3513 179.883 58.3067 176.171 59.4129C172.421 60.4689 169.061 61.4745 168.67 61.5751C168.162 61.7259 167.889 61.2734 167.576 59.5638C167.342 58.357 167.146 57.2005 167.146 56.9993C167.185 56.6474 181.406 53.027 183.282 52.8761C183.868 52.8259 183.907 53.1276 183.555 54.9377ZM13.7626 58.005C13.8407 59.0107 13.1765 61.022 11.3403 65.1452C9.93382 68.313 8.68362 70.9277 8.56642 70.9277C8.44921 70.9277 7.66784 69.7712 6.88646 68.313L5.47999 65.6983L7.12088 63.3853C13.5281 54.636 13.4109 54.6863 13.7626 58.005ZM192.619 62.9327L194.534 65.7486L193.127 68.3633C192.189 70.0226 191.564 70.7769 191.33 70.4752C191.135 70.2238 189.845 67.5588 188.517 64.6424C186.173 59.4632 186.095 59.1615 186.485 57.2508L186.876 55.2897L188.79 57.7033C189.845 59.0107 191.603 61.374 192.619 62.9327ZM24.819 63.8881C28.0617 64.8435 30.7184 65.5977 30.7575 65.648C30.8356 65.6983 30.6012 66.6537 30.2496 67.7599L29.6245 69.7712L24.8971 68.2627C22.2795 67.4582 19.9354 66.5028 19.6619 66.2011C18.9196 65.296 17.9038 61.7259 18.4899 62.0276C18.7243 62.1282 21.6154 62.983 24.819 63.8881ZM181.406 63.9887C181.055 65.1955 180.742 66.2011 180.703 66.3017C180.625 66.4023 178.594 67.1062 176.171 67.961C173.71 68.7656 171.405 69.5701 171.053 69.7209C170.545 69.9221 170.272 69.4695 169.92 67.9107C169.647 66.8045 169.53 65.7989 169.608 65.6983C169.686 65.5977 172.499 64.7429 175.82 63.7373C179.14 62.7819 181.914 61.9271 181.953 61.9271C182.032 61.8768 181.758 62.8322 181.406 63.9887ZM15.13 72.6373C14.4658 75.3023 13.7626 77.4645 13.6063 77.4645C13.45 77.4645 12.7468 76.8108 12.0826 76.0566L10.8324 74.6487L13.0984 69.6706L15.4034 64.6926L15.8723 66.2514C16.3411 67.609 16.263 68.313 15.13 72.6373ZM187.15 69.9723L189.22 74.5481L187.853 76.308L186.485 78.0176L185.118 72.939C183.907 68.6147 183.751 67.6593 184.141 66.4023C184.376 65.5977 184.688 65.0446 184.844 65.1452C184.962 65.296 186.017 67.4582 187.15 69.9723Z" fill="#0072BB"/>
</svg>
