<svg width="202" height="100" viewBox="0 0 202 100" fill="none" xmlns="http://www.w3.org/2000/svg">
<path d="M72.6568 0.698769C69.0727 1.60465 67.1427 2.6287 64.4645 5.07066C59.935 9.20621 57.8082 15.1536 58.6747 21.2978C59.5806 27.7178 63.3223 32.4048 69.0727 34.3347C71.3965 35.1224 76.3591 35.1618 78.3678 34.4529C79.51 34.0196 79.7464 33.7439 79.7464 32.7986C79.7464 31.6958 79.6676 31.6564 78.1709 31.7746C72.8931 32.1291 71.042 31.9715 69.1121 31.105C66.9458 30.1598 64.0706 27.5996 63.1253 25.7485C62.2194 24.0155 61.4317 20.8646 61.4317 18.8559C61.4317 16.9653 62.4164 12.5934 62.9678 12.042C63.1253 11.8845 63.401 12.8691 63.5192 14.2477C64.0312 19.8011 66.5519 23.9367 70.6875 25.9848C72.9325 27.0876 73.6809 27.2452 76.1228 27.2058C82.1489 27.1664 86.3633 23.661 86.9147 18.3045C87.3479 14.1689 85.2605 10.1515 81.9914 8.77296C78.8011 7.47322 74.1929 8.53665 72.4205 11.018C71.042 12.9479 70.8451 17.0441 72.066 18.5408C72.7356 19.4073 73.2476 19.6436 74.4686 19.6436C76.6348 19.6436 77.6589 18.5408 77.5013 16.3745C77.4226 15.0354 77.1469 14.6021 76.0834 13.8932L74.7837 12.9873L75.6108 12.239C77.5013 10.506 80.8886 10.9392 82.6216 13.1449C85.7331 17.1229 83.4093 22.8339 78.1709 24.0155C71.9479 25.394 66.5519 20.3132 66.5519 13.0267C66.5519 8.49726 69.7816 4.44047 74.1535 3.4952C80.9673 2.0379 88.372 4.28293 92.9014 9.24561C99.1638 16.0988 100.661 27.0876 96.4462 35.4769C91.7986 44.7327 79.8251 49.3015 68.9939 45.9931C63.8343 44.3782 59.0685 41.5818 52.4122 36.2253C50.4035 34.571 48.3948 32.9562 47.9616 32.6017C47.1739 31.9715 47.2132 31.9715 48.7099 31.7352C50.6005 31.4201 53.7908 28.7812 54.5785 26.8513C55.2481 25.3152 55.2874 22.0856 54.6967 20.5495C54.1846 19.2104 52.5304 17.3986 51.1125 16.6502C49.537 15.8231 46.1104 15.9413 44.5744 16.8866C41.9355 18.5014 41.0296 21.7705 42.3687 24.6063C43.5503 27.0876 47.3708 28.0723 49.537 26.4574C50.758 25.5516 51.1519 23.5822 50.246 22.8339C49.4189 22.1249 47.6071 22.44 47.0951 23.3853C46.8588 23.8186 46.6225 24.2518 46.5831 24.3306C46.268 24.8426 44.8895 22.9127 44.8895 21.9674C44.8895 19.3285 48.3948 18.1075 50.5611 19.9981C52.8061 21.928 52.6486 25.3546 50.2066 27.4815C47.1345 30.1598 44.8107 29.569 37.3273 24.2518C28.3472 17.8712 23.4239 15.705 17.8704 15.705C9.99316 15.705 2.78546 21.2191 0.540436 29.0176C-0.365449 32.0503 -0.0503588 37.9583 1.13123 41.0304C2.27344 43.945 5.66066 47.6867 8.29955 48.8683C9.36298 49.3803 10.2295 49.8529 10.2295 49.9711C10.1901 50.0892 9.36298 50.5619 8.29955 51.0739C5.62127 52.3343 2.31282 55.9184 1.17062 58.833C0.0284139 61.787 -0.365449 67.6162 0.382891 70.3732C2.74607 79.0776 10.6233 84.7886 19.3277 84.119C24.6055 83.6858 29.6076 81.3226 37.4454 75.4934C43.8654 70.6883 46.4649 69.94 49.537 71.9093C53.0424 74.1937 53.003 79.0382 49.4189 80.5349C46.3467 81.7952 43.314 78.2899 45.6772 76.163C46.1104 75.7691 46.5043 75.5328 46.5831 75.6116C46.6225 75.6904 46.8588 76.1236 47.0951 76.5569C47.6071 77.4627 49.4189 77.8172 50.246 77.1083C51.1125 76.3993 50.9156 74.6269 49.8127 73.6029C48.5524 72.4213 45.6378 72.3031 44.023 73.3666C40.6357 75.5722 41.2659 81.4014 45.047 83.2132C46.8982 84.0797 49.8915 84.0403 51.4276 83.095C53.712 81.7165 54.8936 79.7078 55.0511 76.9113C55.3268 72.6576 52.9637 69.3098 48.9069 68.2857L47.2132 67.8525L52.2547 63.7957C58.2808 58.9512 62.5345 56.2729 66.5913 54.6974C75.8865 51.1133 85.6149 52.6887 92.1531 58.8724C99.3214 65.6468 100.897 76.675 96.0523 86.2459C93.6104 91.0904 87.8993 95.4623 82.7003 96.447C75.4926 97.8255 69.821 95.8168 67.5366 91.1298C66.5913 89.1999 66.4732 88.6091 66.6307 86.0884C66.9852 80.8106 69.6241 77.0295 73.799 75.9267C77.1469 75.0208 80.8492 76.2418 82.7397 78.8413C83.6456 80.1016 83.8819 80.8106 83.8819 82.5436C83.8819 85.7733 82.5034 87.9001 79.9039 88.5697C78.2497 89.0423 76.2804 88.4515 75.2563 87.2699C74.8231 86.6791 74.8625 86.561 75.729 86.2459C76.9893 85.7733 77.5801 84.7098 77.5801 82.9374C77.5801 81.362 76.6742 80.4167 74.9018 80.0622C73.8778 79.8653 73.4839 80.0229 72.4599 81.0075C71.4358 82.0709 71.2783 82.4648 71.2783 84.4341C71.2783 88.6879 73.6415 91.2874 77.8164 91.6418C83.4093 92.1145 87.5449 87.6244 86.9147 81.7165C86.4027 76.6356 82.7791 73.2484 77.1469 72.5788C74.4292 72.2638 70.6087 73.4847 68.2456 75.4147C65.4097 77.7385 63.0466 83.7646 63.5192 87.5456L63.7161 89.1605L62.6527 86.9942C61.7862 85.1037 61.6287 84.316 61.6287 81.0863C61.6287 77.896 61.7862 77.0295 62.6527 75.139C63.9524 72.4213 66.1187 70.255 68.9151 68.9159C71.0814 67.8919 72.8144 67.7737 78.1709 68.1676C79.6282 68.2857 79.7464 68.207 79.8645 67.2223C80.0221 65.8832 79.2343 65.4499 75.9259 64.9773C69.2696 64.032 63.0072 67.3798 60.2501 73.3272C55.1299 84.316 61.3529 96.5651 73.4052 99.3616C78.6435 100.583 83.2124 100.071 88.4114 97.6679C93.571 95.2654 98.1398 90.3421 99.9516 85.34C100.306 84.316 100.7 83.4495 100.818 83.4495C100.936 83.4495 101.33 84.316 101.685 85.34C103.496 90.3421 108.065 95.2654 113.225 97.6679C118.424 100.071 122.993 100.583 128.231 99.3616C138.156 97.0771 144.34 88.4121 142.961 78.6443C141.662 69.5461 134.375 63.7563 125.71 64.9773C122.402 65.4499 121.614 65.8832 121.772 67.2223C121.89 68.207 122.008 68.2857 123.465 68.1676C128.822 67.7737 130.555 67.8919 132.721 68.9159C135.517 70.255 137.684 72.4213 138.983 75.139C139.85 77.0295 140.007 77.896 140.007 81.0863C140.007 84.316 139.85 85.1431 138.983 86.9942L137.92 89.1605L138.117 87.5456C138.59 83.7646 136.226 77.7385 133.391 75.4147C131.027 73.4847 127.207 72.2638 124.489 72.5788C118.857 73.2484 115.233 76.6356 114.721 81.7165C114.091 87.6244 118.227 92.1145 123.82 91.6418C127.995 91.2874 130.358 88.6879 130.358 84.4341C130.358 82.4648 130.2 82.0709 129.176 81.0075C128.152 80.0229 127.758 79.8653 126.734 80.0622C124.804 80.4561 124.056 81.362 124.056 83.2525C124.056 84.9462 124.647 85.8127 126.183 86.3641C126.813 86.561 126.813 86.7185 126.38 87.2699C125.356 88.4515 123.386 89.0423 121.732 88.5697C119.133 87.9001 117.754 85.7733 117.754 82.5436C117.754 78.4474 120.866 75.7691 125.631 75.7691C129.964 75.7691 132.721 77.896 134.336 82.4648C136.66 89.0817 133.469 95.1078 126.892 96.4863C118.463 98.2193 109.404 93.8081 105.466 86.049C101.251 77.6991 102.157 67.2617 107.711 60.566C112.398 55.0125 120.472 52.0192 128.31 53.0038C134.927 53.8309 140.519 56.7061 149.381 63.7957L154.423 67.8525L152.729 68.2857C148.672 69.3098 146.309 72.6576 146.585 76.9113C146.743 79.7078 147.924 81.7165 150.209 83.095C151.745 84.0403 154.738 84.0797 156.589 83.2132C160.803 81.2044 160.961 74.942 156.865 73.1302C154.856 72.2638 153.123 72.4607 151.745 73.721C150.721 74.6269 150.563 76.4387 151.39 77.1083C152.217 77.8172 154.029 77.4627 154.541 76.5569C154.777 76.1236 155.014 75.6904 155.053 75.6116C155.132 75.5328 155.526 75.7691 155.959 76.163C158.322 78.2899 155.289 81.7952 152.217 80.5349C150.524 79.7865 149.539 78.2899 149.539 76.3205C149.539 74.5088 150.445 73.0515 152.414 71.7123C155.092 69.9006 157.534 70.6883 164.073 75.454C171.438 80.7712 174.51 82.4648 179 83.6464C187.507 85.852 196.133 81.7559 199.993 73.721C201.411 70.6883 201.45 70.5701 201.45 65.9226C201.45 61.8658 201.293 60.8417 200.505 58.833C199.323 55.9184 196.015 52.2949 193.337 51.0739C192.273 50.5619 191.446 50.0892 191.407 49.9711C191.407 49.8529 192.273 49.3803 193.337 48.8683C195.975 47.6867 199.363 43.945 200.505 41.0304C202.277 36.4222 201.923 29.569 199.678 25.1183C198.457 22.7945 195.148 19.4467 192.706 18.1863C184.081 13.6175 176.873 15.1142 164.663 24.0155C158.598 28.4268 157.81 28.8206 155.289 28.86C149.657 28.9388 147.294 21.7311 152.138 19.3285C155.053 17.9106 158.283 21.6917 155.959 23.7792C155.526 24.173 155.132 24.4093 155.053 24.3306C155.014 24.2518 154.777 23.8186 154.541 23.3853C153.99 22.4007 151.942 22.1249 151.272 22.9521C149.933 24.5669 151.863 27.1664 154.462 27.2452C157.495 27.3239 159.543 25.5122 159.779 22.44C159.976 20.195 159.031 18.2257 157.141 16.9653C155.959 16.1776 155.368 16.0594 153.123 16.1776C150.721 16.2958 150.327 16.4533 149.027 17.6743C148.239 18.4226 147.333 19.6042 147.058 20.3132C146.349 21.928 146.349 25.1971 147.058 26.8513C147.845 28.7812 151.036 31.4201 152.926 31.7352C154.423 31.9715 154.462 31.9715 153.675 32.6017C153.241 32.9562 151.233 34.571 149.224 36.2253C138.038 45.3235 129.806 48.3562 120.905 46.6626C112.004 44.969 105.505 39.0611 103.418 30.6324C101.606 23.3459 103.772 14.6809 108.735 9.24561C116.1 1.21079 130.476 0.895699 134.139 8.73358C136.738 14.4052 133.706 22.0856 128.152 23.8579C126.301 24.4093 125.671 24.4487 123.78 24.0549C119.842 23.2278 117.754 20.7858 117.754 16.9653C117.754 12.2784 122.638 9.48193 126.025 12.1996C126.655 12.7116 126.852 13.0661 126.537 13.1842C126.262 13.3024 125.631 13.7356 125.08 14.1689C123.78 15.1929 123.662 17.6743 124.844 18.8559C126.065 20.0769 128.507 19.9193 129.531 18.6196C130.791 17.0047 130.673 13.2236 129.373 11.2543C127.995 9.28499 125.828 8.22156 123.071 8.22156C117.754 8.22156 114.131 12.5934 114.721 18.3045C115.273 23.661 119.487 27.1664 125.553 27.2452C132.406 27.2846 137.369 22.1643 138.117 14.2477C138.393 11.3725 138.668 11.4512 139.574 14.484C141.583 21.3372 138.747 28.1904 132.721 30.9869C130.555 32.0109 129.531 32.0897 123.465 31.7352C121.969 31.6564 121.89 31.6958 121.89 32.7986C121.89 33.7439 122.126 34.0196 123.268 34.4529C125.277 35.1618 130.24 35.1224 132.563 34.3347C138.353 32.4048 141.977 27.8754 142.961 21.2978C143.907 15.3505 141.78 9.36376 137.369 5.2282C134.454 2.58931 132.248 1.40772 128.231 0.541222C117.912 -1.74319 107.002 3.37704 102.59 12.6328C101.842 14.2083 101.212 15.705 101.212 15.9807C101.212 16.2564 101.054 16.4927 100.818 16.4927C100.621 16.4927 100.424 16.2564 100.424 15.9807C100.424 15.705 99.794 14.2083 99.0457 12.6328C94.5162 3.14072 83.2517 -1.94012 72.6568 0.698769ZM25.7871 20.9827C29.7651 22.5976 34.6884 25.8666 42.5263 32.1685L44.8107 33.9802L42.8414 34.6498C40.4388 35.4375 38.4301 37.3675 37.5636 39.6125C36.2245 43.0785 37.7999 47.5685 40.872 49.2227L42.2112 49.9317L41.0296 50.5225C37.091 52.5706 35.8306 58.1241 38.4301 61.9051C39.2178 63.0867 40.3206 63.9138 42.0536 64.7803L44.5744 66.0013L41.6598 68.3645C36.382 72.6576 29.2925 77.5809 27.7564 78.0535C27.3231 78.1717 25.9052 78.7231 24.6055 79.2745C19.4853 81.4408 14.1681 80.2986 11.0172 76.3205C7.98445 72.5001 8.10261 67.6162 11.2535 64.3865C13.8924 61.6688 16.6494 61.1174 19.6822 62.6535C21.8091 63.7563 22.8331 65.0954 23.1088 67.1829C23.3845 69.1522 22.4786 71.0034 20.7456 72.0274C19.052 73.0909 18.8945 73.0121 19.1702 71.4366C19.3671 70.2944 19.2096 69.9006 18.1461 68.8371C17.0827 67.8131 16.6888 67.6555 15.6254 67.8525C13.7349 68.2463 12.7896 69.3885 12.829 71.2397C12.9077 73.918 15.2315 75.5722 18.9732 75.5722C22.4392 75.5722 25.0387 73.3272 25.984 69.5855C27.8352 62.2596 19.0914 56.2729 11.9625 59.9358C8.18139 61.8658 6.25146 65.0954 5.97575 69.9006C5.81821 72.5395 5.93637 73.406 6.64532 74.9814C7.43305 76.7538 7.43305 76.8326 6.72409 76.2024C5.42434 75.0208 3.61257 71.1215 3.10055 68.4433C1.99773 62.3384 4.83355 56.076 9.91438 53.4765C12.2776 52.2555 16.5313 52.0192 19.2489 52.9251C20.9032 53.4765 21.4152 53.4765 21.8878 53.0826C22.7937 52.3343 22.3999 51.0345 21.1001 50.4043L19.9579 49.8529L21.1789 49.3409C22.5574 48.7895 22.8331 47.6473 21.8484 46.8202C21.3364 46.3869 20.785 46.4263 18.8945 47.0171C7.66936 50.4043 -1.0744 37.7613 4.79416 26.6544C5.46373 25.4334 6.33023 24.0943 6.72409 23.7398C7.47243 23.0702 7.47243 23.1096 6.80286 24.4093C5.70005 26.4968 5.81821 32.6805 6.9998 34.8861C9.0085 38.746 12.4351 40.8728 16.4525 40.9122C22.2029 40.9122 26.1022 37.3281 26.1022 32.0503C26.1022 29.2933 25.4326 27.7572 23.4633 26.0242C19.5247 22.5582 12.9471 24.2124 12.829 28.6631C12.7896 30.7505 13.8136 31.8534 15.7436 31.8534C17.9098 31.8534 19.0914 30.7505 19.0914 28.7418C19.0914 27.3239 19.1702 27.1664 19.8791 27.3633C21.6121 27.9147 23.227 30.1598 23.227 32.0503C23.227 33.7439 22.0454 35.792 20.5093 36.7767C17.6341 38.6672 14.6014 38.4309 11.9625 36.0677C7.74814 32.4048 7.74814 26.7725 11.9231 22.637C15.6254 18.9346 19.564 18.462 25.7871 20.9827ZM187.114 20.707C193.455 24.1336 194.715 31.6564 189.674 36.0677C187.035 38.4309 184.002 38.6672 181.127 36.7767C177.818 34.6104 177.582 30.3567 180.615 27.9541C182.151 26.7725 182.545 26.9301 182.545 28.6631C182.545 30.8293 183.569 31.8534 185.696 31.8534C187.822 31.8534 188.847 30.8293 188.807 28.6631C188.689 24.2124 182.111 22.5582 178.173 26.0242C176.204 27.7572 175.534 29.2933 175.534 32.0503C175.534 37.2887 179.551 40.991 185.144 40.9516C189.083 40.9516 192.628 38.6672 194.636 34.8861C195.818 32.6805 195.936 26.4968 194.833 24.4093C194.164 23.1096 194.164 23.0702 194.912 23.7398C196.212 24.9214 198.024 28.7812 198.496 31.3807C200.308 41.4636 191.919 49.7742 182.742 47.0171C180.812 46.4263 180.3 46.3869 179.788 46.8202C178.921 47.5291 179.197 48.9077 180.3 49.3803C180.772 49.5772 181.166 49.8529 181.166 49.9711C181.166 50.0892 180.772 50.3649 180.3 50.5619C179.197 51.0345 178.921 52.413 179.748 53.0826C180.26 53.5159 180.694 53.4765 182.23 52.9644C186.444 51.5072 191.604 52.61 194.558 55.5639C199.835 60.8417 200.111 69.8612 195.148 75.7691L194.164 76.9507L194.991 75.0208C195.7 73.406 195.818 72.5395 195.66 69.9006C195.306 63.2443 191.131 58.9118 185.105 58.8724C177.267 58.833 172.659 66.8284 177.109 72.7364C178.606 74.7451 180.26 75.5722 182.663 75.5722C186.444 75.5722 188.847 73.7604 188.768 70.964C188.728 69.3098 187.744 68.207 186.011 67.8525C184.947 67.6555 184.553 67.8131 183.49 68.8371C182.427 69.9006 182.269 70.2944 182.466 71.4366C182.742 73.0121 182.702 73.0121 181.127 72.2244C177.228 70.1763 177.7 64.8197 181.954 62.6535C184.987 61.1568 187.744 61.6688 190.304 64.3077C192.313 66.3558 193.218 69.5067 192.628 72.185C191.997 74.9814 189.792 77.8172 187.114 79.1957C181.324 82.2285 173.88 79.3927 161.315 69.4279L157.022 66.0407L159.464 64.8591C163.364 63.008 165.097 59.8571 164.427 55.879C164.073 53.8703 162.812 51.9798 161 50.7982L159.543 49.8529L160.803 49.2227C163.836 47.6867 165.412 43.0391 164.073 39.5731C163.206 37.3675 160.803 35.1224 158.558 34.5316L156.825 34.059L159.425 31.9321C168.208 24.7244 174.431 20.9827 179.788 19.683C182.151 19.0922 184.908 19.4861 187.114 20.707ZM101.921 35.6738C104.363 41.9757 110.704 47.3322 117.912 49.1834C119.448 49.5772 120.432 49.9711 120.117 50.0499C113.304 51.9798 108.892 54.3824 105.938 57.7696C104.127 59.7783 101.803 63.7169 101.409 65.4105C101.015 66.9466 100.621 66.789 100.07 64.9379C99.3608 62.4959 95.8554 57.612 93.4134 55.6427C90.8139 53.5159 87.7418 51.901 84.4727 50.9557C83.173 50.5619 81.8338 50.168 81.5188 50.0892C81.2037 49.9711 82.0702 49.5772 83.4881 49.2227C88.372 47.923 91.7198 45.9931 95.0676 42.6058C97.0764 40.5578 99.2426 37.2493 100.07 34.8861C100.345 34.0984 100.7 33.4288 100.818 33.4288C100.936 33.4288 101.409 34.4529 101.921 35.6738ZM49.537 38.234C50.2854 38.6672 52.491 40.282 54.4997 41.7787C58.5959 44.8902 65.6067 48.5138 69.1121 49.3015C70.4118 49.6166 71.1995 49.9317 70.8844 50.0499C70.5694 50.168 68.797 50.7588 66.9458 51.3102C62.7709 52.6494 58.7928 54.8156 53.9877 58.4391C51.9002 60.0146 49.5764 61.5901 48.8281 61.9839C46.9375 62.9686 44.535 62.8898 42.7626 61.8264C39.1784 59.5813 39.2572 54.6187 42.9201 53.122C45.7953 51.9404 48.9069 55.5639 46.6618 57.4545C46.268 57.7696 45.8741 57.6514 45.1258 56.8637C44.5744 56.3123 43.8654 55.879 43.5503 55.879C42.5657 55.879 41.7385 57.0606 41.7385 58.4391C41.7385 59.542 41.9749 59.8964 42.9201 60.4085C43.5503 60.7236 44.6925 60.9993 45.4803 60.9993C50.8762 60.9993 52.2547 53.5552 47.4496 50.68L46.0317 49.8923L47.3314 49.2227C51.0337 47.3716 51.5064 41.7 48.1585 39.5337C46.8194 38.6278 44.1411 38.6278 42.7626 39.5337C41.581 40.3214 41.3447 42.4483 42.29 43.236C43.1565 43.9844 45.0076 43.5905 45.4803 42.6058C45.9923 41.6212 46.6618 41.8969 47.1739 43.2754C47.7253 44.6933 46.78 46.3082 45.1652 46.7414C41.4235 47.7261 38.7846 43.3936 40.9508 39.8094C42.605 37.0918 46.5043 36.3828 49.537 38.234ZM158.204 37.7613C162.182 39.5337 162.615 45.0872 158.913 46.6626C156.353 47.7261 153.556 45.6386 154.462 43.2754C154.974 41.8969 155.644 41.6212 156.156 42.6058C156.628 43.5905 158.48 43.9844 159.346 43.236C160.291 42.4483 160.055 40.3214 158.874 39.5337C157.574 38.6672 154.738 38.6672 153.399 39.5731C150.13 41.7 150.642 47.411 154.305 49.2227L155.604 49.8923L154.187 50.68C149.381 53.5552 150.76 60.9993 156.156 60.9993C156.944 60.9993 158.086 60.7236 158.716 60.4085C159.661 59.8964 159.898 59.542 159.898 58.4391C159.898 57.1 159.07 55.879 158.204 55.879C157.377 55.879 155.959 57.0606 155.959 57.7302C155.959 58.2816 155.88 58.2816 155.211 57.6908C153.596 56.2335 154.029 54.1854 156.156 53.2795C157.337 52.8069 157.692 52.8069 158.874 53.2795C161.315 54.3036 162.221 57.612 160.725 60.054C160.291 60.7236 159.149 61.6688 158.165 62.1415C155.289 63.5594 153.714 63.008 147.648 58.4391C142.843 54.8156 138.865 52.6494 134.69 51.3102C132.839 50.7588 131.067 50.168 130.752 50.0892C130.437 49.9711 131.224 49.6166 132.524 49.3409C136.187 48.4744 143.08 44.8509 148.082 41.1092C153.911 36.816 155.171 36.3828 158.204 37.7613Z" fill="#0072BB"/>
</svg>
