<svg width="40" height="40" viewBox="0 0 40 40" fill="none" xmlns="http://www.w3.org/2000/svg">
<path fill-rule="evenodd" clip-rule="evenodd" d="M22.703 26.8222C20.436 26.8222 18.599 24.9892 18.599 22.7292C18.599 20.4652 20.436 18.6332 22.703 18.6332C23.343 18.6332 23.946 18.7812 24.485 19.0412L29.228 14.2672L31.157 16.1312L26.393 20.9442C26.655 21.4822 26.807 22.0862 26.807 22.7292C26.807 24.9882 24.969 26.8222 22.703 26.8222ZM22.697 21.2852C21.901 21.2852 21.256 21.9302 21.256 22.7222C21.256 23.5132 21.901 24.1582 22.697 24.1582C23.493 24.1582 24.139 23.5142 24.139 22.7222C24.138 21.9302 23.493 21.2852 22.697 21.2852ZM40 22.7092C40 32.2482 32.247 39.9862 22.682 39.9862C16.909 39.9862 11.8 37.1642 8.653 32.8322L10.844 31.3082C13.506 34.9682 17.824 37.3492 22.701 37.3492C30.789 37.3492 37.346 30.8052 37.346 22.7362C37.346 14.6642 30.789 8.12217 22.701 8.12217C17.797 8.12217 13.458 10.5272 10.8 14.2242L8.66 12.5722C11.073 9.25217 14.637 6.82917 18.769 5.87417V2.75517H17.326V0.0761719H28.057V2.75417H26.641V5.88217C34.297 7.67117 40 14.5242 40 22.7092ZM24.129 2.75517H21.283V5.48617C21.745 5.45217 22.211 5.42617 22.683 5.42617C23.171 5.42617 23.652 5.45417 24.13 5.48917V2.75517H24.129ZM14.659 18.6352H2.679V16.1422H14.659V18.6352ZM11.98 23.9822H0V21.4892H11.98V23.9822ZM14.659 29.3312H2.679V26.8382H14.659V29.3312Z" fill="#AC8F64"/>
</svg>
