<svg width="70" height="77" viewBox="0 0 70 77" fill="none" xmlns="http://www.w3.org/2000/svg">
<path d="M12.6375 0.145601C12.5123 0.238758 11.9277 1.65164 11.3431 3.29741L10.2714 6.29395L7.8775 6.82184C6.56919 7.10131 5.33046 7.39631 5.10777 7.48947C4.63455 7.66025 4.45361 8.01735 4.45361 8.77814C4.45361 9.30602 4.5928 9.50786 6.02637 11.1536L7.61305 12.9547L7.15375 15.4389C6.61094 18.4043 6.56919 19.1185 6.9589 19.5533C7.52954 20.1899 8.07236 20.0035 10.8282 18.1559L13.3613 16.4636L15.9083 18.1559C18.6502 20.0035 19.193 20.1899 19.7637 19.5533C20.1534 19.1185 20.1116 18.4043 19.5688 15.4389L19.1095 12.9547L20.6962 11.1536C22.1298 9.50786 22.269 9.30602 22.269 8.77814C22.269 8.01735 22.088 7.66025 21.6148 7.48947C21.3921 7.39631 20.1534 7.10131 18.8451 6.82184L16.4511 6.29395L15.3794 3.29741C14.7114 1.43427 14.2103 0.238758 14.0572 0.145601C13.7232 -0.0562382 12.9437 -0.0407124 12.6375 0.145601ZM14.0294 6.66658C14.3912 7.67578 14.7531 8.43656 14.9062 8.52972C15.115 8.65393 18.3301 9.46129 18.6224 9.46129C18.6641 9.46129 18.2466 9.97365 17.7038 10.6102C16.7713 11.6815 16.7017 11.8057 16.7017 12.4268C16.7156 12.7994 16.8269 13.7154 16.9661 14.4607C17.1053 15.2215 17.1888 15.827 17.161 15.827C17.1192 15.827 16.3676 15.3302 15.4629 14.7402C14.2938 13.9639 13.7092 13.6533 13.3613 13.6533C13.0133 13.6533 12.4288 13.9639 11.2596 14.7402C10.3549 15.3302 9.60336 15.827 9.56161 15.827C9.53377 15.827 9.61728 15.2215 9.75646 14.4607C9.89565 13.7154 10.007 12.7994 10.0209 12.4268C10.0209 11.8057 9.95132 11.6815 9.0188 10.6102C8.47599 9.97365 8.05844 9.46129 8.10019 9.46129C8.39248 9.46129 11.6076 8.65393 11.8164 8.52972C11.9695 8.43656 12.3313 7.67578 12.6932 6.66658C13.0133 5.73501 13.3195 4.9587 13.3613 4.9587C13.403 4.9587 13.7092 5.73501 14.0294 6.66658Z" fill="#AC8F64" fill-opacity="0.2"/>
<path d="M54.9491 0.145601C54.8238 0.238758 54.2392 1.65164 53.6547 3.29741L52.583 6.29395L50.189 6.82184C48.8807 7.10131 47.642 7.39631 47.4193 7.48947C46.9461 7.66025 46.7651 8.01735 46.7651 8.77814C46.7651 9.30602 46.9043 9.50786 48.3379 11.1536L49.9246 12.9547L49.4653 15.4389C48.9225 18.4043 48.8807 19.1185 49.2704 19.5533C49.8411 20.1899 50.3839 20.0035 53.1397 18.1559L55.6728 16.4636L58.2199 18.1559C60.9617 20.0035 61.5046 20.1899 62.0752 19.5533C62.4649 19.1185 62.4232 18.4043 61.8804 15.4389L61.421 12.9547L63.0077 11.1536C64.4413 9.50786 64.5805 9.30602 64.5805 8.77814C64.5805 8.01735 64.3996 7.66025 63.9263 7.48947C63.7036 7.39631 62.4649 7.10131 61.1566 6.82184L58.7627 6.29395L57.691 3.29741C57.0229 1.43427 56.5218 0.238758 56.3687 0.145601C56.0347 -0.0562382 55.2553 -0.0407124 54.9491 0.145601ZM56.3409 6.66658C56.7028 7.67578 57.0646 8.43656 57.2177 8.52972C57.4265 8.65393 60.6416 9.46129 60.9339 9.46129C60.9757 9.46129 60.5581 9.97365 60.0153 10.6102C59.0828 11.6815 59.0132 11.8057 59.0132 12.4268C59.0271 12.7994 59.1385 13.7154 59.2776 14.4607C59.4168 15.2215 59.5003 15.827 59.4725 15.827C59.4307 15.827 58.6792 15.3302 57.7745 14.7402C56.6053 13.9639 56.0208 13.6533 55.6728 13.6533C55.3249 13.6533 54.7403 13.9639 53.5712 14.7402C52.6665 15.3302 51.9149 15.827 51.8731 15.827C51.8453 15.827 51.9288 15.2215 52.068 14.4607C52.2072 13.7154 52.3185 12.7994 52.3324 12.4268C52.3324 11.8057 52.2628 11.6815 51.3303 10.6102C50.7875 9.97365 50.37 9.46129 50.4117 9.46129C50.704 9.46129 53.9191 8.65393 54.1279 8.52972C54.281 8.43656 54.6429 7.67578 55.0047 6.66658C55.3249 5.73501 55.6311 4.9587 55.6728 4.9587C55.7146 4.9587 56.0208 5.73501 56.3409 6.66658Z" fill="#AC8F64" fill-opacity="0.2"/>
<path d="M28.3931 12.7218C25.3032 13.6223 22.617 16.0289 21.2252 19.1651C20.1117 21.6493 20.0421 22.2083 20.0421 28.4342V33.8529L19.6942 34.3652C18.8869 35.5452 18.6781 37.5947 19.2209 39.1783C19.7498 40.7775 21.253 42.0507 22.7701 42.1904L23.5078 42.2525L23.8 43.3549C24.5238 46.0098 26.1244 48.463 28.1565 50L28.9498 50.6211V51.5061V52.3911L25.2893 53.54C23.2851 54.1766 21.1556 54.8908 20.5571 55.1392C19.1096 55.7602 17.6621 56.8626 16.4651 58.26C15.2542 59.6884 14.4887 61.1012 13.8903 63.0265L13.431 64.5015L13.3892 70.4324C13.3474 76.2392 13.3474 76.3634 13.6258 76.674C13.9181 77 13.9181 77 34.5171 77C54.9352 77 55.1161 77 55.3945 76.6895C55.6589 76.3945 55.6728 76.1771 55.6728 70.8206C55.6728 65.8367 55.645 65.1225 55.4084 64.0823C54.8238 61.536 53.8356 59.5952 52.235 57.8873C50.2865 55.7913 49.2843 55.2789 43.7449 53.54L40.0844 52.3911V51.5061V50.6211L40.8916 50C42.9098 48.4474 44.5104 46.0098 45.2341 43.3393L45.5403 42.2214H46.0832C47.5585 42.2214 49.2565 40.8396 49.8132 39.1939C50.3421 37.6102 50.1473 35.5452 49.34 34.3652L49.006 33.8839L48.9642 27.8442L48.9225 21.8046L48.5467 20.9506C47.8369 19.3359 46.5564 18.0628 45.2063 17.6125C44.58 17.4107 44.5243 17.3486 44.1903 16.2773C43.6892 14.7247 42.1721 13.1255 40.7246 12.6441C40.1679 12.4578 39.0266 12.4113 34.7398 12.4268C29.9658 12.4268 29.3256 12.4578 28.3931 12.7218ZM40.154 15.2525C41.3092 15.827 42.0469 16.9759 42.2417 18.513C42.3531 19.4601 42.6732 19.8172 43.5222 19.9414C44.9001 20.1588 45.9301 20.9817 46.445 22.2704C46.6538 22.8138 46.6956 23.4969 46.7373 27.5803L46.793 32.2847H46.2363C45.7491 32.2847 45.6795 32.2381 45.6099 31.85C45.5543 31.5705 44.5661 30.375 42.5618 28.1237C39.7782 25.0495 39.5416 24.8322 39.0823 24.8322C38.2889 24.8322 38.1637 24.9409 37.5791 26.214C36.6605 28.1858 35.0877 29.7384 33.348 30.4371C32.1649 30.8874 30.6757 31.0426 27.1126 31.0426C24.1202 31.0426 23.9253 31.0582 23.6609 31.3531C23.5078 31.5239 23.3825 31.8034 23.3825 31.9742C23.3825 32.2381 23.2851 32.2847 22.8119 32.2847H22.2273L22.3108 27.8132C22.3804 22.9846 22.4639 22.3946 23.2433 20.578C24.482 17.6746 27.2657 15.4389 30.105 15.0662C30.6617 14.9886 33.0139 14.942 35.3522 14.9575C39.0962 14.9731 39.6668 15.0041 40.154 15.2525ZM43.383 37.0978C43.3273 40.2652 43.2577 41.4296 43.0768 42.1438C41.0587 50.295 31.6917 52.2048 27.3214 45.3577C25.9574 43.2462 25.6094 41.4141 25.6094 36.3526V33.5268H28.922C31.7752 33.5268 32.4015 33.4802 33.3201 33.2163C35.4218 32.6263 37.5234 31.0582 38.7761 29.164L39.2911 28.3721L41.3649 30.6855L43.4526 32.9834L43.383 37.0978ZM23.3825 37.2531C23.3825 39.5665 23.3825 39.582 23.0763 39.582C22.1855 39.582 21.2948 38.402 21.2948 37.2531C21.2948 36.1041 22.1855 34.9242 23.0763 34.9242C23.3825 34.9242 23.3825 34.9397 23.3825 37.2531ZM46.7373 35.2347C48.0735 36.1507 48.0735 38.3554 46.7373 39.2715C46.4868 39.4423 46.1388 39.582 45.9718 39.582C45.6517 39.582 45.6517 39.5665 45.6517 37.2531C45.6517 34.9397 45.6517 34.9242 45.9718 34.9242C46.1388 34.9242 46.4868 35.0639 46.7373 35.2347ZM32.2902 51.9874C33.5289 52.2979 36.3682 52.1737 37.6209 51.7545C37.8018 51.6924 37.8575 51.77 37.8575 52.1116C37.8575 52.5308 37.7322 52.624 36.1873 53.4779L34.5171 54.3939L32.8469 53.4779C31.302 52.624 31.1767 52.5308 31.1767 52.1116C31.1767 51.77 31.2324 51.6924 31.4272 51.7545C31.5525 51.8011 31.9422 51.9098 32.2902 51.9874ZM31.2046 55.5118L32.4711 56.226L31.2741 57.5613L30.0633 58.912L28.6714 57.3594C27.9059 56.5055 27.2796 55.7758 27.2796 55.7292C27.2796 55.6826 27.8642 55.4652 28.574 55.2479C29.2699 55.015 29.8684 54.8287 29.8962 54.8131C29.9102 54.8131 30.5086 55.1237 31.2046 55.5118ZM40.5019 55.2634C41.0726 55.4497 41.5876 55.6516 41.6432 55.7137C41.6989 55.7758 41.1283 56.5055 40.3628 57.3594L38.9709 58.912L37.76 57.5613L36.5631 56.226L37.8018 55.5118C38.4838 55.1392 39.138 54.8442 39.2493 54.8753C39.3606 54.9063 39.9313 55.0771 40.5019 55.2634ZM29.938 62.0949C30.3973 62.0949 30.453 62.157 30.7453 62.8557L31.0654 63.6165L30.6339 68.5538C30.3973 71.2864 30.1607 73.7395 30.1189 74.0035L30.0493 74.5158H26.1661H22.269V71.4106V68.3054H21.1556H20.0421V71.4106V74.5158H17.8152H15.5883V71.0535C15.5883 69.1593 15.6579 66.9701 15.7275 66.1783C15.9641 63.6475 16.8131 61.6757 18.4415 59.8436C19.6107 58.5239 20.8911 57.7321 22.965 57.0489L24.4264 56.5521L26.9456 59.3313C29.2421 61.862 29.4926 62.0949 29.938 62.0949ZM48.5049 58.1047C49.7993 58.8499 51.3025 60.4336 52.0402 61.831C53.1954 64.0046 53.4459 65.6504 53.4459 71.0535V74.5158H51.219H48.9921V71.4106V68.3054H47.8786H46.7651V71.4106V74.5158H42.868H38.9848L38.9153 74.0035C38.8735 73.7395 38.6369 71.2864 38.4003 68.5538L37.9688 63.6165L38.2889 62.8557C38.5812 62.157 38.6369 62.0949 39.0962 62.0949C39.5416 62.0949 39.7921 61.862 42.0747 59.3157L44.5661 56.5521L45.9857 57.0023C46.7512 57.2663 47.8925 57.7476 48.5049 58.1047ZM35.6723 59.1139L36.7579 60.3405L36.3821 61.2099L35.9924 62.0949H34.5171H33.0418L32.6521 61.2099L32.2763 60.3405L33.3619 59.1139C33.9464 58.4463 34.4753 57.9028 34.5171 57.9028C34.5588 57.9028 35.0877 58.4463 35.6723 59.1139ZM35.6445 64.6101C35.6445 64.6412 35.8532 66.877 36.1038 69.594L36.5492 74.5158H34.5171H32.485L32.9304 69.5785C33.1809 66.877 33.3897 64.6412 33.3897 64.6101C33.4036 64.5946 33.9047 64.5791 34.5171 64.5791C35.1295 64.5791 35.6306 64.5946 35.6445 64.6101Z" fill="#AC8F64" fill-opacity="0.2"/>
<path d="M8.18393 22.5032C8.05866 22.5964 7.4741 24.0093 6.88953 25.655L5.81783 28.6516L3.42389 29.1795C2.11557 29.459 0.876849 29.7539 0.654157 29.8471C0.180937 30.0179 0 30.375 0 31.1358C0 31.6637 0.139182 31.8655 1.57276 33.5113L3.15944 35.3123L2.70014 37.7965C2.15733 40.762 2.11557 41.4762 2.50528 41.9109C3.07593 42.5475 3.61874 42.3612 6.37456 40.5136L8.90768 38.8212L11.4547 40.5136C14.1966 42.3612 14.7394 42.5475 15.3101 41.9109C15.6998 41.4762 15.658 40.762 15.1152 37.7965L14.6559 35.3123L16.2426 33.5113C17.6762 31.8655 17.8154 31.6637 17.8154 31.1358C17.8154 30.375 17.6344 30.0179 17.1612 29.8471C16.9385 29.7539 15.6998 29.459 14.3915 29.1795L11.9975 28.6516L10.9258 25.655C10.2577 23.7919 9.75669 22.5964 9.60359 22.5032C9.26955 22.3014 8.49013 22.3169 8.18393 22.5032ZM9.57575 29.0242C9.93763 30.0334 10.2995 30.7942 10.4526 30.8874C10.6614 31.0116 13.8765 31.8189 14.1688 31.8189C14.2105 31.8189 13.793 32.3313 13.2502 32.9679C12.3176 34.0392 12.2481 34.1634 12.2481 34.7844C12.262 35.157 12.3733 36.0731 12.5125 36.8183C12.6517 37.5791 12.7352 38.1846 12.7074 38.1846C12.6656 38.1846 11.914 37.6878 11.0093 37.0978C9.8402 36.3215 9.25563 36.011 8.90768 36.011C8.55972 36.011 7.97515 36.3215 6.80602 37.0978C5.90134 37.6878 5.14975 38.1846 5.108 38.1846C5.08016 38.1846 5.16367 37.5791 5.30285 36.8183C5.44203 36.0731 5.55338 35.157 5.5673 34.7844C5.5673 34.1634 5.49771 34.0392 4.56518 32.9679C4.02237 32.3313 3.60483 31.8189 3.64658 31.8189C3.93886 31.8189 7.15398 31.0116 7.36275 30.8874C7.51585 30.7942 7.87773 30.0334 8.2396 29.0242C8.55972 28.0926 8.86592 27.3163 8.90768 27.3163C8.94943 27.3163 9.25563 28.0926 9.57575 29.0242Z" fill="#AC8F64" fill-opacity="0.2"/>
<path d="M59.4032 22.5032C59.2779 22.5964 58.6933 24.0093 58.1088 25.655L57.0371 28.6516L54.6431 29.1795C53.3348 29.459 52.0961 29.7539 51.8734 29.8471C51.4002 30.0179 51.2192 30.375 51.2192 31.1358C51.2192 31.6637 51.3584 31.8655 52.792 33.5113L54.3787 35.3123L53.9194 37.7965C53.3766 40.762 53.3348 41.4762 53.7245 41.9109C54.2952 42.5475 54.838 42.3612 57.5938 40.5136L60.1269 38.8212L62.674 40.5136C65.4158 42.3612 65.9587 42.5475 66.5293 41.9109C66.919 41.4762 66.8773 40.762 66.3344 37.7965L65.8751 35.3123L67.4618 33.5113C68.8954 31.8655 69.0346 31.6637 69.0346 31.1358C69.0346 30.375 68.8537 30.0179 68.3804 29.8471C68.1577 29.7539 66.919 29.459 65.6107 29.1795L63.2168 28.6516L62.1451 25.655C61.477 23.7919 60.9759 22.5964 60.8228 22.5032C60.4888 22.3014 59.7094 22.3169 59.4032 22.5032ZM60.795 29.0242C61.1569 30.0334 61.5187 30.7942 61.6718 30.8874C61.8806 31.0116 65.0957 31.8189 65.388 31.8189C65.4298 31.8189 65.0122 32.3313 64.4694 32.9679C63.5369 34.0392 63.4673 34.1634 63.4673 34.7844C63.4812 35.157 63.5926 36.0731 63.7317 36.8183C63.8709 37.5791 63.9544 38.1846 63.9266 38.1846C63.8848 38.1846 63.1333 37.6878 62.2286 37.0978C61.0594 36.3215 60.4749 36.011 60.1269 36.011C59.779 36.011 59.1944 36.3215 58.0253 37.0978C57.1206 37.6878 56.369 38.1846 56.3272 38.1846C56.2994 38.1846 56.3829 37.5791 56.5221 36.8183C56.6613 36.0731 56.7726 35.157 56.7865 34.7844C56.7865 34.1634 56.7169 34.0392 55.7844 32.9679C55.2416 32.3313 54.8241 31.8189 54.8658 31.8189C55.1581 31.8189 58.3732 31.0116 58.582 30.8874C58.7351 30.7942 59.097 30.0334 59.4588 29.0242C59.779 28.0926 60.0852 27.3163 60.1269 27.3163C60.1687 27.3163 60.4749 28.0926 60.795 29.0242Z" fill="#AC8F64" fill-opacity="0.2"/>
</svg>
