<svg width="64" height="77" viewBox="0 0 64 77" fill="none" xmlns="http://www.w3.org/2000/svg">
<path d="M22.2411 0.391571C20.7023 1.06815 18.7828 3.06779 17.3233 5.51847C16.2446 7.32265 14.8644 10.5702 14.2933 12.7202L14.1188 13.3366L12.5007 13.6824C7.34496 14.78 4.04528 16.4639 2.95068 18.5387C2.39544 19.5911 2.37958 21.1097 2.91895 22.1922C3.83905 24.0866 6.83732 25.996 11.1047 27.4393L12.6118 27.9505L12.7228 28.7023C13.0401 30.747 14.563 32.882 16.0542 33.3932C16.5619 33.5736 16.6095 33.6488 16.9426 34.8816C17.3709 36.4603 18.5766 38.8358 19.6553 40.1739C20.3375 41.0459 20.4326 41.2414 20.3216 41.6022L20.2106 42.0382L17.2757 42.1134C14.4361 42.1886 14.3251 42.2036 13.5001 42.6246C11.7075 43.5116 10.248 45.3459 9.53418 47.6011L9.18517 48.6536L7.85261 49.3151C4.15633 51.1343 1.26911 54.5172 0.317277 58.1105C0.0158639 59.2231 0 59.8095 0 67.8531C0 76.1975 0 76.3929 0.317277 76.6936C0.745601 77.0996 1.79262 77.0996 2.22094 76.6936C2.52235 76.408 2.53822 76.1975 2.53822 68.9807C2.53822 64.9213 2.61754 60.9521 2.69686 60.1853C2.88722 58.4563 3.53764 56.8025 4.58465 55.3892C5.45717 54.2165 7.23392 52.5927 8.23334 52.0665L8.88376 51.7207V52.6679V53.6151L11.7551 56.2462L14.6265 58.8773L14.2933 60.4409C13.9126 62.2301 13.8809 62.9969 14.1664 63.3427C14.2616 63.478 17.1806 65.1919 20.623 67.1615C24.0655 69.1161 26.9527 70.7849 27.032 70.8451C27.0955 70.9052 27.0479 71.1157 26.9051 71.2961C26.6989 71.5818 26.6513 72.0779 26.6513 74.0174C26.6513 76.1975 26.683 76.423 26.9686 76.6936C27.3969 77.0996 28.4439 77.0996 28.8722 76.6936C29.1578 76.423 29.1895 76.1975 29.1895 74.694V73.0101L39.1996 68.2741C44.7043 65.6731 49.2731 63.4178 49.3525 63.2825C49.5745 62.8916 49.527 62.1399 49.1621 60.4409L48.8289 58.8773L51.7003 56.2462L54.5717 53.6151V52.5175V51.42L55.0952 51.6756C56.0311 52.1266 57.6968 53.5098 58.4424 54.457C58.8549 54.9682 59.426 55.8703 59.7274 56.4567C60.7903 58.5766 60.7903 58.5616 60.8696 67.9433C60.9489 76.0471 60.9648 76.438 61.2503 76.7087C61.6628 77.0996 62.7098 77.0996 63.1381 76.6936C63.4554 76.3929 63.4554 76.1975 63.4554 67.7629C63.4554 59.163 63.4554 59.1329 63.0747 57.7196C62.0118 53.7805 58.9659 50.3375 55.1269 48.7889C54.1751 48.413 54.1433 48.3829 53.953 47.6462C53.3819 45.5865 51.7955 43.5868 49.9711 42.6396C49.1145 42.1886 49.051 42.1886 46.1797 42.1134L43.2449 42.0382L43.1338 41.6172C43.0228 41.2564 43.118 41.0459 43.7208 40.2641C45.1168 38.49 46.0528 36.5956 46.5604 34.611C46.8142 33.6638 46.8777 33.5736 47.3853 33.4082C48.8924 32.882 50.4153 30.7621 50.7326 28.7023L50.8437 27.9505L52.3507 27.4393C56.6181 25.996 59.6164 24.0866 60.5365 22.1922C61.0758 21.1097 61.06 19.6062 60.5047 18.5387C59.4419 16.524 55.8566 14.6747 51.0816 13.6824C50.1615 13.502 49.4 13.3366 49.3842 13.3216C49.3525 13.3065 49.1621 12.7051 48.94 11.9534C47.6233 7.65343 45.4975 3.90974 43.1655 1.75975C41.1826 -0.0444412 39.5803 -0.375206 36.5662 0.376541C34.1866 0.977936 33.3775 1.09821 31.6008 1.08318C30.2048 1.08318 29.4909 0.977936 27.6348 0.541924C24.7952 -0.119614 23.4785 -0.149681 22.2411 0.391571ZM26.921 3.05275C28.8246 3.51883 29.126 3.5489 31.7277 3.5489C34.3294 3.5489 34.6308 3.51883 36.5345 3.05275C38.8189 2.51149 39.7231 2.45135 40.2942 2.81219C41.7219 3.72932 43.1973 5.60868 44.514 8.19468C45.4024 9.9688 46.4176 12.5999 46.2749 12.7352C46.2273 12.7803 45.1961 12.7202 43.9905 12.5849C36.6296 11.8031 24.0972 11.8933 17.9579 12.7803L17.1012 12.9006L17.1964 12.4796C17.3709 11.6226 18.4655 9.0667 19.2904 7.53315C20.3375 5.63875 21.6859 3.90974 22.7646 3.14296C23.7641 2.42129 24.2241 2.40625 26.921 3.05275ZM36.7565 14.6747C44.4981 14.9002 52.1445 16.1632 55.6028 17.802C57.443 18.659 58.2203 19.4709 58.2203 20.5083C58.2203 21.696 55.9518 23.3047 52.3349 24.6579L50.2567 25.4547L49.876 25.1089C49.5111 24.7932 49.4952 24.688 49.4952 22.9439C49.4952 21.3352 49.4635 21.0796 49.1779 20.809C48.8289 20.4481 48.94 20.4782 46.4811 19.8768C44.3553 19.3506 41.1984 18.7792 38.3905 18.4034C35.5192 18.0275 28.0314 18.0275 25.0649 18.4034C20.2264 19.0348 14.8327 20.2376 14.2616 20.809C13.9919 21.0796 13.9602 21.3652 13.9602 22.9439C13.9602 24.688 13.9443 24.7932 13.5795 25.1089L13.1987 25.4547L11.1206 24.6579C7.5036 23.3047 5.23507 21.696 5.23507 20.5083C5.23507 19.11 6.90078 17.9223 10.3115 16.8848C15.3245 15.3814 25.1918 14.344 32.6795 14.5544C33.4251 14.5845 35.2495 14.6296 36.7565 14.6747ZM36.0109 20.7789C37.0104 20.8541 38.3429 21.0044 38.9458 21.0796L40.0562 21.245L40.6115 22.1621C40.9129 22.6582 41.5474 23.5603 41.9916 24.1768C42.4517 24.7782 42.7531 25.2743 42.6579 25.2743C42.5469 25.2743 41.8171 25.0187 41.0239 24.718C39.739 24.2219 39.3899 24.1617 37.9146 24.1016C35.9792 24.0415 34.377 24.2971 33.1396 24.8834C32.6954 25.1089 32.0608 25.2743 31.7277 25.2743C31.3946 25.2743 30.76 25.1089 30.3158 24.8834C29.0784 24.2971 27.4762 24.0415 25.5408 24.1016C24.0655 24.1617 23.7165 24.2219 22.4315 24.718C21.6383 25.0187 20.8927 25.2743 20.7975 25.2743C20.7023 25.2743 20.972 24.8233 21.3845 24.2519C21.9714 23.4852 22.9709 21.9967 23.3833 21.26C23.4468 21.1548 27.619 20.7187 29.4275 20.6436C31.9657 20.5233 33.4093 20.5534 36.0109 20.7789ZM46.957 23.5603C46.957 24.4624 46.9411 24.4925 46.4811 24.6429C46.0528 24.7932 45.9734 24.7631 45.4658 24.2068C45.1644 23.8761 44.6409 23.2145 44.276 22.7334L43.6415 21.8614L45.2913 22.2523L46.957 22.6282V23.5603ZM19.4332 22.3726C19.0366 22.9589 18.2593 23.9212 17.7992 24.4023C17.4661 24.7481 17.3551 24.7782 16.9585 24.6429C16.5143 24.4925 16.4984 24.4474 16.4984 23.5603V22.6282L17.8151 22.3124C18.529 22.1471 19.2429 21.9967 19.4174 21.9817C19.7029 21.9666 19.7029 21.9817 19.4332 22.3726ZM28.2853 26.9131C28.7929 27.0935 28.7929 27.0635 28.4439 28.0858L28.1742 28.8827L26.5085 28.8677C25.5884 28.8526 24.6524 28.8075 24.4462 28.7474C24.002 28.6271 23.542 28.0858 23.3992 27.5145C23.304 27.1386 23.3516 27.0935 24.0655 26.8831C24.4779 26.7477 24.9697 26.6275 25.1442 26.5974C25.6519 26.5222 27.7935 26.7327 28.2853 26.9131ZM39.5486 26.9432C40.0721 27.1236 40.1356 27.1838 40.0562 27.5296C39.9135 28.0858 39.4534 28.6421 39.0092 28.7474C38.803 28.8075 37.867 28.8526 36.9469 28.8677L35.2812 28.8827L35.0115 28.0858C34.8688 27.6348 34.7418 27.2289 34.7418 27.1687C34.7418 26.9733 35.6302 26.7477 36.8041 26.6425C38.0415 26.5373 38.5492 26.5974 39.5486 26.9432ZM20.8292 28.4918C21.2258 29.6645 21.9238 30.4914 22.8915 30.9274C23.6689 31.2582 23.891 31.2883 26.4133 31.2883C28.8246 31.2883 29.1578 31.2582 29.6337 30.9876C30.2682 30.6117 30.6807 29.9953 31.1249 28.6872C31.3628 27.9956 31.5532 27.6799 31.7277 27.6799C31.9022 27.6799 32.0926 27.9956 32.3305 28.6872C32.7747 29.9953 33.1872 30.6117 33.8217 30.9876C34.2977 31.2582 34.6308 31.2883 37.058 31.2883C39.6596 31.2883 39.7865 31.2732 40.5956 30.8974C41.5792 30.4313 42.2296 29.6495 42.6262 28.4918L42.8959 27.6799H43.6732H44.4664L44.3712 30.1907C44.3077 31.9949 44.1808 33.0624 43.9429 33.9194C42.1979 40.3693 34.9957 45.5865 29.8082 44.1281C28.5073 43.7522 26.683 42.8351 25.2711 41.8277C23.0502 40.234 21.4479 38.3697 20.3057 36.0393C19.4174 34.2501 19.1953 33.1526 19.0842 30.2358L18.989 27.6799H19.7822H20.5596L20.8292 28.4918ZM26.8575 45.7819C29.3481 46.8945 31.7912 47.2102 34.1073 46.684C35.5033 46.3833 38.0415 45.1955 39.5486 44.1732C40.3259 43.6319 40.8018 43.3914 40.8494 43.5116C40.8812 43.6018 41.0715 44.2634 41.246 44.955C41.4364 45.6466 41.7219 46.4735 41.8806 46.7892C42.2772 47.4959 43.2131 48.2326 44.0222 48.4581C44.3712 48.5483 44.6885 48.6536 44.7202 48.6686C44.7519 48.6987 44.3871 49.4955 43.927 50.4427L43.0704 52.1717L42.1979 52.5025C39.3424 53.5399 36.0268 54.006 31.6484 54.006C28.0949 53.991 25.3663 53.6903 22.9233 53.0137C20.5754 52.3672 20.512 52.3221 19.7346 50.6532C18.7669 48.5483 18.7669 48.6536 19.4649 48.4581C20.2581 48.2326 21.1941 47.4809 21.5748 46.7892C21.7335 46.4735 22.019 45.6466 22.2094 44.955C22.3839 44.2634 22.5743 43.6018 22.606 43.5116C22.6536 43.3914 23.2247 43.677 24.1607 44.2784C24.9856 44.8046 26.1912 45.4812 26.8575 45.7819ZM15.0707 46.699C17.2916 52.3822 21.3369 60.05 24.9221 65.3724C25.6043 66.3947 26.1278 67.2217 26.096 67.2217C25.985 67.2217 17.0695 62.1098 16.9109 61.9594C16.8315 61.8843 16.9743 60.8619 17.2599 59.4486C17.8627 56.6371 17.8944 56.0658 17.4502 55.6448C17.0219 55.2389 15.9749 55.2389 15.5783 55.6448C15.2928 55.9305 15.261 55.9154 13.4208 54.1563L11.533 52.3672L11.6282 51.0291C11.8027 48.6536 12.5007 46.8494 13.6746 45.7218C14.0395 45.391 14.3727 45.1655 14.4361 45.2256C14.4837 45.2858 14.7692 45.9473 15.0707 46.699ZM50.3995 46.4284C51.2244 47.541 51.8748 49.7812 51.8748 51.5703V52.4123L50.0029 54.1864C48.1785 55.9154 48.1309 55.9455 47.8612 55.6448C47.4964 55.2389 46.4335 55.2389 46.0052 55.6448C45.561 56.0658 45.5927 56.6371 46.1797 59.4486C46.4652 60.7416 46.6556 61.8392 46.6239 61.8692C46.5921 61.8993 44.0381 63.1171 40.9605 64.5755L35.3605 67.2217L36.9945 65.3874C40.7225 61.1776 43.2449 57.5843 45.7038 52.9385C47.0046 50.4728 48.1151 48.0071 48.7179 46.2179L49.0828 45.1354L49.4794 45.4361C49.7015 45.6015 50.1139 46.0525 50.3995 46.4284ZM25.0649 56.1109C26.4292 56.3514 27.8252 56.4567 30.5696 56.5018C34.5039 56.592 36.6931 56.4416 39.2948 55.9305C40.1356 55.7801 40.8494 55.6598 40.8812 55.6899C40.9605 55.7801 39.2472 58.2909 37.9622 59.9748C35.075 63.7336 30.6014 68.4244 30.2206 68.1238C29.8716 67.8531 27.5238 64.5003 26.0643 62.185C24.6842 60.0199 22.2094 55.7801 22.2094 55.5997C22.2094 55.5546 22.4474 55.5847 22.7329 55.6598C23.0026 55.735 24.0655 55.9455 25.0649 56.1109Z" fill="#AC8F64" fill-opacity="0.2"/>
<path d="M13.0082 68.8755C12.7068 69.1612 12.6909 69.3717 12.6909 72.7846C12.6909 76.1975 12.7068 76.408 13.0082 76.6937C13.4365 77.0996 14.4835 77.0996 14.9119 76.6937C15.2133 76.408 15.2291 76.1975 15.2291 72.7846C15.2291 69.3717 15.2133 69.1612 14.9119 68.8755C14.7056 68.6801 14.3884 68.5748 13.96 68.5748C13.5317 68.5748 13.2144 68.6801 13.0082 68.8755Z" fill="#AC8F64" fill-opacity="0.2"/>
<path d="M48.5434 68.8755C48.2419 69.1612 48.2261 69.3717 48.2261 72.7846C48.2261 76.1975 48.2419 76.408 48.5434 76.6937C48.9717 77.0996 50.0187 77.0996 50.447 76.6937C50.7484 76.408 50.7643 76.1975 50.7643 72.7846C50.7643 69.3717 50.7484 69.1612 50.447 68.8755C50.2408 68.6801 49.9235 68.5748 49.4952 68.5748C49.0669 68.5748 48.7496 68.6801 48.5434 68.8755Z" fill="#AC8F64" fill-opacity="0.2"/>
<path d="M32.0448 73.6866C31.8386 73.8821 31.7275 74.1828 31.7275 74.5887C31.7275 75.3856 32.1559 75.7915 32.9966 75.7915C33.8374 75.7915 34.2658 75.3856 34.2658 74.5887C34.2658 74.1828 34.1547 73.8821 33.9485 73.6866C33.7422 73.4912 33.425 73.386 32.9966 73.386C32.5683 73.386 32.251 73.4912 32.0448 73.6866Z" fill="#AC8F64" fill-opacity="0.2"/>
</svg>
