<svg width="66" height="77" viewBox="0 0 66 77" fill="none" xmlns="http://www.w3.org/2000/svg">
<path d="M30.1819 0.369186C28.3574 1.01567 26.9153 2.36877 26.394 3.87222L26.1855 4.50368L22.1543 4.54877L18.1231 4.59388L17.3933 5.02988C16.9936 5.27044 16.455 5.76657 16.2291 6.11237L15.7773 6.75885L9.12234 6.80396L2.46738 6.84905L1.72021 7.30009C1.25106 7.58574 0.781915 8.05182 0.486525 8.56299L0 9.35982V41.8794V74.399L0.486525 75.1959C0.781915 75.707 1.25106 76.1731 1.72021 76.4588L2.46738 76.9098L25.3862 76.9549L48.305 76.985V75.8574V74.7298H26.255C10.6167 74.7298 4.06596 74.6847 3.66631 74.5644C3.37092 74.4742 3.04078 74.2788 2.9539 74.1284C2.71064 73.7375 2.71064 10.0213 2.9539 9.63044C3.28404 9.0892 4.04858 9.02906 9.92163 9.02906H15.6383V10.1566V11.2842H10.4255H5.21277V14.667V18.0498H6.60284H7.99291V15.7946V13.5394H11.8851H15.7773L16.2117 14.1859C16.455 14.5467 16.9936 15.0429 17.3933 15.2834L18.1231 15.7194L32.4755 15.7645L46.828 15.7946L47.7316 15.3435C48.3397 15.0429 48.7915 14.667 49.0869 14.216L49.556 13.5394H53.4482H57.3404V37.3691V61.1987H52.1277H46.9149V65.7091V70.2194H27.4539H7.99291V45.2622V20.3049H6.60284H5.21277V46.3898V72.4746H27.1585H49.0869L54.6124 67.6936L60.1206 62.9277V37.0985V11.2842H54.9078H49.695V10.1566V9.02906H55.4117C61.2848 9.02906 62.0493 9.0892 62.3794 9.63044C62.6227 10.0213 62.6227 73.7375 62.3794 74.1284C62.1014 74.5945 61.2153 74.7298 58.6262 74.7298H56.1241V75.8724V77L59.495 76.9549L62.866 76.9098L63.6131 76.4588C64.0823 76.1731 64.5514 75.707 64.8468 75.1959L65.3333 74.399V41.8794V9.35982L64.8468 8.56299C64.5514 8.05182 64.0823 7.58574 63.6131 7.30009L62.866 6.84905L56.211 6.80396L49.556 6.75885L49.1043 6.11237C48.8784 5.76657 48.3397 5.27044 47.9401 5.02988L47.2103 4.59388L43.1791 4.54877L39.1479 4.50368L38.8699 3.72188C38.2791 2.17332 36.8543 0.925468 34.995 0.309052C33.6223 -0.126945 31.5199 -0.0968857 30.1819 0.369186ZM34.7865 2.94009C35.8117 3.57153 36.4894 4.72919 36.4894 5.90189V6.77388H40.9897C45.6117 6.77388 46.4284 6.86409 46.7411 7.37526C46.967 7.73608 46.967 12.5772 46.7411 12.938C46.3762 13.5244 45.8897 13.5394 32.6667 13.5394C19.4436 13.5394 18.9571 13.5244 18.5922 12.938C18.3663 12.5772 18.3663 7.73608 18.5922 7.37526C18.905 6.86409 19.7216 6.77388 24.3436 6.77388H28.844V5.90189C28.844 4.4285 29.7997 3.10547 31.2766 2.57926C31.5199 2.48905 32.2323 2.42892 32.8752 2.45898C33.8482 2.48905 34.1784 2.57926 34.7865 2.94009ZM55.2553 63.499C55.2553 63.5141 54.0043 64.6116 52.4752 65.9346L49.695 68.3401V65.8895V63.4539H52.4752C54.0043 63.4539 55.2553 63.469 55.2553 63.499Z" fill="#AC8F64" fill-opacity="0.2"/>
<path d="M52.1274 17.7491V18.9518H53.5175H54.9076V17.7491V16.5463H53.5175H52.1274V17.7491Z" fill="#AC8F64" fill-opacity="0.2"/>
<path d="M27.454 21.3574V23.6125H24.8476H22.2412V28.198V32.7836H24.8476H27.454V35.0387V37.2939H32.6667H37.8795V35.0387V32.7836H40.4859H43.0923V28.198V23.6125H40.4859H37.8795V21.3574V19.1022H32.6667H27.454V21.3574ZM35.2731 23.7629V26.018H37.8795H40.4859V28.198V30.378H37.8795H35.2731V32.6332V34.8884H32.6667H30.0604V32.6332V30.378H27.454H24.8476V28.198V26.018H27.454H30.0604V23.7629V21.5077H32.6667H35.2731V23.7629Z" fill="#AC8F64" fill-opacity="0.2"/>
<path d="M52.1274 22.2594V23.4622H53.5175H54.9076V22.2594V21.0567H53.5175H52.1274V22.2594Z" fill="#AC8F64" fill-opacity="0.2"/>
<path d="M13.0317 43.9842V47.367H17.0282H21.0246V43.9842V40.6015H17.0282H13.0317V43.9842ZM18.2445 43.9842V45.1118H17.0282H15.8119V43.9842V42.8567H17.0282H18.2445V43.9842Z" fill="#AC8F64" fill-opacity="0.2"/>
<path d="M26.064 43.9843V45.1118H39.1828H52.3016V43.9843V42.8567H39.1828H26.064V43.9843Z" fill="#AC8F64" fill-opacity="0.2"/>
<path d="M13.0317 54.1325V57.5905H17.0282H21.0246V54.1325V50.6746H17.0282H13.0317V54.1325ZM18.2445 54.1325V55.1849H17.0282H15.8119V54.1325V53.0801H17.0282H18.2445V54.1325Z" fill="#AC8F64" fill-opacity="0.2"/>
<path d="M26.064 54.1325V55.3353H39.1828H52.3016V54.1325V52.9298H39.1828H26.064V54.1325Z" fill="#AC8F64" fill-opacity="0.2"/>
<path d="M13.1534 60.8379C13.0839 60.8981 13.0317 62.4616 13.0317 64.3109V67.6636H17.0282H21.0246L20.9899 64.2357L20.9378 60.8229L17.0977 60.7778C14.9952 60.7627 13.2229 60.7928 13.1534 60.8379ZM18.2445 64.2056V65.2581H17.0282H15.8119V64.2056V63.1532H17.0282H18.2445V64.2056Z" fill="#AC8F64" fill-opacity="0.2"/>
<path d="M26.1856 63.1081C26.1161 63.1532 26.064 63.6945 26.064 64.3109V65.4084H35.2732H44.4998L44.4477 64.2357L44.3955 63.078L35.3427 63.0329C30.3732 63.0179 26.2377 63.048 26.1856 63.1081Z" fill="#AC8F64" fill-opacity="0.2"/>
<path d="M50.9116 75.8574V76.985H52.2148H53.518V75.8574V74.7298H52.2148H50.9116V75.8574Z" fill="#AC8F64" fill-opacity="0.2"/>
</svg>
