<svg width="69" height="77" viewBox="0 0 69 77" fill="none" xmlns="http://www.w3.org/2000/svg">
<path d="M36.829 0.219398C36.0403 0.649422 29.0622 9.9563 28.9285 10.7549C28.7413 11.9221 29.2226 13.1047 30.0781 13.6268C30.4257 13.8418 30.8267 13.9186 31.709 13.9186H32.8854V16.5755V19.2478L32.2839 19.7393C31.963 20.0004 31.5219 20.4918 31.3214 20.8143L30.9604 21.3979L30.3187 20.8143C29.3964 19.985 28.3536 19.5703 27.097 19.555L26.041 19.5243L23.1668 15.6848C20.1991 11.7071 19.651 11.1542 18.7687 11.1542C17.6859 11.1542 17.472 11.3846 13.622 16.4988C11.6168 19.171 9.86562 21.5976 9.73194 21.8894C9.26406 22.9491 9.5849 24.4388 10.4405 25.1452C10.8415 25.4678 11.0687 25.5138 12.2719 25.5599L13.6354 25.6213V26.2049C13.6354 26.6964 13.5686 26.8346 13.1007 27.1878C12.1516 27.8943 10.7747 29.3533 9.98594 30.4744C7.01823 34.6364 5.89531 39.2591 5.1467 50.3936C4.49167 60.0998 3.58264 63.97 0.949132 68.1934C0.120312 69.5295 0 69.806 0 70.3896C0 71.2496 0.294097 71.8946 0.828819 72.2172C1.17639 72.4168 1.48385 72.4475 2.40625 72.3707C3.03455 72.3247 3.87674 72.1711 4.27778 72.0482C4.67882 71.9254 5.05312 71.8179 5.11997 71.8179C5.17344 71.8179 5.21354 72.2786 5.21354 72.8468C5.22691 73.4304 5.28038 74.3673 5.34722 74.9662C5.4408 75.8723 5.52101 76.1027 5.86858 76.4559C6.4434 77.0549 7.11181 77.1624 7.80694 76.7631C8.88976 76.1641 11.0687 72.8468 12.3655 69.8213C13.8627 66.289 14.6113 62.8028 15.1059 56.8439C15.253 54.9856 15.4267 53.1734 15.4802 52.8048L15.5738 52.1444L19.5441 56.7211C22.846 60.5452 23.5278 61.4052 23.6481 61.912C23.7417 62.3113 23.7951 64.7532 23.7951 68.7156V74.9048L24.1293 75.2734C24.5571 75.7802 25.172 75.7802 25.6132 75.2734L25.9474 74.8894L25.9073 68.178L25.8672 61.4513L25.4929 60.5298C25.172 59.7619 24.4368 58.8251 20.4799 54.2331C17.2448 50.4858 15.7075 48.5814 15.3866 47.9517C14.4509 46.1395 14.0766 44.0662 14.3172 42.085C14.5043 40.5338 14.8519 39.4895 15.654 38.1227C16.3759 36.8787 16.4694 36.2951 16.055 35.7115C15.8812 35.4504 15.6674 35.3582 15.3064 35.3582C14.8786 35.3582 14.7182 35.4657 14.2905 36.0033C13.6087 36.894 12.7398 38.8598 12.4189 40.2881C12.0714 41.8393 12.0312 44.4194 12.3521 45.9398C12.4724 46.5234 12.7932 47.5524 13.0606 48.2128L13.5552 49.4261L13.2477 53.3577C12.7531 59.9309 12.3922 62.5263 11.6035 65.3522C10.8281 68.1627 9.30417 71.4032 7.92726 73.2001L7.39253 73.8758L7.31233 71.6643C7.23212 69.6831 7.19201 69.422 6.92465 69.0995C6.55035 68.6388 5.98889 68.6388 5.06649 69.1149C4.66545 69.3145 3.94358 69.5756 3.44896 69.6985L2.56667 69.9442L3.16823 68.9306C4.37135 66.9187 5.40069 64.2003 6.01562 61.4206C6.56371 59.0247 6.88455 56.2603 7.28559 50.624C8.04757 39.7506 8.98333 35.8497 11.7238 31.9949C13.5953 29.384 16.6833 27.2493 20.2125 26.1282C20.8943 25.9131 21.4958 25.7442 21.5627 25.7442C21.6161 25.7442 21.6562 26.0974 21.6562 26.5428V27.3414L19.651 29.6605C17.7929 31.8106 17.6458 32.0256 17.6458 32.5477C17.6458 33.3003 18.0201 33.7303 18.6752 33.7303C19.1431 33.7303 19.3436 33.5307 22.3247 30.1366C25.8271 26.1282 26.0944 25.8978 27.5382 25.8978C29.0087 25.8978 30.0648 26.7271 30.7198 28.3397C30.9872 29.0154 31.0406 29.3226 30.9872 30.1058C30.947 30.628 30.8134 31.2884 30.6797 31.5802C30.5594 31.872 28.3804 34.4982 25.8538 37.4162C21.6964 42.2079 21.2552 42.7761 21.2552 43.2215C21.2552 44.0201 21.6964 44.4194 22.7658 44.5423C23.2738 44.6037 24.1694 44.8187 24.771 45.0491C28.5675 46.4159 31.3347 49.38 32.8988 53.7416C33.4068 55.1392 33.6073 55.3849 34.2222 55.3849C35.1446 55.3849 35.5189 54.4788 35.0911 53.2809C34.9842 52.9737 34.904 52.6973 34.9307 52.6666C34.9575 52.6359 35.4521 52.728 36.0403 52.8662C36.6552 53.0198 37.7648 53.1427 38.6738 53.1427C40.1844 53.158 40.278 53.1427 40.5186 52.7894C40.8394 52.3287 40.8394 51.6837 40.5052 51.2076C40.2646 50.8543 40.1443 50.8236 38.7406 50.7315C37.1365 50.6393 35.8264 50.3629 34.6233 49.8868C33.4335 49.3953 33.2464 49.2571 32.6849 48.3664C32.4042 47.9056 31.7358 47.0609 31.201 46.4927C30.3455 45.5405 30.2786 45.433 30.4925 45.2794C30.6262 45.1719 30.9604 44.7573 31.2278 44.3426L31.7224 43.5747L32.2571 44.1122C33.1127 44.9416 34.0885 45.3102 35.4922 45.3102C36.575 45.3255 36.7889 45.2794 37.5776 44.8494C38.0722 44.573 38.7139 44.0969 39.0214 43.7897L39.5694 43.2215L40.1576 43.8358C42.0559 45.8477 44.9167 45.8784 46.9085 43.9279L47.4566 43.3751L48.125 44.0662C50.6516 46.677 54.809 45.1719 55.678 41.3325C55.7849 40.8256 55.8785 39.7813 55.8785 38.9366C55.8785 37.2012 55.678 37.3701 57.9505 37.109C59.5146 36.9247 60.7578 36.9862 62.509 37.3548C63.4849 37.5544 65.2896 38.1687 65.6505 38.4298C65.7307 38.4759 65.0757 38.9827 64.2068 39.5202C62.255 40.7642 62.0278 40.9946 62.0278 41.701C62.0278 42.1925 62.1481 42.3922 63.0036 43.329C63.5384 43.9126 64.0998 44.619 64.2602 44.8648L64.5543 45.3409L63.5918 45.1412C61.9877 44.8187 59.675 44.7266 58.1644 44.9262C56.1325 45.2026 54.6887 45.6787 50.6382 47.4142C48.6597 48.2589 46.347 49.1803 45.5182 49.4568C44.676 49.7332 43.8606 50.0865 43.7135 50.24C43.2991 50.6701 43.3526 51.5915 43.7938 51.9908C43.9943 52.1751 44.275 52.3133 44.4087 52.3133C44.9969 52.3133 48.2052 51.1461 51.1863 49.8254C52.3226 49.3339 53.2583 48.95 53.2851 48.9807C53.4187 49.1189 52.4964 50.4397 50.5312 52.943C49.3148 54.4942 48.1651 55.9839 47.9646 56.2757L47.5903 56.8132V65.859V74.9048L47.9245 75.2734C48.3523 75.7802 48.9672 75.7802 49.395 75.2734L49.7292 74.9048V66.3044V57.704L50.6382 56.5368L51.5339 55.3849L51.6007 65.2293L51.6675 75.0737L51.9884 75.3655C52.2825 75.642 52.5632 75.6573 56.4667 75.6573C61.0385 75.642 60.9984 75.6573 61.2257 74.7205C61.3059 74.398 61.3594 68.8999 61.3594 60.7448V47.2913L62.2684 47.4295C62.763 47.5063 63.5918 47.6753 64.0998 47.7981C65.5436 48.136 66.0917 48.0899 66.5729 47.5985C67.0943 47.0609 67.2948 46.1856 67.0542 45.4177C66.8937 44.8494 66.0917 43.4518 65.3698 42.4536L64.9688 41.9007L66.3858 41.0099C68.0835 39.9349 68.4444 39.5049 68.4444 38.5527C68.4444 37.1244 67.8028 36.5562 65.2361 35.604C64.2201 35.2354 61.9342 34.6518 61.4663 34.6518C61.4262 34.6518 61.3594 33.6074 61.3326 32.3327L61.2925 30.0137L60.9182 29.6451C60.4637 29.1997 60.0359 29.169 59.5681 29.599C59.2205 29.9062 59.2205 29.9062 59.2205 32.1945C59.2205 34.79 59.3007 34.6364 57.8837 34.6518C57.4826 34.6671 56.8677 34.7286 56.5201 34.79L55.8785 34.9129V30.5666C55.8785 26.7425 55.8517 26.1282 55.6245 25.2988C55.3438 24.2698 54.8759 23.4559 54.1807 22.7801L53.7396 22.3501V20.1386C53.7396 17.1591 53.8064 17.2513 51.4536 17.1438L49.6891 17.067L53.0712 12.5518C55.7849 8.95804 56.4934 8.09799 56.6003 8.26693C56.6806 8.38979 58.1644 10.371 59.8889 12.6746C61.6134 14.9783 63.0571 16.9134 63.0705 17.0056C63.0972 17.0824 62.4422 17.1438 61.4663 17.1438C59.0601 17.1438 59.2205 16.8059 59.2205 21.6744V25.5753L59.5681 25.8824C60.0359 26.3124 60.4637 26.2817 60.9182 25.8364L61.2925 25.4678L61.3326 22.5498L61.3861 19.6318L62.6293 19.5703C64.0062 19.5243 64.3672 19.34 64.942 18.3724C65.3163 17.7274 65.3564 16.3452 64.9955 15.7462C64.8752 15.5159 63.2042 13.2582 61.2925 10.7088C58.3248 6.7465 57.75 6.0554 57.2554 5.84039C56.5736 5.53323 55.7314 5.62537 55.2234 6.04004C54.5684 6.59292 47.8576 15.6541 47.7106 16.1916C47.4967 16.9134 47.6304 17.9424 47.9913 18.526C48.4592 19.2785 49.1944 19.6011 50.5045 19.6011H51.6007V20.5072V21.3979L50.7852 21.5054C49.9564 21.5976 48.526 22.2272 48.2453 22.6112C48.125 22.7801 48.0181 22.688 47.6972 22.1351C47.1759 21.229 46.6411 20.7222 45.5984 20.1693C44.9033 19.7853 44.5691 19.7086 43.7002 19.6932L42.6441 19.6778V16.7906V13.9186H43.7403C44.5691 13.9186 44.9701 13.8418 45.3979 13.5961C46.3604 13.0739 46.8283 11.7532 46.4807 10.586C46.2668 9.84879 39.3288 0.541916 38.8075 0.265472C38.1658 -0.072403 37.4038 -0.0877609 36.829 0.219398ZM41.1736 6.99223C42.8981 9.29591 44.3418 11.231 44.3552 11.3232C44.3819 11.3999 43.7536 11.4614 42.8045 11.4614C41.3875 11.4614 41.1736 11.4921 40.8528 11.7839L40.5052 12.091V16.4373C40.5052 20.5532 40.4918 20.799 40.2378 21.0601C39.9839 21.3211 39.9571 21.3058 39.3021 20.4611C38.3797 19.3246 37.2434 18.6642 35.9601 18.5567L35.0243 18.4799V15.3776C35.0243 11.3385 35.158 11.5689 32.7651 11.4614L31.0139 11.3846L34.3826 6.88472C36.976 3.4292 37.7915 2.43093 37.8984 2.59987C37.9653 2.70737 39.4491 4.68855 41.1736 6.99223ZM21.3889 17.1591L23.9288 20.5225L23.3941 21.0754C23.1134 21.3672 22.6856 21.9508 22.4583 22.3655C22.0707 23.0566 21.9771 23.1334 21.2819 23.2869C19.9719 23.5941 18.1806 24.2084 16.9908 24.7613C16.3625 25.0531 15.8411 25.2835 15.8144 25.2835C15.7877 25.2835 15.7743 24.9456 15.7743 24.5309C15.7743 23.8859 15.7208 23.717 15.4267 23.4559C15.1059 23.1641 14.892 23.1334 13.3413 23.1334C12.3922 23.1334 11.6302 23.0719 11.6569 23.0105C11.7773 22.6726 18.6618 13.6575 18.7554 13.719C18.8089 13.7497 19.9986 15.3008 21.3889 17.1591ZM37.0696 21.5515C37.3771 21.7972 37.8049 22.2887 38.0321 22.6573L38.4332 23.3177L38.4733 31.7184L38.5 40.1038L38.1391 40.9485C37.2434 42.9911 35.0377 43.5286 33.5672 42.0696C32.4844 41.0253 32.4175 40.7181 32.3774 36.8172L32.3373 33.3771L32.6983 32.4556C32.9656 31.7645 33.0726 31.1963 33.126 30.2133C33.1795 29.0462 33.1394 28.7543 32.8186 27.7407C31.8962 24.8381 32.3908 22.3808 34.1153 21.3826C35.0778 20.8143 36.2542 20.8758 37.0696 21.5515ZM27.6719 22.0737C28.3937 22.258 29.1424 22.7955 29.53 23.4098L29.8108 23.8705L29.129 23.6402C28.0462 23.2716 26.2148 23.4252 25.1988 23.9473C24.7576 24.1931 24.3031 24.4849 24.1694 24.6231C23.7818 25.0224 23.862 24.5463 24.3165 23.717C24.7576 22.9184 25.3325 22.4115 26.1078 22.1197C26.8029 21.874 26.9233 21.874 27.6719 22.0737ZM45.0102 22.6112C45.3311 22.8262 45.7589 23.2869 45.9594 23.6248L46.3203 24.2698L46.3604 32.3481L46.4005 40.4263L46.0797 41.1021C45.7054 41.9314 44.7562 42.7147 43.9675 42.8682C43.112 43.0372 42.2832 42.6993 41.5613 41.87C40.6255 40.7949 40.6122 40.7028 40.6656 32.0409C40.7057 24.6538 40.7057 24.5924 40.9998 23.9473C41.8153 22.2119 43.5665 21.6283 45.0102 22.6112ZM51.721 24.0548C52.4696 24.3006 53.0578 24.8534 53.4054 25.6521L53.7396 26.42V33.4231V40.4263L53.4054 41.1942C52.6167 43.0218 50.8253 43.4672 49.5153 42.1464C48.5528 41.1789 48.5929 41.5475 48.5929 33.4231C48.5929 25.391 48.5661 25.7288 49.4351 24.7767C49.8094 24.362 50.6382 23.9166 51.066 23.9013C51.1729 23.9013 51.467 23.9627 51.721 24.0548ZM29.8642 42.1464C29.53 42.9297 28.6611 43.8665 28.2734 43.8665C28.1932 43.8665 27.6318 43.6208 27.0436 43.329C26.4554 43.0372 25.6533 42.7147 25.279 42.6072L24.5839 42.4229L27.3644 39.2284L30.145 36.034L30.1851 38.6755C30.2118 41.2557 30.2118 41.3325 29.8642 42.1464ZM59.2205 60.2227V73.2001H56.48H53.7396V62.8949V52.6051L54.2609 51.8833C54.9026 50.9926 55.3304 50.0557 55.6111 48.8578C55.7983 48.0746 55.8918 47.9363 56.226 47.8288C56.5736 47.706 58.6457 47.2913 59.0601 47.2606C59.1804 47.2452 59.2205 49.9329 59.2205 60.2227Z" fill="#AC8F64" fill-opacity="0.2"/>
<path d="M31.9898 60.2994C31.3749 60.5912 31.2144 61.7277 31.7224 62.2499C31.8828 62.4188 32.3507 62.7567 32.7518 63.0024C33.1528 63.2481 33.9415 63.97 34.5164 64.615C35.3452 65.5672 35.6526 66.0586 36.1339 67.2258C36.9092 69.0841 37.2835 70.8196 37.3771 73.1233C37.4573 74.6898 37.5108 75.0123 37.7381 75.3194C38.0054 75.6573 38.5268 75.7495 38.9679 75.5652C39.5427 75.3041 39.5695 74.9508 39.5695 67.8248V61.0366L39.1684 60.5759C38.8209 60.1919 38.6872 60.1305 38.3263 60.2073C37.5509 60.3762 37.4306 60.7141 37.4306 62.7874V64.6303L36.9092 63.8778C35.8264 62.3267 34.3827 61.0059 33.0993 60.3916C32.5245 60.1151 32.4042 60.0998 31.9898 60.2994Z" fill="#AC8F64" fill-opacity="0.2"/>
</svg>
