<svg width="106" height="50" viewBox="0 0 106 50" fill="none" xmlns="http://www.w3.org/2000/svg">
<path d="M51.0795 1.7818C50.3122 2.78512 48.0695 5.73605 46.0629 8.21483C36.5019 20.0186 32.0165 25.7434 32.0165 26.3335C32.0165 26.8057 37.8593 34.3601 42.7578 40.2029C45.5317 43.626 46.1809 44.4523 46.1809 44.8064C46.1809 45.1015 41.2824 45.2785 35.3215 45.2785H24.5211L21.7472 41.7374C20.2127 39.7898 18.6783 37.9012 18.2651 37.4881C17.852 37.0749 16.8487 35.7765 16.0224 34.6552C15.1371 33.5338 13.8978 31.9403 13.1895 31.1731C11.2419 28.9304 11.596 28.2221 14.4879 28.5762C18.6192 28.9894 19.2684 29.2845 20.5078 31.055C21.157 31.9993 22.8686 34.3011 24.344 36.0716L26.9999 39.4357L30.423 39.2586C32.7837 39.1406 33.728 38.8455 33.5509 38.3733C33.3739 37.9602 30.659 34.4781 27.472 30.5239L21.7472 23.4416H10.5337C-0.0306385 23.4416 -0.561806 23.5006 0.264454 24.4449C3.2744 27.9861 19.0324 47.6393 19.6816 48.7016L20.5078 50H52.673H84.8971L90.799 42.5046C96.0516 35.7765 101.599 28.9894 104.668 25.3302C105.259 24.622 105.79 23.9138 105.79 23.7367C105.79 23.5597 100.891 23.4416 94.9303 23.4416H84.0709L81.8282 26.2155C80.5888 27.809 77.6378 31.3501 75.2771 34.183L70.9687 39.3767H74.7459H78.5231L82.8315 34.065L87.1989 28.8123L90.0317 28.7533C93.4548 28.7533 93.6319 28.8123 93.6909 30.0517C93.7499 30.5829 93.5729 30.937 93.3368 30.7599C92.6876 30.3468 84.1889 41.2062 84.425 42.2095C84.543 42.6817 84.366 42.8587 83.9528 42.6227C83.5987 42.3866 82.7725 42.9178 82.1233 43.744L80.8839 45.2785H70.0244C64.0636 45.2195 59.165 45.1015 59.165 44.9834C59.165 44.8654 59.5781 44.3342 60.1683 43.803C60.9946 42.9768 60.9946 42.7407 60.2864 42.2095C59.5781 41.7374 59.5781 41.6784 60.3454 41.8554C60.8766 42.0325 62.6471 40.439 64.8308 37.9012C68.785 33.2387 73.9197 26.6286 73.9197 26.2155C73.9197 25.8024 53.2632 0.129284 52.791 0.0112457C52.5549 -0.106792 51.7877 0.719467 51.0795 1.7818ZM55.978 12.9363C57.5125 15.002 60.5815 18.8382 62.8242 21.494C66.0702 25.3892 66.7194 26.4516 66.0702 27.1008C65.6571 27.5139 64.2996 29.1664 63.0012 30.819C61.7028 32.4125 60.5224 33.8879 60.3454 34.065C58.6338 35.7175 56.2141 39.4947 56.5682 40.0259C56.8043 40.439 56.7453 40.557 56.3911 40.38C56.0961 40.2029 55.2108 40.7931 54.5025 41.7374C53.7943 42.7407 53.0271 43.508 52.791 43.508C52.5549 43.4489 51.1975 41.8554 49.722 39.9078C48.2466 37.9602 45.2366 34.124 43.0529 31.4091L39.0397 26.3926L45.7088 17.8939C49.3679 13.1724 52.5549 9.33619 52.791 9.33619C53.0271 9.27717 54.4435 10.9297 55.978 12.9363Z" fill="#AC8F64"/>
</svg>
