<svg width="150" height="188" viewBox="0 0 150 188" fill="none" xmlns="http://www.w3.org/2000/svg">
<path fill-rule="evenodd" clip-rule="evenodd" d="M145.612 104.008C145.452 107.463 144.174 110.952 142.182 113.808C141.121 115.329 139.856 116.678 138.447 117.748C138.226 117.916 138.009 118.079 137.796 118.241C134.716 120.57 132.558 122.204 132.329 125.146C133.326 125.035 134.229 125.08 135.016 125.261C135.884 125.461 136.62 125.825 137.204 126.33C137.796 126.845 138.217 127.49 138.447 128.247C138.606 128.773 138.659 129.353 138.621 129.969H142.308C143.063 129.969 143.674 130.467 143.674 131.079C143.674 131.696 143.063 132.196 142.308 132.196H138.153H127.157H116.298H103.707H94.985C94.2302 132.196 93.619 131.696 93.619 131.079C93.619 130.467 94.2302 129.969 94.985 129.969H98.7158V108.696L98.7094 108.699V101.288C98.711 101.287 98.7142 101.287 98.7158 101.286V97.6299C98.7142 97.6299 98.711 97.6299 98.7094 97.6299V72.705C98.7094 65.7332 97.2653 60.7083 95.0329 57.2882C94.0993 55.8597 93.027 54.7143 91.8669 53.8261C92.419 53.5155 93.0079 53.2455 93.6366 53.0245C94.2605 53.4462 94.8493 53.8969 95.435 54.3619C98.2594 56.6108 100.717 58.9116 106.186 57.811C103.92 59.4908 103.813 62.1397 103.813 64.9388V97.4436V100.672V106.049V113.222L106.288 112.057L106.294 112.065C107.015 111.68 107.804 111.302 108.67 110.911C109.39 110.59 109.594 110.502 109.8 110.409C110.681 110.021 111.547 109.628 112.39 109.222L112.42 76.687L119.776 71.0483H119.812L119.8 81.163C119.958 81.1139 120.107 81.0518 120.274 81.0143C120.758 80.2415 121.383 79.5526 122.101 78.9676C123.511 77.8194 125.296 77.064 127.075 76.8546C129.515 76.5715 131.93 77.2893 133.426 79.3793H136.458L137.799 82.1322H144.726V90.7953L140.531 92.7134C141.158 93.1929 141.723 93.7056 142.225 94.2487C144.783 97.0117 145.774 100.494 145.612 104.008ZM116.443 129.969H126.67L124.474 119.961C123.763 120.592 122.875 121.142 121.838 121.6C119.378 122.685 116.022 123.267 112.214 123.169L111.027 125.017C112.562 125.019 113.783 125.36 114.696 126.036C115.854 126.888 116.413 128.22 116.443 129.969ZM110.879 112.423L109.76 112.917C106.763 114.259 104.805 115.437 103.849 116.909C103.27 117.8 103.074 118.893 103.171 120.234L105.75 129.957H114.009C113.989 128.911 113.701 128.179 113.143 127.766C112.372 127.197 110.989 127.09 108.983 127.457L106.299 127.948L110.837 120.874L111.587 120.91C115.278 121.09 118.492 120.589 120.758 119.588C121.995 119.044 122.923 118.36 123.451 117.578C123.933 116.867 124.083 116.037 123.826 115.124C123.536 114.091 122.751 112.946 121.377 111.712L123.116 110.129C124.829 111.666 125.828 113.165 126.222 114.572C126.455 115.397 126.483 116.188 126.332 116.933L129.188 129.957H136.16C136.2 129.537 136.17 129.16 136.071 128.835C135.962 128.477 135.771 128.179 135.504 127.948C135.23 127.713 134.861 127.536 134.409 127.431C133.626 127.25 132.624 127.285 131.437 127.578L130.004 127.935L129.879 126.595C129.459 122.057 131.714 119.961 135.263 117.245C135.483 115.235 134.326 113.014 131.99 110.619C129.582 108.15 125.97 105.546 121.348 102.831C120.576 108.145 115.774 110.264 110.879 112.423ZM119.778 99.119C120.223 99.4628 120.673 99.8036 121.141 100.069C126.694 103.217 131.015 106.247 133.837 109.14C135.916 111.272 137.208 113.352 137.617 115.372C137.942 111.916 136.358 108.631 133.514 105.454C130.434 102.018 125.891 98.716 120.668 95.475C120.353 95.2785 120.068 95.0561 119.783 94.8366L119.778 99.119ZM119.789 87.3896L119.784 91.4756C120.376 92.2873 121.109 93.0384 122.058 93.6276C127.455 96.9771 132.172 100.415 135.426 104.047C137.914 106.82 139.549 109.709 139.998 112.756C140.03 112.71 140.062 112.664 140.093 112.621C140.317 112.297 140.531 111.968 140.735 111.63C140.548 108.458 139 105.437 136.473 102.523C133.786 99.4223 130.008 96.46 125.579 93.5742C122.422 91.516 120.625 89.4001 119.789 87.3896ZM142.246 89.4246V84.3738H136.184L134.843 81.618H132.804C132.167 81.7307 131.679 81.9242 131.323 82.1842C130.961 82.4499 130.725 82.7937 130.597 83.188C130.455 83.6314 130.444 84.1441 130.546 84.6944C130.741 85.743 131.338 86.8754 132.239 87.885C133.031 88.766 134.232 89.3076 135.56 89.9027C136.426 90.2927 137.339 90.7029 138.266 91.2445L142.246 89.4246ZM140.326 95.6844C139.564 94.8626 138.632 94.1187 137.516 93.4818L138.174 92.5372L137.454 93.4457C136.452 92.7957 135.429 92.3364 134.47 91.906C132.887 91.1939 131.456 90.5512 130.328 89.2903C129.156 87.9817 128.374 86.4811 128.113 85.0613C127.951 84.1933 127.982 83.3425 128.231 82.5669C128.496 81.7422 128.998 81.0157 129.767 80.4524C130.045 80.2473 130.353 80.0682 130.696 79.9122C129.788 79.1727 128.59 78.9286 127.379 79.0687C126.097 79.2175 124.795 79.7765 123.748 80.6272C122.721 81.4678 121.958 82.5828 121.741 83.8596C121.359 86.1041 122.642 88.9119 127.018 91.7616C131.631 94.7672 135.579 97.8711 138.415 101.14C140.271 103.279 141.656 105.493 142.452 107.801C142.846 106.531 143.087 105.221 143.146 103.921C143.285 100.929 142.462 97.9867 140.326 95.6844ZM119.807 54.8862L112.42 60.5191V43.1221H77.427V36.4334H119.808V43.1221V54.8862H119.807ZM89.4398 20.6092L89.1685 20.9125H88.6371H75.919H74.7222H74.3265H73.1169H60.3988H59.8674L59.6089 20.6092L51.5105 10.7661L50.7079 9.86771H52.3132H59.0919H59.6344L59.8946 10.1739L64.6962 15.453L61.918 15.5165L58.3499 11.7092H55.1712L61.2126 19.0075H72.7227L65.4876 10.8325L65.2164 10.5263L65.4876 10.2288L73.7233 0.909932L74.5243 0L75.327 0.909932L83.5626 10.2288L83.8339 10.5263L83.5626 10.8325L76.3275 19.0089H87.8249L93.8664 11.7107H90.6876L87.1084 15.5598L84.319 15.5179L89.1445 10.1739L89.4158 9.86771H89.9472H96.7371H98.3297L97.527 10.7661L89.4398 20.6092ZM80.9951 10.5249L74.5243 3.04466L68.0536 10.5249L74.5243 17.9358L80.9951 10.5249ZM72.5919 43.1221H37.5988V60.5191L30.2121 54.8862V43.1221V41.8684V36.4334H72.5919V43.1221ZM30.2121 71.0483H30.2472L37.6036 76.687L37.6339 109.222C38.4765 109.628 39.343 110.021 40.2238 110.409C40.4297 110.502 40.6323 110.59 41.3536 110.911C42.2201 111.301 43.0084 111.68 43.7297 112.065L43.736 112.057L46.211 113.222V106.049V100.672V97.4436V64.9388C46.211 62.1382 46.1041 59.4893 43.8382 57.811C49.3084 58.9101 51.7642 56.6108 54.5887 54.3619C55.1727 53.8969 55.7616 53.4448 56.3871 53.0245C57.0158 53.2455 57.6047 53.5155 58.1568 53.8261C56.9967 54.7143 55.9243 55.8597 54.9908 57.2882C52.76 60.7083 51.3142 65.7332 51.3142 72.705V97.6328C51.3126 97.6328 51.3094 97.6328 51.3079 97.6328V101.288C51.3094 101.29 51.3126 101.29 51.3142 101.291V108.702L51.3079 108.698V129.97H55.0387C55.7935 129.97 56.4047 130.468 56.4047 131.081C56.4047 131.697 55.7935 132.197 55.0387 132.197H46.3164H33.7259H22.8637H11.8642H7.70892C6.95413 132.197 6.34296 131.697 6.34296 131.081C6.34296 130.468 6.95413 129.97 7.70892 129.97H11.3967C11.36 129.353 11.4126 128.773 11.5706 128.248C11.8004 127.492 12.2217 126.845 12.8137 126.332C13.3977 125.826 14.1334 125.462 15.0015 125.263C15.7882 125.081 16.6898 125.036 17.6887 125.147C17.4589 122.205 15.3015 120.572 12.2217 118.242C12.0095 118.08 11.7924 117.917 11.5706 117.75C10.1616 116.679 8.89615 115.33 7.83498 113.809C5.84349 110.952 4.5653 107.463 4.40573 104.01C4.24296 100.495 5.23551 97.0132 7.79828 94.2502C8.30094 93.7085 8.86583 93.1944 9.49296 92.7148L5.29775 90.7967V82.1336H12.2249L13.5653 79.3807H16.5972C18.0924 77.2908 20.5068 76.5744 22.9483 76.856C24.7275 77.0655 26.5132 77.8208 27.9222 78.9691C28.6403 79.5555 29.2658 80.243 29.7493 81.0157C29.9169 81.0533 30.0637 81.1154 30.2217 81.1645L30.2121 71.0483ZM33.5759 129.969C33.6063 128.218 34.1648 126.886 35.3201 126.036C36.2329 125.36 37.4536 125.019 38.9887 125.017L37.8015 123.169C33.9956 123.268 30.6398 122.686 28.1775 121.6C27.1419 121.142 26.2531 120.592 25.5414 119.961L23.3456 129.969H33.5759ZM14.7557 117.245C18.3047 119.961 20.5595 122.057 20.1398 126.595L20.0153 127.935L18.5823 127.578C17.3951 127.285 16.393 127.25 15.6095 127.431C15.1595 127.535 14.7908 127.713 14.5164 127.948C14.2499 128.179 14.0584 128.477 13.9499 128.835C13.8509 129.16 13.8206 129.537 13.8605 129.957H20.8323L23.6887 116.933C23.5371 116.188 23.5658 115.397 23.7988 114.572C24.1946 113.164 25.1919 111.666 26.9041 110.129L28.6435 111.712C27.2696 112.946 26.4845 114.091 26.194 115.124C25.9371 116.037 26.0871 116.867 26.569 117.578C27.0972 118.36 28.0243 119.044 29.261 119.588C31.5286 120.589 34.7408 121.09 38.4318 120.91L39.1818 120.874L43.7201 127.948L41.036 127.457C39.0286 127.09 37.6467 127.197 36.8759 127.766C36.3174 128.179 36.0302 128.911 36.0094 129.957H44.269L46.8477 120.234C46.9435 118.892 46.7488 117.8 46.1696 116.909C45.2121 115.437 43.2557 114.259 40.2589 112.917L39.1387 112.423C34.243 110.264 29.4414 108.145 28.669 102.831C24.0462 105.546 20.435 108.15 18.027 110.619C15.694 113.014 14.5371 115.235 14.7557 117.245ZM12.4036 115.372C12.8121 113.352 14.1047 111.272 16.1839 109.14C19.0052 106.247 23.3265 103.217 28.8797 100.069C29.3472 99.8036 29.7972 99.4628 30.2424 99.119L30.2376 94.8351C29.952 95.0561 29.6696 95.2771 29.352 95.4735C24.1291 98.7146 19.586 102.018 16.5063 105.452C13.6626 108.631 12.0797 111.916 12.4036 115.372ZM18.6956 82.1842C18.3414 81.9242 17.8531 81.7307 17.2148 81.618H15.177L13.8366 84.3738H7.77275V89.4246L11.7509 91.2445C12.6781 90.7029 13.5908 90.2927 14.4573 89.9027C15.7866 89.3076 16.9882 88.766 17.7781 87.885C18.6797 86.8754 19.2765 85.743 19.4712 84.6944C19.5733 84.1441 19.5621 83.6314 19.4201 83.188C19.2956 82.7937 19.0579 82.4499 18.6956 82.1842ZM28.2765 83.861C28.0595 82.5843 27.2983 81.4692 26.269 80.6286C25.2222 79.7779 23.9201 79.219 22.6387 79.0702C21.4275 78.9301 20.2307 79.1727 19.3227 79.9137C19.6658 80.0697 19.9738 80.2488 20.2515 80.4539C21.0222 81.0171 21.5249 81.7437 21.7882 82.5684C22.0371 83.3425 22.0674 84.1947 21.9063 85.0627C21.643 86.4825 20.861 87.9832 19.6898 89.2918C18.5616 90.5527 17.1302 91.1954 15.5472 91.9074C14.5882 92.3379 13.5669 92.7972 12.5648 93.4471L11.8467 92.5386L12.5041 93.4832C11.3887 94.1202 10.4584 94.864 9.69402 95.6858C7.55892 97.9867 6.73392 100.93 6.87275 103.923C6.93179 105.223 7.17435 106.533 7.5669 107.802C8.36158 105.494 9.74668 103.28 11.6041 101.141C14.4382 97.874 18.386 94.7701 23.0009 91.763C27.3749 88.9133 28.6579 86.107 28.2765 83.861ZM24.4403 93.5742C20.0121 96.46 16.235 99.4223 13.5462 102.523C11.0185 105.437 9.47062 108.457 9.28392 111.63C9.48658 111.968 9.70041 112.297 9.92541 112.621C9.95732 112.665 9.98924 112.71 10.0212 112.756C10.4696 109.71 12.1068 106.822 14.593 104.047C17.8467 100.415 22.5637 96.9756 27.9605 93.6276C28.91 93.0398 29.6424 92.2873 30.2345 91.4756L30.2297 87.3896C29.3935 89.4001 27.5967 91.516 24.4403 93.5742ZM60.0094 22.9808H89.1493V24.7516H60.0094V22.9808ZM75.0094 97.2991C74.577 97.6935 74.1382 98.0704 73.693 98.42C69.7563 101.507 63.7116 102.668 58.9977 100.389C56.3935 99.1306 54.6781 97.0565 53.7493 94.7513C52.7616 92.2974 52.6211 89.3813 53.5275 86.8884C54.5153 84.1716 56.6648 82.1943 59.7701 82.2116C64.1552 82.2333 66.0685 86.9346 64.8493 90.2753C64.3195 91.7283 63.2568 92.6108 62.1079 92.9633C61.5876 93.1886 61.0132 93.3258 60.3988 93.3258C58.2063 93.3258 56.4286 91.7168 56.4286 89.7323C56.4286 87.7463 58.2063 86.1388 60.3988 86.1388C61.819 86.1388 63.0573 86.819 63.7579 87.8359C63.6222 85.7069 62.269 83.5404 59.7637 83.5274C57.3685 83.513 55.6834 85.109 54.8871 87.3029C54.0813 89.5214 54.2217 92.1183 55.0977 94.3007C55.9196 96.3416 57.4515 98.1744 59.7844 99.2721C63.9366 101.225 68.585 100.293 71.9584 97.4479C72.5105 96.9828 73.0499 96.4513 73.5797 95.8895C68.0887 90.1078 63.7563 81.1544 61.0882 75.3308C64.0467 70.9126 68.5036 59.7782 73.1903 54.4385C71.0153 52.4583 68.2674 51.2869 64.9626 51.3953C63.9126 51.4299 62.8594 51.6004 61.8334 51.9167C61.3148 51.5989 60.7818 51.3014 60.2328 51.0342C64.7424 49.3616 69.8664 49.4613 74.3376 52.2055C74.561 52.3427 74.7844 52.5262 75.0063 52.6981C75.2297 52.5262 75.4531 52.3427 75.6765 52.2055C80.1477 49.4598 85.2717 49.3616 89.7813 51.0342C89.2323 51.3014 88.6993 51.5989 88.1807 51.9167C87.1547 51.5989 86.1015 51.4299 85.0515 51.3953C81.7467 51.2869 79.0004 52.4568 76.8238 54.4385C81.5105 59.7782 85.9674 70.9126 88.9259 75.3308C86.2579 81.1544 81.9254 90.1078 76.4344 95.8895C76.9642 96.4499 77.5052 96.9828 78.0573 97.4479C81.4323 100.292 86.0791 101.223 90.2313 99.2721C92.5658 98.1744 94.0977 96.3401 94.918 94.3007C95.7956 92.1183 95.9344 89.5214 95.1286 87.3029C94.3307 85.109 92.6456 83.513 90.252 83.5274C87.7467 83.5404 86.3935 85.7069 86.2578 87.8359C86.96 86.8205 88.1967 86.1388 89.6169 86.1388C91.8094 86.1388 93.5871 87.7463 93.5871 89.7323C93.5871 91.7168 91.8094 93.3258 89.6169 93.3258C89.0025 93.3258 88.4265 93.1886 87.9079 92.9633C86.7589 92.6123 85.6961 91.7283 85.1664 90.2753C83.9472 86.9346 85.8605 82.2333 90.2456 82.2116C93.3509 82.1957 95.5004 84.1716 96.4882 86.8884C97.3945 89.3813 97.2525 92.2974 96.2664 94.7513C95.3392 97.0565 93.6222 99.132 91.018 100.389C86.3041 102.668 80.2594 101.507 76.3227 98.42C75.8807 98.0704 75.4419 97.6949 75.0094 97.2991ZM78.8648 86.4695C79.5653 83.6531 80.1573 81.2049 80.1573 75.7728C80.1573 70.2583 78.627 64.4318 77.7573 61.8161C77.0935 59.8259 76.1584 58.032 75.011 56.4865C73.8637 58.032 72.927 59.8273 72.2648 61.8161C71.3935 64.4318 69.8648 70.2583 69.8648 75.7728C69.8648 81.2049 70.4568 83.6531 71.1573 86.4695C71.8642 89.3163 73.2892 91.9984 75.0126 94.227C76.7328 91.9984 78.1579 89.3149 78.8648 86.4695Z" fill="#AC8F64"/>
<path d="M119.827 28.9098H30.1753V32.8399H119.829V28.9098H119.827ZM30.3588 60.0338V66.0076L37.7455 71.6492V65.5743L30.6045 60.1017L30.3588 60.0338ZM119.66 60.0338L119.414 60.1032L112.275 65.5758V71.6506L119.661 66.0091V60.0338H119.66Z" fill="white"/>
<path d="M14.2188 138.64L22.9724 162.326C23.3086 163.234 23.6808 163.864 24.0891 164.218C24.5214 164.545 24.9056 164.722 25.2418 164.747V165.504C24.5214 165.454 23.6688 165.428 22.6842 165.428C21.7236 165.403 20.751 165.391 19.7663 165.391C18.6616 165.391 17.6169 165.403 16.6323 165.428C15.6477 165.428 14.8672 165.454 14.2908 165.504V164.747C15.5156 164.697 16.2841 164.482 16.5963 164.104C16.9325 163.7 16.8605 162.855 16.3801 161.569L10.2562 143.975L10.9046 142.991L5.4291 157.974C4.90076 159.362 4.57655 160.497 4.45647 161.38C4.36041 162.263 4.42045 162.944 4.63659 163.423C4.87674 163.902 5.24898 164.243 5.75331 164.445C6.28165 164.621 6.90605 164.722 7.62651 164.747V165.504C6.834 165.454 6.07751 165.428 5.35705 165.428C4.63659 165.403 3.90412 165.391 3.15964 165.391C2.6313 165.391 2.12697 165.403 1.64666 165.428C1.19037 165.428 0.782107 165.454 0.421875 165.504V164.747C0.9262 164.646 1.44253 164.306 1.97087 163.726C2.49921 163.146 3.01554 162.162 3.51987 160.774L11.7332 138.64C12.1174 138.665 12.5257 138.678 12.9579 138.678C13.4142 138.678 13.8345 138.665 14.2188 138.64ZM16.7404 154.607V155.364H6.00547L6.3657 154.607H16.7404Z" fill="#AC8F64"/>
<path d="M26.9347 138.715C27.5591 138.741 28.3756 138.766 29.3842 138.791C30.3929 138.816 31.4015 138.829 32.4102 138.829C33.5629 138.829 34.6796 138.816 35.7603 138.791C36.841 138.766 37.6095 138.753 38.0658 138.753C41.0437 138.753 43.2652 139.308 44.7301 140.418C46.2191 141.528 46.9635 142.953 46.9635 144.694C46.9635 145.576 46.7114 146.472 46.2071 147.38C45.7027 148.288 44.9222 149.095 43.8655 149.802C42.8089 150.508 41.44 151.025 39.7589 151.353V151.429C42.0164 151.605 43.8055 152.034 45.1264 152.715C46.4472 153.396 47.3958 154.216 47.9722 155.175C48.5486 156.133 48.8367 157.129 48.8367 158.164C48.8367 159.753 48.4405 161.09 47.648 162.174C46.8555 163.259 45.7147 164.091 44.2258 164.672C42.7368 165.227 40.9597 165.504 38.8944 165.504C38.318 165.504 37.4894 165.491 36.4088 165.466C35.3281 165.416 34.0192 165.391 32.4822 165.391C31.4255 165.391 30.3929 165.403 29.3842 165.428C28.3756 165.428 27.5591 165.454 26.9347 165.504V164.747C27.7031 164.697 28.2795 164.596 28.6638 164.445C29.048 164.293 29.3002 163.991 29.4203 163.537C29.5643 163.082 29.6364 162.401 29.6364 161.493V142.726C29.6364 141.793 29.5643 141.112 29.4203 140.683C29.3002 140.229 29.036 139.926 28.6277 139.775C28.2435 139.598 27.6791 139.497 26.9347 139.472V138.715ZM37.5975 139.472C36.6609 139.472 36.0485 139.687 35.7603 140.115C35.4962 140.544 35.3641 141.414 35.3641 142.726V161.493C35.3641 162.376 35.4241 163.045 35.5442 163.499C35.6883 163.953 35.9284 164.255 36.2647 164.407C36.6249 164.558 37.1532 164.634 37.8497 164.634C39.5788 164.634 40.8396 164.066 41.6321 162.931C42.4486 161.771 42.8569 160.131 42.8569 158.012C42.8569 156.07 42.3886 154.569 41.452 153.51C40.5394 152.45 39.0144 151.921 36.8771 151.921H33.8151C33.8151 151.921 33.8151 151.82 33.8151 151.618C33.8151 151.391 33.8151 151.277 33.8151 151.277H36.9131C38.0418 151.277 38.9064 151 39.5067 150.445C40.1071 149.865 40.5274 149.108 40.7676 148.175C41.0077 147.216 41.1278 146.195 41.1278 145.11C41.1278 143.243 40.8516 141.843 40.2993 140.91C39.7469 139.951 38.8463 139.472 37.5975 139.472Z" fill="#AC8F64"/>
<path d="M51.7527 138.715C52.353 138.741 53.1576 138.766 54.1662 138.791C55.1989 138.816 56.2195 138.829 57.2282 138.829C58.3809 138.829 59.4976 138.816 60.5783 138.791C61.659 138.766 62.4275 138.753 62.8838 138.753C66.222 138.753 68.7196 139.447 70.3766 140.834C72.0337 142.222 72.8622 144.013 72.8622 146.207C72.8622 147.115 72.6941 148.074 72.3579 149.083C72.0217 150.067 71.4453 150.987 70.6288 151.845C69.8363 152.677 68.7436 153.358 67.3507 153.888C65.9578 154.418 64.2047 154.683 62.0913 154.683H58.417V153.926H61.7311C63.148 153.926 64.2167 153.585 64.9371 152.904C65.6816 152.223 66.1859 151.328 66.4501 150.218C66.7383 149.108 66.8824 147.91 66.8824 146.623C66.8824 144.227 66.5462 142.436 65.8737 141.25C65.2013 140.065 64.0486 139.472 62.4155 139.472C61.4789 139.472 60.8665 139.687 60.5783 140.115C60.3142 140.544 60.1821 141.414 60.1821 142.726V161.266C60.1821 162.25 60.2781 162.982 60.4703 163.461C60.6624 163.94 61.0346 164.255 61.587 164.407C62.1393 164.558 62.9559 164.646 64.0366 164.672V165.504C63.2921 165.479 62.3315 165.454 61.1547 165.428C59.978 165.403 58.7412 165.391 57.4443 165.391C56.4117 165.391 55.403 165.403 54.4184 165.428C53.4337 165.454 52.5452 165.479 51.7527 165.504V164.747C52.5212 164.697 53.0975 164.596 53.4818 164.445C53.866 164.293 54.1182 163.991 54.2383 163.537C54.3824 163.082 54.4544 162.401 54.4544 161.493V142.726C54.4544 141.793 54.3824 141.112 54.2383 140.683C54.1182 140.229 53.854 139.926 53.4457 139.775C53.0615 139.598 52.4971 139.497 51.7527 139.472V138.715Z" fill="#AC8F64"/>
<path d="M88.6269 138.186C91.1725 138.186 93.394 138.728 95.2912 139.813C97.2124 140.897 98.7014 142.461 99.758 144.504C100.815 146.522 101.343 148.982 101.343 151.883C101.343 154.708 100.803 157.18 99.722 159.299C98.6413 161.418 97.1284 163.07 95.1831 164.255C93.2619 165.441 91.0645 166.034 88.5909 166.034C86.0452 166.034 83.8118 165.491 81.8905 164.407C79.9933 163.322 78.5164 161.758 77.4597 159.715C76.403 157.672 75.8747 155.212 75.8747 152.337C75.8747 149.512 76.415 147.04 77.4957 144.921C78.6004 142.802 80.1014 141.15 81.9986 139.964C83.9199 138.778 86.1293 138.186 88.6269 138.186ZM88.4828 138.867C87.1379 138.867 85.9612 139.434 84.9525 140.569C83.9679 141.705 83.1994 143.268 82.647 145.261C82.1187 147.254 81.8545 149.562 81.8545 152.185C81.8545 154.859 82.1547 157.192 82.7551 159.185C83.3795 161.153 84.208 162.679 85.2407 163.764C86.2974 164.823 87.4621 165.353 88.735 165.353C90.0798 165.353 91.2446 164.785 92.2292 163.65C93.2378 162.515 94.0063 160.951 94.5347 158.958C95.087 156.94 95.3632 154.632 95.3632 152.034C95.3632 149.335 95.051 147.002 94.4266 145.034C93.8262 143.067 92.9977 141.553 91.941 140.494C90.9083 139.409 89.7556 138.867 88.4828 138.867Z" fill="#AC8F64"/>
<path d="M104.555 138.715C105.155 138.741 105.96 138.766 106.968 138.791C108.001 138.816 109.022 138.829 110.03 138.829C111.183 138.829 112.3 138.816 113.38 138.791C114.461 138.766 115.23 138.753 115.686 138.753C119.024 138.753 121.522 139.447 123.179 140.834C124.836 142.222 125.664 144.013 125.664 146.207C125.664 147.115 125.496 148.074 125.16 149.083C124.824 150.067 124.247 150.987 123.431 151.845C122.638 152.677 121.546 153.358 120.153 153.888C118.76 154.418 117.007 154.683 114.893 154.683H111.219V153.926H114.533C115.95 153.926 117.019 153.585 117.739 152.904C118.484 152.223 118.988 151.328 119.252 150.218C119.54 149.108 119.685 147.91 119.685 146.623C119.685 144.227 119.348 142.436 118.676 141.25C118.003 140.065 116.851 139.472 115.218 139.472C114.281 139.472 113.669 139.687 113.38 140.115C113.116 140.544 112.984 141.414 112.984 142.726V161.266C112.984 162.25 113.08 162.982 113.272 163.461C113.464 163.94 113.837 164.255 114.389 164.407C114.941 164.558 115.758 164.646 116.839 164.672V165.504C116.094 165.479 115.134 165.454 113.957 165.428C112.78 165.403 111.543 165.391 110.246 165.391C109.214 165.391 108.205 165.403 107.22 165.428C106.236 165.454 105.347 165.479 104.555 165.504V164.747C105.323 164.697 105.9 164.596 106.284 164.445C106.668 164.293 106.92 163.991 107.04 163.537C107.184 163.082 107.257 162.401 107.257 161.493V142.726C107.257 141.793 107.184 141.112 107.04 140.683C106.92 140.229 106.656 139.926 106.248 139.775C105.864 139.598 105.299 139.497 104.555 139.472V138.715Z" fill="#AC8F64"/>
<path d="M138.344 138.64L147.098 162.326C147.434 163.234 147.806 163.864 148.214 164.218C148.647 164.545 149.031 164.722 149.367 164.747V165.504C148.647 165.454 147.794 165.428 146.809 165.428C145.849 165.403 144.876 165.391 143.892 165.391C142.787 165.391 141.742 165.403 140.757 165.428C139.773 165.428 138.992 165.454 138.416 165.504V164.747C139.641 164.697 140.409 164.482 140.721 164.104C141.058 163.7 140.986 162.855 140.505 161.569L134.381 143.975L135.03 142.991L129.554 157.974C129.026 159.362 128.702 160.497 128.582 161.38C128.486 162.263 128.546 162.944 128.762 163.423C129.002 163.902 129.374 164.243 129.878 164.445C130.407 164.621 131.031 164.722 131.752 164.747V165.504C130.959 165.454 130.203 165.428 129.482 165.428C128.762 165.403 128.029 165.391 127.285 165.391C126.756 165.391 126.252 165.403 125.772 165.428C125.316 165.428 124.907 165.454 124.547 165.504V164.747C125.051 164.646 125.568 164.306 126.096 163.726C126.624 163.146 127.141 162.162 127.645 160.774L135.858 138.64C136.243 138.665 136.651 138.678 137.083 138.678C137.539 138.678 137.96 138.665 138.344 138.64ZM140.866 154.607V155.364H130.131L130.491 154.607H140.866Z" fill="#AC8F64"/>
</svg>
