<svg width="111" height="40" viewBox="0 0 111 40" fill="none" xmlns="http://www.w3.org/2000/svg">
<g clip-path="url(#clip0_14_140)">
<path d="M54.1985 0.288719C53.2521 1.02001 53.1016 2.35353 53.8974 3.14935C54.4136 3.66555 54.4351 3.77309 54.4351 6.56919V9.45132L53.2521 8.20383C51.8971 6.76277 50.6066 6.00997 48.6493 5.47226C47.8965 5.25718 47.0362 4.87002 46.7781 4.59041C45.6381 3.47197 43.6809 4.3108 43.6809 5.92393C43.6809 7.45104 45.4015 8.28987 46.6921 7.38651C47.3588 6.91333 47.9826 6.99936 49.6172 7.77366C51.725 8.76305 53.5533 11.086 54.091 13.4089C54.22 13.9681 54.1985 13.9681 53.4457 13.1293C52.5639 12.1399 51.3594 11.3871 49.9183 10.8709C48.7354 10.4407 45.5951 10.0536 44.8638 10.2471C44.3476 10.3762 44.3261 10.4407 44.3261 12.1399C44.3261 14.9145 45.0574 17.1944 46.4985 18.829L47.1652 19.5818H46.3909C45.4876 19.5818 45.0359 20.1625 45.4015 20.8723C45.5951 21.238 45.8532 21.3025 47.2943 21.3025C50.0474 21.3025 52.1767 22.636 53.2952 25.088C54.2415 27.1743 54.1555 29.6478 52.994 31.9062C52.4993 32.9171 51.1013 34.6377 50.7787 34.6377C50.6926 34.6377 50.8647 34.1645 51.1658 33.5623C52.3058 31.2609 51.9401 28.2282 50.3055 26.3785C48.1116 23.8835 44.3906 23.776 42.1968 26.1419C41.2504 27.1743 40.9923 28.0131 41.1429 29.7983C41.3795 32.6159 44.1971 34.2506 46.7351 33.0461C48.0471 32.4224 48.3482 30.5511 47.2728 29.7983C46.7351 29.4327 45.7672 29.3682 45.1865 29.6908C44.7563 29.9274 44.2616 31.1319 44.4552 31.4545C44.5412 31.5835 44.4122 31.562 44.1541 31.433C42.756 30.6802 42.3689 28.7444 43.3797 27.5399C44.1541 26.6366 44.9714 26.2494 46.1543 26.2494C47.3588 26.2494 48.1331 26.6366 49.015 27.626C51.1443 30.0564 50.0689 33.8204 46.7996 35.3045C45.6166 35.8422 43.4443 35.8422 42.2183 35.283C39.6158 34.1 36.2389 30.7232 32.6255 25.6472L31.8082 24.5288H32.69C36.6476 24.5288 38.6694 19.4097 35.7227 16.9148C33.916 15.4092 31.2705 15.8824 30.2166 17.9042C29.5713 19.1516 30.066 21.0014 31.249 21.7327C32.0233 22.2274 33.5074 22.2274 34.1096 21.7327C34.4967 21.41 34.5398 20.2056 34.1741 19.8399C33.8085 19.4743 32.8191 19.5173 32.475 19.9259C32.2169 20.2271 32.1738 20.2271 31.9157 19.8829C31.5071 19.3237 31.5716 18.9796 32.1738 18.3988C32.9051 17.646 33.8515 17.6891 34.6688 18.4849C36.2389 20.055 34.7549 22.8081 32.3459 22.8081C31.206 22.8081 30.1305 22.0768 28.84 20.4421C24.7104 15.2586 21.7422 13.0002 17.5266 11.7957C15.0101 11.1075 11.5042 11.1505 9.15978 11.9033C4.8796 13.3013 1.61031 16.8717 0.448855 21.4315C-0.368466 24.6363 -0.0458393 28.9595 1.22316 31.476C5.24524 39.4986 16.7093 40.8967 21.183 33.9064C22.452 31.9277 22.7101 30.9383 22.7101 28.1852C22.7101 25.9053 22.6456 25.6257 22.0864 24.4212C21.269 22.7866 19.828 21.324 18.1933 20.5497C17.0749 20.0335 16.6232 19.9475 14.9671 19.9259C13.0958 19.9044 13.0313 19.9259 12.9668 20.3991C12.8377 21.1949 13.2679 21.453 14.8165 21.5606C19.4193 21.9047 22.1939 26.2494 20.6883 30.7232C20.2582 31.9707 19.2042 33.8849 19.0322 33.7129C18.9892 33.6699 19.0537 33.2612 19.1827 32.8095C19.5914 31.3469 19.3333 28.6369 18.645 27.2603C17.0964 24.0771 13.0958 22.679 9.9771 24.2276C5.20223 26.6151 6.38519 33.7559 11.5472 33.7774C13.0743 33.7774 14.3648 33.0676 15.0101 31.8416C16.0425 29.9059 15.3972 27.9701 13.7196 27.9701C12.1925 27.9701 11.4182 30.0134 12.6011 30.9383L13.1604 31.3684L12.6657 31.7126C11.6763 32.4224 9.9556 31.9062 9.13827 30.6587C8.62207 29.8844 8.79414 27.8411 9.4609 26.9377C10.1277 25.9698 11.3752 25.3891 12.7087 25.3891C15.4618 25.3891 17.333 27.2818 17.5911 30.3145C17.9783 34.8313 14.5154 37.4769 9.84805 36.2509C7.80475 35.7132 6.64329 35.0464 5.05167 33.4763C2.72875 31.1534 1.73936 28.7229 1.73936 25.3031C1.73936 21.9262 3.07289 18.7 5.41731 16.334C7.65419 14.0756 10.1062 13.0863 13.4615 13.1078C18.9676 13.1293 22.9682 15.6888 27.9582 22.3779L29.9585 25.0665L28.8615 25.1955C25.5062 25.6257 23.635 29.024 25.1836 31.8416C26.9688 35.0464 31.8512 34.057 31.8512 30.4866C31.8512 29.5402 31.7652 29.3467 30.9909 28.5723C30.152 27.7335 30.0875 27.712 28.9476 27.798C27.614 27.9056 27.4205 28.0346 27.2269 28.8735C27.1193 29.2821 27.2054 29.5617 27.528 29.8844C28.1087 30.4651 28.4959 30.4651 29.0981 29.8629C29.5283 29.4327 29.5713 29.4327 29.8509 29.7983C30.9909 31.39 28.2808 32.8525 26.9903 31.3469C25.9149 30.0779 26.4741 28.0131 28.1087 27.2818C30.1305 26.4 31.2275 27.0452 34.5828 31.0888C38.9275 36.3369 41.7236 38.1006 45.7242 38.1436C48.6278 38.1651 50.6926 37.3048 52.8435 35.197L54.22 33.8634V36.7025C54.22 39.7567 54.3491 40.1224 55.3385 39.9718C55.8331 39.9073 55.8331 39.8643 55.8977 36.8961L55.9622 33.8849L57.3172 35.197C59.4896 37.3478 61.5329 38.1651 64.5441 38.1221C68.5016 38.1006 71.2117 36.3584 75.5779 31.0888C78.8902 27.0883 79.9011 26.4645 81.8799 27.2173C83.6221 27.8841 84.2888 30.0349 83.1704 31.3469C81.8799 32.8525 79.1698 31.39 80.3098 29.7983C80.5894 29.4327 80.6324 29.4327 81.0626 29.8629C81.6648 30.4651 82.052 30.4651 82.6327 29.8844C82.9553 29.5617 83.0414 29.2821 82.9338 28.8735C82.7402 28.0346 82.5467 27.9271 81.3422 27.798C80.4388 27.712 80.1162 27.798 79.514 28.2067C78.6106 28.8304 78.3095 29.4112 78.3095 30.6372C78.3095 34.057 83.2564 34.9604 84.9556 31.8631C86.5257 29.024 84.6545 25.6257 81.2992 25.1955L80.2022 25.0665L82.2025 22.3779C87.1925 15.6888 91.1931 13.1293 96.6992 13.1078C100.076 13.0863 102.55 14.0756 104.765 16.334C107.109 18.7215 108.421 21.9477 108.421 25.3031C108.421 28.7229 107.432 31.1534 105.109 33.4763C100.678 37.864 94.2258 37.5414 92.8277 32.831C91.6878 28.981 93.9031 25.3891 97.4305 25.3891C98.7855 25.3891 100.012 25.9698 100.7 26.9377C101.367 27.8411 101.539 29.8844 101.022 30.6587C100.205 31.9062 98.4844 32.4224 97.495 31.7126L97.0003 31.3684L97.5596 30.9383C97.9682 30.6157 98.0973 30.3145 98.0973 29.7123C98.0973 28.0992 96.3121 27.3679 95.1506 28.5293C94.6559 29.024 94.6129 29.1961 94.7204 30.25C94.957 32.4654 96.4196 33.7774 98.6565 33.7774C101.775 33.7774 103.905 30.7232 102.98 27.5184C101.496 22.4639 93.9461 22.2489 91.5157 27.2388C90.8489 28.5939 90.5693 31.39 90.978 32.788C91.107 33.2612 91.1715 33.6699 91.1285 33.7129C90.9565 33.8849 89.9025 31.9707 89.4724 30.7232C87.9668 26.2494 90.7414 21.9047 95.3442 21.5606C96.8928 21.453 97.323 21.1949 97.1939 20.3991C97.1294 19.9259 97.0649 19.9044 95.1936 19.9044C93.516 19.9259 93.0858 20.012 91.9674 20.5497C90.3327 21.324 88.8917 22.7866 88.0743 24.4212C87.5151 25.6257 87.4506 25.9053 87.4506 28.1852C87.4506 31.0028 87.7302 32.0137 89.0852 34.014C92.5481 39.1545 100.055 39.9288 105.539 35.7132C107.583 34.1215 109.217 31.562 109.819 29.0025C110.293 27.0237 110.228 23.4533 109.712 21.4315C108.55 16.8933 105.281 13.3013 101.044 11.9248C99.5599 11.4516 98.8931 11.3441 96.8068 11.3441C91.3651 11.3226 87.0419 13.5379 82.9983 18.4419C79.8581 22.2489 79.1913 22.8081 77.7288 22.8081C75.4059 22.8081 73.9648 20.0335 75.4919 18.4849C76.3092 17.6891 77.2556 17.646 77.9869 18.3988C78.5891 18.9796 78.6536 19.3237 78.245 19.8829C77.9869 20.2271 77.9438 20.2271 77.6857 19.9259C77.3416 19.5173 76.3522 19.4743 75.9866 19.8399C75.6209 20.2056 75.664 21.41 76.0511 21.7327C76.2232 21.8832 76.7824 22.0338 77.2986 22.0983C78.9332 22.2704 80.2453 20.9368 80.2453 19.1516C80.2453 17.1514 78.0299 15.5812 76.0081 16.1189C72.2441 17.1298 71.986 22.3564 75.6209 24.0771C76.1371 24.3137 76.976 24.5288 77.4707 24.5288H78.3525L77.5352 25.6472C75.2338 28.852 72.0075 32.4869 70.3083 33.8204C67.3187 36.1433 64.1784 36.3369 61.791 34.3151C59.3605 32.2718 59.5971 28.2712 62.2642 26.6581C63.0815 26.1634 64.7377 26.1204 65.598 26.5721C67.2541 27.4109 67.8779 29.3897 66.8885 30.6372C66.4583 31.1749 65.4259 31.8847 65.7055 31.4545C65.8991 31.1319 65.4044 29.9274 64.9742 29.6908C63.4256 28.852 61.834 30.2285 62.3932 31.9062C62.6943 32.8525 63.8128 33.4333 65.2323 33.3902C66.3938 33.3687 67.2111 33.0031 68.0285 32.1212C68.8027 31.3254 69.0609 30.5511 69.0609 29.1531C69.0609 27.6905 68.8458 27.1313 67.8779 26.0559C66.91 25.0019 65.4904 24.4212 63.8773 24.4427C59.6401 24.5072 56.9731 29.4972 58.9949 33.5623C59.296 34.1645 59.4681 34.6377 59.3605 34.6377C59.2745 34.6377 58.8228 34.2076 58.3711 33.6914C55.9192 30.9168 55.5105 26.9807 57.3602 24.1846C58.6508 22.2489 60.522 21.3025 63.06 21.3025C64.3075 21.3025 64.5656 21.238 64.7592 20.8723C65.0818 20.2486 64.6731 19.5818 63.9849 19.5818H63.4256L64.0709 18.7645C65.4689 16.9793 66.2432 14.4843 66.2648 11.5807C66.2648 10.4192 66.2432 10.3547 65.641 10.2256C64.7592 10.0321 61.4684 10.5052 60.1779 10.9999C58.9519 11.4946 57.2527 12.6561 56.715 13.3874C56.3709 13.8821 56.3709 13.8821 56.4999 13.1293C56.9946 10.4192 59.6617 7.79517 62.5868 7.12841C63.3181 6.97785 63.5117 6.99936 63.8128 7.34349C64.3075 7.90271 65.6195 7.88121 66.2002 7.32199C67.0821 6.50467 67.0175 5.10662 66.0712 4.37533C65.4689 3.90214 64.2215 4.03119 63.6407 4.61192C63.3611 4.91304 62.6513 5.25718 62.0706 5.40773C60.3069 5.8379 58.7153 6.71975 57.4033 7.98875L56.1558 9.21473V6.39712C56.1558 3.83762 56.1988 3.5365 56.6075 3.10633C57.2312 2.43957 57.2097 1.21358 56.5644 0.525314C56.0267 -0.0554161 54.8007 -0.184467 54.1985 0.288719ZM49.9613 12.8712C52.2627 13.9251 53.4672 15.7963 53.9189 19.0226L54.0695 20.0765L52.865 19.9259C48.9074 19.4743 46.5845 17.1514 46.1113 13.1938L45.9823 11.9893L47.2943 12.1184C48.0256 12.2044 49.2301 12.527 49.9613 12.8712ZM64.415 12.9572C64.0494 15.5597 63.2106 17.3879 61.8985 18.3773C61.0382 19.0441 59.1239 19.7324 57.6184 19.9259L56.5214 20.0765L56.6505 18.786C56.844 16.9793 57.5753 15.1941 58.5647 14.1832C59.7477 12.9787 61.8125 12.1184 63.7483 12.0754L64.5441 12.0538L64.415 12.9572Z" fill="white"/>
</g>
<defs>
<clipPath id="clip0_14_140">
<rect width="110.139" height="40" fill="white" transform="matrix(1 0 0 -1 0 40)"/>
</clipPath>
</defs>
</svg>
