<svg width="40" height="19" viewBox="0 0 40 19" fill="none" xmlns="http://www.w3.org/2000/svg">
<path d="M19.3136 0.673679C19.0235 1.05304 18.1755 2.16882 17.4168 3.10606C13.8017 7.56915 12.1057 9.73375 12.1057 9.9569C12.1057 10.1354 14.3149 12.9918 16.1671 15.201C17.2159 16.4953 17.4614 16.8077 17.4614 16.9416C17.4614 17.0532 15.6092 17.1202 13.3554 17.1202H9.27164L8.22281 15.7812C7.64261 15.0448 7.06241 14.3307 6.9062 14.1745C6.74999 14.0183 6.37063 13.5274 6.05822 13.1034C5.72348 12.6794 5.25486 12.0769 4.98707 11.7868C4.25066 10.9388 4.38456 10.671 5.47801 10.8049C7.04009 10.9611 7.28556 11.0727 7.75419 11.7421C7.99966 12.0992 8.64681 12.9695 9.20469 13.639L10.2089 14.9109L11.5032 14.844C12.3958 14.7994 12.7528 14.6878 12.6859 14.5093C12.619 14.353 11.5924 13.0364 10.3874 11.5413L8.22281 8.86345H3.98288C-0.0115847 8.86345 -0.212424 8.88576 0.0999923 9.24281C1.23808 10.5817 7.1963 18.0128 7.44177 18.4145L7.75419 18.9054H19.9161H32.1003L34.3319 16.0713C36.318 13.5274 38.4156 10.9611 39.576 9.57754C39.7992 9.30976 40 9.04197 40 8.97502C40 8.90808 38.1478 8.86345 35.894 8.86345H31.7879L30.9399 9.91227C30.4713 10.5148 29.3555 11.8537 28.4629 12.9249L26.8339 14.8886H28.2621H29.6903L31.3193 12.8802L32.9706 10.8942L34.0418 10.8718C35.3361 10.8718 35.403 10.8942 35.4253 11.3628C35.4477 11.5636 35.3807 11.6975 35.2914 11.6306C35.046 11.4744 31.8326 15.5804 31.9218 15.9598C31.9664 16.1383 31.8995 16.2052 31.7433 16.116C31.6094 16.0267 31.297 16.2275 31.0515 16.54L30.5829 17.1202H26.4768C24.223 17.0978 22.3708 17.0532 22.3708 17.0086C22.3708 16.964 22.527 16.7631 22.7502 16.5623C23.0626 16.2499 23.0626 16.1606 22.7948 15.9598C22.527 15.7812 22.527 15.7589 22.8171 15.8259C23.0179 15.8928 23.6874 15.2903 24.5131 14.3307C26.0082 12.5678 27.9497 10.0685 27.9497 9.91227C27.9497 9.75606 20.1393 0.0488472 19.9607 0.00421524C19.8715 -0.0404148 19.5814 0.272001 19.3136 0.673679ZM21.1658 4.8913C21.746 5.67234 22.9064 7.12284 23.7544 8.12704C24.9817 9.59986 25.2272 10.0015 24.9817 10.247C24.8255 10.4032 24.3122 11.028 23.8213 11.6529C23.3304 12.2554 22.8841 12.8133 22.8171 12.8802C22.17 13.5051 21.255 14.9332 21.3889 15.1341C21.4782 15.2903 21.4559 15.3349 21.322 15.268C21.2104 15.201 20.8757 15.4242 20.6079 15.7812C20.3401 16.1606 20.05 16.4507 19.9607 16.4507C19.8715 16.4284 19.3582 15.8259 18.8003 15.0895C18.2424 14.353 17.1044 12.9025 16.2787 11.876L14.7612 9.97922L17.2829 6.76579C18.6664 4.98056 19.8715 3.53006 19.9607 3.53006C20.05 3.50774 20.5856 4.13257 21.1658 4.8913Z" fill="#AC8F64"/>
</svg>
