<svg width="56" height="75" viewBox="0 0 56 75" fill="none" xmlns="http://www.w3.org/2000/svg">
    <path d="M0 5C0 2.23858 2.23858 0 5 0H51C53.7614 0 56 2.23858 56 5V61.4979C56 63.6004 54.6847 65.4783 52.7087 66.1968L30.1787 74.3896C29.0932 74.7843 27.9044 74.791 26.8145 74.4086L3.34456 66.1735C1.34103 65.4705 0 63.5788 0 61.4555V5Z" fill="url(#paint0_radial_141_186)" />
    <g clip-path="url(#clip0_141_186)">
        <path fill-rule="evenodd" clip-rule="evenodd" d="M43.0203 40.1572C42.9863 40.8932 42.714 41.6366 42.2898 42.2449C42.0637 42.5689 41.7941 42.8563 41.4939 43.0843C41.447 43.12 41.4008 43.1548 41.3552 43.1892C40.6991 43.6855 40.2395 44.0335 40.1906 44.6603C40.403 44.6366 40.5955 44.6462 40.763 44.6849C40.948 44.7274 41.1047 44.8049 41.2291 44.9126C41.3552 45.0222 41.445 45.1597 41.4939 45.3209C41.5279 45.4329 41.5391 45.5566 41.531 45.6877H42.3166C42.4774 45.6877 42.6076 45.7938 42.6076 45.9243C42.6076 46.0557 42.4774 46.1622 42.3166 46.1622H41.4314H39.0888H36.7755H34.0933H32.2351C32.0743 46.1622 31.9441 46.0557 31.9441 45.9243C31.9441 45.7938 32.0743 45.6877 32.2351 45.6877H33.0299V41.156L33.0286 41.1566V39.5778C33.0289 39.5775 33.0296 39.5775 33.0299 39.5772V38.7985C33.0296 38.7985 33.0289 38.7985 33.0286 38.7985V33.4886C33.0286 32.0034 32.7209 30.9329 32.2453 30.2043C32.0465 29.9 31.818 29.656 31.5709 29.4668C31.6885 29.4006 31.8139 29.3431 31.9479 29.296C32.0808 29.3858 32.2062 29.4818 32.331 29.5809C32.9327 30.06 33.4562 30.5502 34.6212 30.3157C34.1385 30.6735 34.1157 31.2378 34.1157 31.8342V38.7588V39.4465V40.592V42.12L34.643 41.872L34.6443 41.8735C34.798 41.7917 34.9659 41.7111 35.1505 41.6277C35.3038 41.5594 35.3473 41.5406 35.3912 41.5209C35.5788 41.4382 35.7634 41.3545 35.9429 41.268L35.9494 34.3369L37.5165 33.1357H37.524L37.5216 35.2905C37.5553 35.28 37.5869 35.2668 37.6226 35.2588C37.7256 35.0942 37.8589 34.9474 38.0119 34.8228C38.312 34.5782 38.6924 34.4172 39.0715 34.3726C39.5912 34.3123 40.1056 34.4652 40.4245 34.9105H41.0704L41.3559 35.4969H42.8316V37.3425L41.9379 37.7511C42.0715 37.8532 42.1918 37.9625 42.2989 38.0782C42.8439 38.6668 43.055 39.4086 43.0203 40.1572ZM36.8064 45.6877H38.9851L38.5174 43.5557C38.3657 43.6902 38.1767 43.8074 37.9558 43.9049C37.4316 44.136 36.7167 44.26 35.9055 44.2391L35.6526 44.6329C35.9796 44.6332 36.2397 44.7058 36.4342 44.8498C36.681 45.0314 36.7999 45.3151 36.8064 45.6877ZM35.621 41.9498L35.3827 42.0551C34.7443 42.3409 34.3272 42.592 34.1235 42.9055C34.0001 43.0954 33.9583 43.3283 33.9791 43.6138L34.5284 45.6852H36.288C36.2836 45.4625 36.2224 45.3065 36.1034 45.2185C35.9392 45.0972 35.6445 45.0745 35.2171 45.1526L34.6454 45.2572L35.6122 43.7502L35.7719 43.7578C36.5582 43.7963 37.2429 43.6895 37.7256 43.4763C37.9891 43.3603 38.1869 43.2148 38.2994 43.048C38.4021 42.8966 38.4341 42.7197 38.3793 42.5252C38.3175 42.3052 38.1502 42.0612 37.8575 41.7985L38.2281 41.4612C38.5928 41.7886 38.8056 42.108 38.8896 42.4077C38.9392 42.5834 38.9453 42.752 38.9131 42.9108L39.5216 45.6852H41.0068C41.0153 45.5957 41.0088 45.5154 40.9878 45.4462C40.9646 45.3698 40.9238 45.3065 40.8671 45.2572C40.8086 45.2071 40.7301 45.1695 40.6339 45.1471C40.467 45.1086 40.2535 45.116 40.0005 45.1785L39.6953 45.2545L39.6688 44.9689C39.5794 44.0022 40.0597 43.5557 40.8157 42.9772C40.8627 42.5489 40.6162 42.0757 40.1185 41.5655C39.6055 41.0397 38.8359 40.4849 37.8514 39.9065C37.6869 41.0385 36.664 41.4898 35.621 41.9498ZM37.5169 39.1157C37.6117 39.1889 37.7076 39.2615 37.8072 39.3182C38.9902 39.9886 39.9108 40.6342 40.5118 41.2505C40.9548 41.7046 41.2301 42.1477 41.3172 42.5782C41.3865 41.8418 41.0489 41.1422 40.4432 40.4652C39.7871 39.7332 38.8192 39.0298 37.7066 38.3394C37.6393 38.2975 37.5788 38.2502 37.5179 38.2034L37.5169 39.1157ZM37.5193 36.6169L37.5183 37.4874C37.6444 37.6603 37.8004 37.8203 38.0027 37.9458C39.1524 38.6594 40.1573 39.3917 40.8504 40.1655C41.3804 40.7563 41.7288 41.3717 41.8244 42.0209C41.8312 42.0111 41.838 42.0012 41.8448 41.992C41.8924 41.9231 41.9379 41.8529 41.9814 41.7809C41.9416 41.1052 41.6119 40.4615 41.0734 39.8409C40.5009 39.1803 39.6963 38.5492 38.7526 37.9345C38.0802 37.496 37.6974 37.0452 37.5193 36.6169ZM42.3033 37.0505V35.9745H41.0119L40.7263 35.3874H40.2919C40.1562 35.4114 40.0522 35.4526 39.9764 35.508C39.8992 35.5646 39.8489 35.6378 39.8217 35.7218C39.7915 35.8163 39.7891 35.9255 39.8109 36.0428C39.8523 36.2662 39.9795 36.5074 40.1715 36.7225C40.3402 36.9102 40.5961 37.0255 40.879 37.1523C41.0636 37.2354 41.258 37.3228 41.4555 37.4382L42.3033 37.0505ZM41.8944 38.384C41.7319 38.2089 41.5334 38.0505 41.2957 37.9148L41.4358 37.7135L41.2825 37.9071C41.069 37.7686 40.8511 37.6708 40.6468 37.5791C40.3096 37.4274 40.0046 37.2905 39.7643 37.0218C39.5148 36.7431 39.3482 36.4234 39.2924 36.1209C39.2581 35.936 39.2646 35.7548 39.3176 35.5895C39.374 35.4138 39.4811 35.2591 39.645 35.1391C39.7041 35.0954 39.7697 35.0572 39.8428 35.024C39.6494 34.8665 39.3941 34.8145 39.1361 34.8443C38.8631 34.876 38.5857 34.9951 38.3627 35.1763C38.1438 35.3554 37.9813 35.5929 37.935 35.8649C37.8538 36.3431 38.1271 36.9412 39.0592 37.5483C40.042 38.1886 40.883 38.8498 41.4871 39.5462C41.8825 40.0018 42.1776 40.4735 42.3472 40.9652C42.4312 40.6948 42.4825 40.4157 42.4951 40.1388C42.5247 39.5012 42.3492 38.8745 41.8944 38.384ZM37.523 29.6926L35.9494 30.8926V27.1865H28.4947V25.7615H37.5233V27.1865V29.6926H37.523ZM31.0538 22.3905L30.996 22.4551H30.8828H28.1734H27.9185H27.8342H27.5765H24.8671H24.7539L24.6988 22.3905L22.9736 20.2935L22.8026 20.1022H23.1446H24.5887H24.7043L24.7597 20.1674L25.7826 21.292L25.1907 21.3055L24.4306 20.4945H23.7534L25.0405 22.0492H27.4925L25.9512 20.3077L25.8934 20.2425L25.9512 20.1791L27.7057 18.1938L27.8763 18L28.0473 18.1938L29.8018 20.1791L29.8596 20.2425L29.8018 20.3077L28.2605 22.0495H30.7098L31.9968 20.4948H31.3196L30.5571 21.3148L29.9629 21.3058L30.9909 20.1674L31.0487 20.1022H31.1619H32.6084H32.9477L32.7767 20.2935L31.0538 22.3905ZM29.2548 20.2422L27.8763 18.6486L26.4978 20.2422L27.8763 21.8209L29.2548 20.2422ZM27.4646 27.1865H20.0099V30.8926L18.4363 29.6926V27.1865V26.9194V25.7615H27.4646V27.1865ZM18.4363 33.1357H18.4438L20.011 34.3369L20.0174 41.268C20.1969 41.3545 20.3815 41.4382 20.5692 41.5209C20.613 41.5406 20.6562 41.5594 20.8098 41.6277C20.9944 41.7108 21.1624 41.7917 21.316 41.8735L21.3174 41.872L21.8446 42.12V40.592V39.4465V38.7588V31.8342C21.8446 31.2375 21.8219 30.6732 21.3391 30.3157C22.5045 30.5498 23.0277 30.06 23.6294 29.5809C23.7538 29.4818 23.8792 29.3855 24.0125 29.296C24.1464 29.3431 24.2719 29.4006 24.3895 29.4668C24.1423 29.656 23.9139 29.9 23.715 30.2043C23.2398 30.9329 22.9318 32.0034 22.9318 33.4886V38.7991C22.9314 38.7991 22.9308 38.7991 22.9304 38.7991V39.5778C22.9308 39.5782 22.9314 39.5782 22.9318 39.5785V41.1572L22.9304 41.1563V45.688H23.7252C23.886 45.688 24.0162 45.7942 24.0162 45.9246C24.0162 46.056 23.886 46.1625 23.7252 46.1625H21.8671H19.1849H16.8709H14.5276H13.6424C13.4816 46.1625 13.3514 46.056 13.3514 45.9246C13.3514 45.7942 13.4816 45.688 13.6424 45.688H14.428C14.4202 45.5566 14.4314 45.4329 14.4651 45.3212C14.514 45.16 14.6038 45.0222 14.7299 44.9129C14.8543 44.8052 15.011 44.7277 15.1959 44.6852C15.3635 44.6465 15.5556 44.6369 15.7684 44.6606C15.7195 44.0338 15.2599 43.6858 14.6038 43.1895C14.5585 43.1551 14.5123 43.1203 14.4651 43.0846C14.1649 42.8566 13.8953 42.5692 13.6692 42.2452C13.245 41.6366 12.9727 40.8932 12.9387 40.1575C12.904 39.4089 13.1155 38.6671 13.6614 38.0785C13.7685 37.9631 13.8888 37.8535 14.0224 37.7514L13.1287 37.3428V35.4972H14.6044L14.89 34.9108H15.5359C15.8544 34.4655 16.3688 34.3129 16.8889 34.3729C17.2679 34.4175 17.6483 34.5785 17.9485 34.8231C18.1015 34.948 18.2347 35.0945 18.3377 35.2591C18.3734 35.2671 18.4047 35.2803 18.4384 35.2908L18.4363 33.1357ZM19.1529 45.6877C19.1594 45.3148 19.2784 45.0311 19.5245 44.8498C19.7189 44.7058 19.979 44.6332 20.306 44.6329L20.0531 44.2391C19.2423 44.2603 18.5274 44.1363 18.0029 43.9049C17.7823 43.8074 17.5929 43.6902 17.4413 43.5557L16.9735 45.6877H19.1529ZM15.1436 42.9772C15.8996 43.5557 16.38 44.0022 16.2906 44.9689L16.2641 45.2545L15.9588 45.1785C15.7059 45.116 15.4924 45.1086 15.3255 45.1471C15.2296 45.1692 15.1511 45.2071 15.0926 45.2572C15.0358 45.3065 14.995 45.3698 14.9719 45.4462C14.9508 45.5154 14.9444 45.5957 14.9529 45.6852H16.4381L17.0466 42.9108C17.0143 42.752 17.0204 42.5834 17.0701 42.4077C17.1544 42.1077 17.3668 41.7886 17.7316 41.4612L18.1022 41.7985C17.8095 42.0612 17.6422 42.3052 17.5803 42.5252C17.5256 42.7197 17.5576 42.8966 17.6602 43.048C17.7727 43.2148 17.9703 43.3603 18.2337 43.4763C18.7168 43.6895 19.4011 43.7963 20.1874 43.7578L20.3472 43.7502L21.314 45.2572L20.7422 45.1526C20.3145 45.0745 20.0201 45.0972 19.8559 45.2185C19.737 45.3065 19.6758 45.4625 19.6713 45.6852H21.4309L21.9803 43.6138C22.0007 43.328 21.9592 43.0954 21.8358 42.9055C21.6318 42.592 21.2151 42.3409 20.5766 42.0551L20.338 41.9498C19.295 41.4898 18.2721 41.0385 18.1076 39.9065C17.1228 40.4849 16.3535 41.0397 15.8405 41.5655C15.3435 42.0757 15.097 42.5489 15.1436 42.9772ZM14.6425 42.5782C14.7295 42.1477 15.0049 41.7046 15.4478 41.2505C16.0489 40.6342 16.9694 39.9886 18.1525 39.3182C18.2521 39.2615 18.3479 39.1889 18.4428 39.1157L18.4418 38.2031C18.3809 38.2502 18.3207 38.2972 18.2531 38.3391C17.1404 39.0295 16.1726 39.7332 15.5165 40.4649C14.9107 41.1422 14.5735 41.8418 14.6425 42.5782ZM15.9829 35.508C15.9075 35.4526 15.8034 35.4114 15.6674 35.3874H15.2333L14.9478 35.9745H13.656V37.0505L14.5035 37.4382C14.701 37.3228 14.8954 37.2354 15.08 37.1523C15.3632 37.0255 15.6192 36.9102 15.7875 36.7225C15.9795 36.5074 16.1067 36.2662 16.1481 36.0428C16.1699 35.9255 16.1675 35.8163 16.1373 35.7218C16.1107 35.6378 16.0601 35.5646 15.9829 35.508ZM18.024 35.8652C17.9777 35.5932 17.8156 35.3557 17.5963 35.1766C17.3733 34.9954 17.0959 34.8763 16.8229 34.8446C16.5649 34.8148 16.31 34.8665 16.1165 35.0243C16.1896 35.0575 16.2552 35.0957 16.3144 35.1394C16.4786 35.2594 16.5856 35.4142 16.6417 35.5898C16.6948 35.7548 16.7012 35.9363 16.6669 36.1212C16.6108 36.4237 16.4442 36.7434 16.1947 37.0222C15.9544 37.2908 15.6494 37.4277 15.3122 37.5794C15.1079 37.6711 14.8903 37.7689 14.6768 37.9074L14.5239 37.7138L14.6639 37.9151C14.4263 38.0508 14.2281 38.2092 14.0653 38.3843C13.6104 38.8745 13.4347 39.5015 13.4643 40.1391C13.4768 40.416 13.5285 40.6951 13.6121 40.9655C13.7814 40.4738 14.0765 40.0022 14.4722 39.5465C15.0759 38.8505 15.917 38.1892 16.9001 37.5486C17.8319 36.9415 18.1052 36.3437 18.024 35.8652ZM17.2067 37.9345C16.2634 38.5492 15.4587 39.1803 14.8859 39.8409C14.3474 40.4615 14.0177 41.1049 13.9779 41.7809C14.0211 41.8529 14.0666 41.9231 14.1146 41.992C14.1214 42.0015 14.1282 42.0111 14.135 42.0209C14.2305 41.372 14.5793 40.7566 15.1089 40.1655C15.8021 39.3917 16.807 38.6591 17.9567 37.9458C18.1589 37.8206 18.315 37.6603 18.4411 37.4874L18.4401 36.6169C18.2619 37.0452 17.8791 37.496 17.2067 37.9345ZM24.7842 22.8957H30.9919V23.2729H24.7842V22.8957ZM27.9797 38.728C27.8875 38.812 27.7941 38.8923 27.6992 38.9668C26.8606 39.6243 25.5728 39.8717 24.5686 39.3862C24.0138 39.1182 23.6484 38.6763 23.4505 38.1852C23.2401 37.6625 23.2102 37.0412 23.4033 36.5102C23.6137 35.9314 24.0716 35.5102 24.7332 35.5138C25.6673 35.5185 26.0749 36.52 25.8152 37.2317C25.7024 37.5412 25.476 37.7292 25.2312 37.8043C25.1204 37.8523 24.998 37.8815 24.8671 37.8815C24.4 37.8815 24.0213 37.5388 24.0213 37.116C24.0213 36.6929 24.4 36.3505 24.8671 36.3505C25.1697 36.3505 25.4335 36.4954 25.5827 36.712C25.5538 36.2585 25.2655 35.7969 24.7318 35.7942C24.2215 35.7911 23.8626 36.1311 23.6929 36.5985C23.5213 37.0711 23.5512 37.6243 23.7378 38.0892C23.9129 38.524 24.2392 38.9145 24.7362 39.1483C25.6208 39.5643 26.611 39.3658 27.3297 38.7597C27.4473 38.6606 27.5622 38.5474 27.6751 38.4277C26.5053 37.196 25.5824 35.2886 25.014 34.048C25.6442 33.1068 26.5937 30.7348 27.5921 29.5972C27.1288 29.1754 26.5434 28.9258 25.8394 28.9489C25.6157 28.9563 25.3913 28.9926 25.1727 29.06C25.0622 28.9923 24.9487 28.9289 24.8318 28.872C25.7924 28.5157 26.884 28.5369 27.8365 29.1215C27.8841 29.1508 27.9317 29.1898 27.979 29.2265C28.0266 29.1898 28.0742 29.1508 28.1218 29.1215C29.0743 28.5366 30.1659 28.5157 31.1266 28.872C31.0096 28.9289 30.8961 28.9923 30.7856 29.06C30.567 28.9923 30.3426 28.9563 30.119 28.9489C29.4149 28.9258 28.8299 29.1751 28.3662 29.5972C29.3646 30.7348 30.3141 33.1068 30.9443 34.048C30.376 35.2886 29.453 37.196 28.2832 38.4277C28.3961 38.5471 28.5113 38.6606 28.629 38.7597C29.348 39.3655 30.3379 39.564 31.2224 39.1483C31.7198 38.9145 32.0461 38.5237 32.2208 38.0892C32.4078 37.6243 32.4374 37.0711 32.2657 36.5985C32.0957 36.1311 31.7368 35.7911 31.2268 35.7942C30.6931 35.7969 30.4048 36.2585 30.376 36.712C30.5255 36.4957 30.789 36.3505 31.0915 36.3505C31.5586 36.3505 31.9373 36.6929 31.9373 37.116C31.9373 37.5388 31.5586 37.8815 31.0915 37.8815C30.9607 37.8815 30.8379 37.8523 30.7275 37.8043C30.4827 37.7295 30.2563 37.5412 30.1434 37.2317C29.8837 36.52 30.2913 35.5185 31.2255 35.5138C31.887 35.5105 32.3449 35.9314 32.5554 36.5102C32.7484 37.0412 32.7182 37.6625 32.5081 38.1852C32.3106 38.6763 31.9448 39.1185 31.39 39.3862C30.3858 39.8717 29.0981 39.6243 28.2594 38.9668C28.1653 38.8923 28.0718 38.8123 27.9797 38.728ZM28.801 36.4209C28.9502 35.8209 29.0763 35.2994 29.0763 34.1422C29.0763 32.9674 28.7503 31.7262 28.5651 31.1689C28.4236 30.7449 28.2244 30.3628 27.98 30.0335C27.7356 30.3628 27.536 30.7452 27.395 31.1689C27.2093 31.7262 26.8837 32.9674 26.8837 34.1422C26.8837 35.2994 27.0098 35.8209 27.159 36.4209C27.3096 37.0274 27.6132 37.5988 27.9803 38.0735C28.3468 37.5988 28.6504 37.0271 28.801 36.4209Z" fill="#AC8F64" />
        <path d="M37.5271 24.1592H18.4282V24.9964H37.5275V24.1592H37.5271ZM18.4673 30.7896V32.0623L20.0409 33.2641V31.9699L18.5197 30.8041L18.4673 30.7896ZM37.4915 30.7896L37.4391 30.8044L35.9182 31.9703V33.2644L37.4918 32.0626V30.7896H37.4915Z" fill="white" />
        <path d="M15.029 47.5352L16.8939 52.5811C16.9655 52.7746 17.0448 52.9089 17.1318 52.9842C17.2239 53.054 17.3057 53.0916 17.3773 53.097V53.2582C17.2239 53.2475 17.0422 53.2421 16.8325 53.2421C16.6278 53.2367 16.4206 53.234 16.2109 53.234C15.9755 53.234 15.753 53.2367 15.5432 53.2421C15.3335 53.2421 15.1672 53.2475 15.0444 53.2582V53.097C15.3053 53.0863 15.469 53.0406 15.5355 52.96C15.6072 52.874 15.5918 52.694 15.4895 52.4199L14.1849 48.6717L14.323 48.4622L13.1566 51.6542C13.044 51.9497 12.9749 52.1915 12.9493 52.3796C12.9289 52.5677 12.9417 52.7128 12.9877 52.8149C13.0389 52.917 13.1182 52.9895 13.2256 53.0325C13.3382 53.0701 13.4712 53.0916 13.6247 53.097V53.2582C13.4558 53.2475 13.2947 53.2421 13.1412 53.2421C12.9877 53.2367 12.8317 53.234 12.6731 53.234C12.5605 53.234 12.4531 53.2367 12.3508 53.2421C12.2536 53.2421 12.1666 53.2475 12.0898 53.2582V53.097C12.1973 53.0755 12.3073 53.003 12.4198 52.8794C12.5324 52.7558 12.6424 52.5462 12.7498 52.2506L14.4995 47.5352C14.5814 47.5406 14.6684 47.5433 14.7604 47.5433C14.8577 47.5433 14.9472 47.5406 15.029 47.5352ZM15.5662 50.9368V51.098H13.2793L13.3561 50.9368H15.5662Z" fill="#AC8F64" />
        <path d="M17.738 47.5513C17.871 47.5567 18.0449 47.5621 18.2598 47.5674C18.4747 47.5728 18.6896 47.5755 18.9044 47.5755C19.15 47.5755 19.3879 47.5728 19.6181 47.5674C19.8484 47.5621 20.0121 47.5594 20.1093 47.5594C20.7437 47.5594 21.2169 47.6776 21.529 47.9141C21.8462 48.1505 22.0048 48.4541 22.0048 48.8249C22.0048 49.013 21.9511 49.2037 21.8436 49.3972C21.7362 49.5907 21.5699 49.7626 21.3448 49.9131C21.1197 50.0635 20.8281 50.1737 20.47 50.2436V50.2597C20.9509 50.2973 21.332 50.3886 21.6134 50.5337C21.8948 50.6788 22.0969 50.8535 22.2197 51.0577C22.3425 51.2619 22.4038 51.4741 22.4038 51.6945C22.4038 52.033 22.3194 52.3178 22.1506 52.5489C21.9818 52.78 21.7387 52.9573 21.4216 53.0809C21.1044 53.1991 20.7258 53.2582 20.2858 53.2582C20.163 53.2582 19.9865 53.2555 19.7563 53.2502C19.526 53.2394 19.2472 53.234 18.9198 53.234C18.6947 53.234 18.4747 53.2367 18.2598 53.2421C18.0449 53.2421 17.871 53.2475 17.738 53.2582V53.097C17.9017 53.0863 18.0245 53.0648 18.1063 53.0325C18.1882 53.0003 18.2419 52.9358 18.2675 52.8391C18.2982 52.7423 18.3135 52.5972 18.3135 52.4038V48.4057C18.3135 48.2069 18.2982 48.0618 18.2675 47.9705C18.2419 47.8737 18.1856 47.8093 18.0986 47.777C18.0168 47.7394 17.8966 47.7179 17.738 47.7125V47.5513ZM20.0095 47.7125C19.81 47.7125 19.6795 47.7582 19.6181 47.8496C19.5618 47.9409 19.5337 48.1263 19.5337 48.4057V52.4038C19.5337 52.5919 19.5465 52.7343 19.5721 52.831C19.6028 52.9277 19.6539 52.9922 19.7256 53.0245C19.8023 53.0567 19.9149 53.0728 20.0632 53.0728C20.4316 53.0728 20.7002 52.9519 20.869 52.7101C21.043 52.4629 21.1299 52.1136 21.1299 51.6622C21.1299 51.2484 21.0302 50.9287 20.8306 50.703C20.6362 50.4773 20.3114 50.3645 19.856 50.3645H19.2037C19.2037 50.3645 19.2037 50.343 19.2037 50.3C19.2037 50.2516 19.2037 50.2274 19.2037 50.2274H19.8637C20.1042 50.2274 20.2883 50.1683 20.4162 50.0501C20.5441 49.9265 20.6337 49.7653 20.6848 49.5665C20.736 49.3623 20.7616 49.1446 20.7616 48.9136C20.7616 48.5159 20.7027 48.2177 20.5851 48.0188C20.4674 47.8146 20.2755 47.7125 20.0095 47.7125Z" fill="#AC8F64" />
        <path d="M23.025 47.5513C23.1529 47.5567 23.3243 47.5621 23.5392 47.5674C23.7592 47.5728 23.9766 47.5755 24.1915 47.5755C24.4371 47.5755 24.675 47.5728 24.9052 47.5674C25.1354 47.5621 25.2991 47.5594 25.3963 47.5594C26.1075 47.5594 26.6396 47.7072 26.9926 48.0027C27.3456 48.2983 27.5221 48.6798 27.5221 49.1473C27.5221 49.3408 27.4863 49.545 27.4146 49.7599C27.343 49.9695 27.2202 50.1656 27.0463 50.3483C26.8775 50.5257 26.6447 50.6708 26.3479 50.7836C26.0512 50.8965 25.6777 50.9529 25.2275 50.9529H24.4447V50.7917H25.1508C25.4526 50.7917 25.6803 50.7191 25.8338 50.574C25.9924 50.4289 26.0998 50.2382 26.1561 50.0017C26.2175 49.7653 26.2482 49.51 26.2482 49.236C26.2482 48.7255 26.1765 48.3439 26.0333 48.0914C25.89 47.8388 25.6445 47.7125 25.2966 47.7125C25.0971 47.7125 24.9666 47.7582 24.9052 47.8496C24.8489 47.9409 24.8208 48.1263 24.8208 48.4057V52.3554C24.8208 52.565 24.8412 52.7208 24.8822 52.8229C24.9231 52.925 25.0024 52.9922 25.1201 53.0245C25.2377 53.0567 25.4117 53.0755 25.6419 53.0809V53.2582C25.4833 53.2528 25.2787 53.2475 25.028 53.2421C24.7773 53.2367 24.5138 53.234 24.2375 53.234C24.0176 53.234 23.8027 53.2367 23.5929 53.2421C23.3832 53.2475 23.1939 53.2528 23.025 53.2582V53.097C23.1887 53.0863 23.3115 53.0648 23.3934 53.0325C23.4752 53.0003 23.529 52.9358 23.5545 52.8391C23.5852 52.7423 23.6006 52.5972 23.6006 52.4038V48.4057C23.6006 48.2069 23.5852 48.0618 23.5545 47.9705C23.529 47.8737 23.4727 47.8093 23.3857 47.777C23.3039 47.7394 23.1836 47.7179 23.025 47.7125V47.5513Z" fill="#AC8F64" />
        <path d="M30.8805 47.4385C31.4228 47.4385 31.896 47.554 32.3002 47.7851C32.7095 48.0162 33.0267 48.3493 33.2518 48.7846C33.4769 49.2145 33.5895 49.7384 33.5895 50.3564C33.5895 50.9583 33.4743 51.4849 33.2441 51.9363C33.0139 52.3877 32.6916 52.7396 32.2772 52.9922C31.8679 53.2448 31.3998 53.3711 30.8728 53.3711C30.3305 53.3711 29.8547 53.2555 29.4454 53.0245C29.0412 52.7934 28.7266 52.4602 28.5015 52.0249C28.2764 51.5897 28.1638 51.0657 28.1638 50.4531C28.1638 49.8513 28.2789 49.3247 28.5092 48.8733C28.7445 48.4219 29.0643 48.0699 29.4684 47.8173C29.8777 47.5648 30.3484 47.4385 30.8805 47.4385ZM30.8498 47.5836C30.5633 47.5836 30.3126 47.7045 30.0977 47.9463C29.888 48.1881 29.7242 48.5213 29.6066 48.9458C29.494 49.3703 29.4377 49.862 29.4377 50.4209C29.4377 50.9905 29.5017 51.4876 29.6296 51.9121C29.7626 52.3312 29.9391 52.6564 30.1591 52.8874C30.3842 53.1131 30.6324 53.226 30.9035 53.226C31.19 53.226 31.4381 53.1051 31.6479 52.8632C31.8628 52.6214 32.0265 52.2883 32.139 51.8637C32.2567 51.4338 32.3155 50.9421 32.3155 50.3886C32.3155 49.8137 32.249 49.3166 32.116 48.8974C31.9881 48.4783 31.8116 48.1559 31.5865 47.9302C31.3665 47.6991 31.1209 47.5836 30.8498 47.5836Z" fill="#AC8F64" />
        <path d="M34.2737 47.5513C34.4016 47.5567 34.573 47.5621 34.7878 47.5674C35.0078 47.5728 35.2253 47.5755 35.4401 47.5755C35.6857 47.5755 35.9236 47.5728 36.1538 47.5674C36.3841 47.5621 36.5478 47.5594 36.645 47.5594C37.3561 47.5594 37.8882 47.7072 38.2412 48.0027C38.5942 48.2983 38.7707 48.6798 38.7707 49.1473C38.7707 49.3408 38.7349 49.545 38.6633 49.7599C38.5916 49.9695 38.4689 50.1656 38.2949 50.3483C38.1261 50.5257 37.8933 50.6708 37.5966 50.7836C37.2998 50.8965 36.9264 50.9529 36.4761 50.9529H35.6934V50.7917H36.3994C36.7012 50.7917 36.9289 50.7191 37.0824 50.574C37.241 50.4289 37.3484 50.2382 37.4047 50.0017C37.4661 49.7653 37.4968 49.51 37.4968 49.236C37.4968 48.7255 37.4252 48.3439 37.2819 48.0914C37.1387 47.8388 36.8931 47.7125 36.5452 47.7125C36.3457 47.7125 36.2152 47.7582 36.1538 47.8496C36.0975 47.9409 36.0694 48.1263 36.0694 48.4057V52.3554C36.0694 52.565 36.0899 52.7208 36.1308 52.8229C36.1717 52.925 36.251 52.9922 36.3687 53.0245C36.4864 53.0567 36.6603 53.0755 36.8905 53.0809V53.2582C36.7319 53.2528 36.5273 53.2475 36.2766 53.2421C36.0259 53.2367 35.7624 53.234 35.4862 53.234C35.2662 53.234 35.0513 53.2367 34.8415 53.2421C34.6318 53.2475 34.4425 53.2528 34.2737 53.2582V53.097C34.4374 53.0863 34.5602 53.0648 34.642 53.0325C34.7239 53.0003 34.7776 52.9358 34.8032 52.8391C34.8339 52.7423 34.8492 52.5972 34.8492 52.4038V48.4057C34.8492 48.2069 34.8339 48.0618 34.8032 47.9705C34.7776 47.8737 34.7213 47.8093 34.6343 47.777C34.5525 47.7394 34.4323 47.7179 34.2737 47.7125V47.5513Z" fill="#AC8F64" />
        <path d="M41.4719 47.5352L43.3367 52.5811C43.4083 52.7746 43.4876 52.9089 43.5746 52.9842C43.6667 53.054 43.7486 53.0916 43.8202 53.097V53.2582C43.6667 53.2475 43.4851 53.2421 43.2753 53.2421C43.0707 53.2367 42.8635 53.234 42.6537 53.234C42.4184 53.234 42.1958 53.2367 41.9861 53.2421C41.7763 53.2421 41.61 53.2475 41.4872 53.2582V53.097C41.7482 53.0863 41.9119 53.0406 41.9784 52.96C42.05 52.874 42.0347 52.694 41.9323 52.4199L40.6277 48.6717L40.7659 48.4622L39.5994 51.6542C39.4868 51.9497 39.4178 52.1915 39.3922 52.3796C39.3717 52.5677 39.3845 52.7128 39.4306 52.8149C39.4817 52.917 39.561 52.9895 39.6685 53.0325C39.781 53.0701 39.914 53.0916 40.0675 53.097V53.2582C39.8987 53.2475 39.7375 53.2421 39.5841 53.2421C39.4306 53.2367 39.2745 53.234 39.1159 53.234C39.0034 53.234 38.8959 53.2367 38.7936 53.2421C38.6964 53.2421 38.6094 53.2475 38.5327 53.2582V53.097C38.6401 53.0755 38.7501 53.003 38.8627 52.8794C38.9752 52.7558 39.0852 52.5462 39.1927 52.2506L40.9424 47.5352C41.0242 47.5406 41.1112 47.5433 41.2033 47.5433C41.3005 47.5433 41.39 47.5406 41.4719 47.5352ZM42.0091 50.9368V51.098H39.7222L39.7989 50.9368H42.0091Z" fill="#AC8F64" />
    </g>
    <defs>
        <radialGradient id="paint0_radial_141_186" cx="0" cy="0" r="1" gradientUnits="userSpaceOnUse" gradientTransform="translate(28 37) rotate(95.2624) scale(190.804 105.592)">
            <stop offset="0.223465" stop-color="#0072BB" />
            <stop offset="0.566825" stop-color="#AC8F64" stop-opacity="0" />
            <stop offset="1" stop-color="#0072BB" />
        </radialGradient>
        <clipPath id="clip0_141_186">
            <rect width="31.9551" height="40" fill="white" transform="translate(12 18)" />
        </clipPath>
    </defs>
</svg>