<svg style="display: none;" aria-hidden="true" xmlns="http://www.w3.org/2000/svg" xmlns:xlink="http://www.w3.org/1999/xlink"><symbol viewBox="0 0 111 40" fill="none" id="svg-decor_fixed-menu"><g clip-path="url(#aclip0_14_140)"><path d="M54.1985 0.288719C53.2521 1.02001 53.1016 2.35353 53.8974 3.14935C54.4136 3.66555 54.4351 3.77309 54.4351 6.56919V9.45132L53.2521 8.20383C51.8971 6.76277 50.6066 6.00997 48.6493 5.47226C47.8965 5.25718 47.0362 4.87002 46.7781 4.59041C45.6381 3.47197 43.6809 4.3108 43.6809 5.92393C43.6809 7.45104 45.4015 8.28987 46.6921 7.38651C47.3588 6.91333 47.9826 6.99936 49.6172 7.77366C51.725 8.76305 53.5533 11.086 54.091 13.4089C54.22 13.9681 54.1985 13.9681 53.4457 13.1293C52.5639 12.1399 51.3594 11.3871 49.9183 10.8709C48.7354 10.4407 45.5951 10.0536 44.8638 10.2471C44.3476 10.3762 44.3261 10.4407 44.3261 12.1399C44.3261 14.9145 45.0574 17.1944 46.4985 18.829L47.1652 19.5818H46.3909C45.4876 19.5818 45.0359 20.1625 45.4015 20.8723C45.5951 21.238 45.8532 21.3025 47.2943 21.3025C50.0474 21.3025 52.1767 22.636 53.2952 25.088C54.2415 27.1743 54.1555 29.6478 52.994 31.9062C52.4993 32.9171 51.1013 34.6377 50.7787 34.6377C50.6926 34.6377 50.8647 34.1645 51.1658 33.5623C52.3058 31.2609 51.9401 28.2282 50.3055 26.3785C48.1116 23.8835 44.3906 23.776 42.1968 26.1419C41.2504 27.1743 40.9923 28.0131 41.1429 29.7983C41.3795 32.6159 44.1971 34.2506 46.7351 33.0461C48.0471 32.4224 48.3482 30.5511 47.2728 29.7983C46.7351 29.4327 45.7672 29.3682 45.1865 29.6908C44.7563 29.9274 44.2616 31.1319 44.4552 31.4545C44.5412 31.5835 44.4122 31.562 44.1541 31.433C42.756 30.6802 42.3689 28.7444 43.3797 27.5399C44.1541 26.6366 44.9714 26.2494 46.1543 26.2494C47.3588 26.2494 48.1331 26.6366 49.015 27.626C51.1443 30.0564 50.0689 33.8204 46.7996 35.3045C45.6166 35.8422 43.4443 35.8422 42.2183 35.283C39.6158 34.1 36.2389 30.7232 32.6255 25.6472L31.8082 24.5288H32.69C36.6476 24.5288 38.6694 19.4097 35.7227 16.9148C33.916 15.4092 31.2705 15.8824 30.2166 17.9042C29.5713 19.1516 30.066 21.0014 31.249 21.7327C32.0233 22.2274 33.5074 22.2274 34.1096 21.7327C34.4967 21.41 34.5398 20.2056 34.1741 19.8399C33.8085 19.4743 32.8191 19.5173 32.475 19.9259C32.2169 20.2271 32.1738 20.2271 31.9157 19.8829C31.5071 19.3237 31.5716 18.9796 32.1738 18.3988C32.9051 17.646 33.8515 17.6891 34.6688 18.4849C36.2389 20.055 34.7549 22.8081 32.3459 22.8081C31.206 22.8081 30.1305 22.0768 28.84 20.4421C24.7104 15.2586 21.7422 13.0002 17.5266 11.7957C15.0101 11.1075 11.5042 11.1505 9.15978 11.9033C4.8796 13.3013 1.61031 16.8717 0.448855 21.4315C-0.368466 24.6363 -0.0458393 28.9595 1.22316 31.476C5.24524 39.4986 16.7093 40.8967 21.183 33.9064C22.452 31.9277 22.7101 30.9383 22.7101 28.1852C22.7101 25.9053 22.6456 25.6257 22.0864 24.4212C21.269 22.7866 19.828 21.324 18.1933 20.5497C17.0749 20.0335 16.6232 19.9475 14.9671 19.9259C13.0958 19.9044 13.0313 19.9259 12.9668 20.3991C12.8377 21.1949 13.2679 21.453 14.8165 21.5606C19.4193 21.9047 22.1939 26.2494 20.6883 30.7232C20.2582 31.9707 19.2042 33.8849 19.0322 33.7129C18.9892 33.6699 19.0537 33.2612 19.1827 32.8095C19.5914 31.3469 19.3333 28.6369 18.645 27.2603C17.0964 24.0771 13.0958 22.679 9.9771 24.2276C5.20223 26.6151 6.38519 33.7559 11.5472 33.7774C13.0743 33.7774 14.3648 33.0676 15.0101 31.8416C16.0425 29.9059 15.3972 27.9701 13.7196 27.9701C12.1925 27.9701 11.4182 30.0134 12.6011 30.9383L13.1604 31.3684L12.6657 31.7126C11.6763 32.4224 9.9556 31.9062 9.13827 30.6587C8.62207 29.8844 8.79414 27.8411 9.4609 26.9377C10.1277 25.9698 11.3752 25.3891 12.7087 25.3891C15.4618 25.3891 17.333 27.2818 17.5911 30.3145C17.9783 34.8313 14.5154 37.4769 9.84805 36.2509C7.80475 35.7132 6.64329 35.0464 5.05167 33.4763C2.72875 31.1534 1.73936 28.7229 1.73936 25.3031C1.73936 21.9262 3.07289 18.7 5.41731 16.334C7.65419 14.0756 10.1062 13.0863 13.4615 13.1078C18.9676 13.1293 22.9682 15.6888 27.9582 22.3779L29.9585 25.0665L28.8615 25.1955C25.5062 25.6257 23.635 29.024 25.1836 31.8416C26.9688 35.0464 31.8512 34.057 31.8512 30.4866C31.8512 29.5402 31.7652 29.3467 30.9909 28.5723C30.152 27.7335 30.0875 27.712 28.9476 27.798C27.614 27.9056 27.4205 28.0346 27.2269 28.8735C27.1193 29.2821 27.2054 29.5617 27.528 29.8844C28.1087 30.4651 28.4959 30.4651 29.0981 29.8629C29.5283 29.4327 29.5713 29.4327 29.8509 29.7983C30.9909 31.39 28.2808 32.8525 26.9903 31.3469C25.9149 30.0779 26.4741 28.0131 28.1087 27.2818C30.1305 26.4 31.2275 27.0452 34.5828 31.0888C38.9275 36.3369 41.7236 38.1006 45.7242 38.1436C48.6278 38.1651 50.6926 37.3048 52.8435 35.197L54.22 33.8634V36.7025C54.22 39.7567 54.3491 40.1224 55.3385 39.9718C55.8331 39.9073 55.8331 39.8643 55.8977 36.8961L55.9622 33.8849L57.3172 35.197C59.4896 37.3478 61.5329 38.1651 64.5441 38.1221C68.5016 38.1006 71.2117 36.3584 75.5779 31.0888C78.8902 27.0883 79.9011 26.4645 81.8799 27.2173C83.6221 27.8841 84.2888 30.0349 83.1704 31.3469C81.8799 32.8525 79.1698 31.39 80.3098 29.7983C80.5894 29.4327 80.6324 29.4327 81.0626 29.8629C81.6648 30.4651 82.052 30.4651 82.6327 29.8844C82.9553 29.5617 83.0414 29.2821 82.9338 28.8735C82.7402 28.0346 82.5467 27.9271 81.3422 27.798C80.4388 27.712 80.1162 27.798 79.514 28.2067C78.6106 28.8304 78.3095 29.4112 78.3095 30.6372C78.3095 34.057 83.2564 34.9604 84.9556 31.8631C86.5257 29.024 84.6545 25.6257 81.2992 25.1955L80.2022 25.0665L82.2025 22.3779C87.1925 15.6888 91.1931 13.1293 96.6992 13.1078C100.076 13.0863 102.55 14.0756 104.765 16.334C107.109 18.7215 108.421 21.9477 108.421 25.3031C108.421 28.7229 107.432 31.1534 105.109 33.4763C100.678 37.864 94.2258 37.5414 92.8277 32.831C91.6878 28.981 93.9031 25.3891 97.4305 25.3891C98.7855 25.3891 100.012 25.9698 100.7 26.9377C101.367 27.8411 101.539 29.8844 101.022 30.6587C100.205 31.9062 98.4844 32.4224 97.495 31.7126L97.0003 31.3684L97.5596 30.9383C97.9682 30.6157 98.0973 30.3145 98.0973 29.7123C98.0973 28.0992 96.3121 27.3679 95.1506 28.5293C94.6559 29.024 94.6129 29.1961 94.7204 30.25C94.957 32.4654 96.4196 33.7774 98.6565 33.7774C101.775 33.7774 103.905 30.7232 102.98 27.5184C101.496 22.4639 93.9461 22.2489 91.5157 27.2388C90.8489 28.5939 90.5693 31.39 90.978 32.788C91.107 33.2612 91.1715 33.6699 91.1285 33.7129C90.9565 33.8849 89.9025 31.9707 89.4724 30.7232C87.9668 26.2494 90.7414 21.9047 95.3442 21.5606C96.8928 21.453 97.323 21.1949 97.1939 20.3991C97.1294 19.9259 97.0649 19.9044 95.1936 19.9044C93.516 19.9259 93.0858 20.012 91.9674 20.5497C90.3327 21.324 88.8917 22.7866 88.0743 24.4212C87.5151 25.6257 87.4506 25.9053 87.4506 28.1852C87.4506 31.0028 87.7302 32.0137 89.0852 34.014C92.5481 39.1545 100.055 39.9288 105.539 35.7132C107.583 34.1215 109.217 31.562 109.819 29.0025C110.293 27.0237 110.228 23.4533 109.712 21.4315C108.55 16.8933 105.281 13.3013 101.044 11.9248C99.5599 11.4516 98.8931 11.3441 96.8068 11.3441C91.3651 11.3226 87.0419 13.5379 82.9983 18.4419C79.8581 22.2489 79.1913 22.8081 77.7288 22.8081C75.4059 22.8081 73.9648 20.0335 75.4919 18.4849C76.3092 17.6891 77.2556 17.646 77.9869 18.3988C78.5891 18.9796 78.6536 19.3237 78.245 19.8829C77.9869 20.2271 77.9438 20.2271 77.6857 19.9259C77.3416 19.5173 76.3522 19.4743 75.9866 19.8399C75.6209 20.2056 75.664 21.41 76.0511 21.7327C76.2232 21.8832 76.7824 22.0338 77.2986 22.0983C78.9332 22.2704 80.2453 20.9368 80.2453 19.1516C80.2453 17.1514 78.0299 15.5812 76.0081 16.1189C72.2441 17.1298 71.986 22.3564 75.6209 24.0771C76.1371 24.3137 76.976 24.5288 77.4707 24.5288H78.3525L77.5352 25.6472C75.2338 28.852 72.0075 32.4869 70.3083 33.8204C67.3187 36.1433 64.1784 36.3369 61.791 34.3151C59.3605 32.2718 59.5971 28.2712 62.2642 26.6581C63.0815 26.1634 64.7377 26.1204 65.598 26.5721C67.2541 27.4109 67.8779 29.3897 66.8885 30.6372C66.4583 31.1749 65.4259 31.8847 65.7055 31.4545C65.8991 31.1319 65.4044 29.9274 64.9742 29.6908C63.4256 28.852 61.834 30.2285 62.3932 31.9062C62.6943 32.8525 63.8128 33.4333 65.2323 33.3902C66.3938 33.3687 67.2111 33.0031 68.0285 32.1212C68.8027 31.3254 69.0609 30.5511 69.0609 29.1531C69.0609 27.6905 68.8458 27.1313 67.8779 26.0559C66.91 25.0019 65.4904 24.4212 63.8773 24.4427C59.6401 24.5072 56.9731 29.4972 58.9949 33.5623C59.296 34.1645 59.4681 34.6377 59.3605 34.6377C59.2745 34.6377 58.8228 34.2076 58.3711 33.6914C55.9192 30.9168 55.5105 26.9807 57.3602 24.1846C58.6508 22.2489 60.522 21.3025 63.06 21.3025C64.3075 21.3025 64.5656 21.238 64.7592 20.8723C65.0818 20.2486 64.6731 19.5818 63.9849 19.5818H63.4256L64.0709 18.7645C65.4689 16.9793 66.2432 14.4843 66.2648 11.5807C66.2648 10.4192 66.2432 10.3547 65.641 10.2256C64.7592 10.0321 61.4684 10.5052 60.1779 10.9999C58.9519 11.4946 57.2527 12.6561 56.715 13.3874C56.3709 13.8821 56.3709 13.8821 56.4999 13.1293C56.9946 10.4192 59.6617 7.79517 62.5868 7.12841C63.3181 6.97785 63.5117 6.99936 63.8128 7.34349C64.3075 7.90271 65.6195 7.88121 66.2002 7.32199C67.0821 6.50467 67.0175 5.10662 66.0712 4.37533C65.4689 3.90214 64.2215 4.03119 63.6407 4.61192C63.3611 4.91304 62.6513 5.25718 62.0706 5.40773C60.3069 5.8379 58.7153 6.71975 57.4033 7.98875L56.1558 9.21473V6.39712C56.1558 3.83762 56.1988 3.5365 56.6075 3.10633C57.2312 2.43957 57.2097 1.21358 56.5644 0.525314C56.0267 -0.0554161 54.8007 -0.184467 54.1985 0.288719ZM49.9613 12.8712C52.2627 13.9251 53.4672 15.7963 53.9189 19.0226L54.0695 20.0765L52.865 19.9259C48.9074 19.4743 46.5845 17.1514 46.1113 13.1938L45.9823 11.9893L47.2943 12.1184C48.0256 12.2044 49.2301 12.527 49.9613 12.8712ZM64.415 12.9572C64.0494 15.5597 63.2106 17.3879 61.8985 18.3773C61.0382 19.0441 59.1239 19.7324 57.6184 19.9259L56.5214 20.0765L56.6505 18.786C56.844 16.9793 57.5753 15.1941 58.5647 14.1832C59.7477 12.9787 61.8125 12.1184 63.7483 12.0754L64.5441 12.0538L64.415 12.9572Z" fill="#fff"/></g><defs><clipPath id="aclip0_14_140"><path fill="#fff" transform="matrix(1 0 0 -1 0 40)" d="M0 0H110.139V40H0z"/></clipPath></defs></symbol><symbol viewBox="0 0 13 22" fill="none" id="svg-facebook_socials"><path d="M12 1H9C7.67392 1 6.40215 1.52678 5.46447 2.46447C4.52678 3.40215 4 4.67392 4 6V9H1V13H4V21H8V13H11L12 9H8V6C8 5.73478 8.10536 5.48043 8.29289 5.29289C8.48043 5.10536 8.73478 5 9 5H12V1Z" stroke="#FFFAF1" stroke-width="2" stroke-linecap="round" stroke-linejoin="round"/></symbol><symbol viewBox="0 0 102 25" fill="none" id="svg-hover_fixed-menu"><path d="M35.864 0.330456C31.9129 1.16435 28.4383 3.66605 25.0233 8.11351C23.0379 10.7145 21.6083 11.2506 19.8412 10.0593C18.4713 9.14595 18.4117 7.14063 19.742 6.32658C20.7546 5.69123 22.0451 6.26702 22.0451 7.35903C22.0451 8.0738 21.7274 8.25249 21.2311 7.81569C20.9333 7.53772 20.7347 7.49801 20.2979 7.65685C19.8611 7.81569 19.742 7.97453 19.7023 8.62973C19.6228 9.60261 20.0001 9.92029 21.2708 9.92029C23.6931 9.92029 24.6461 6.86266 22.74 5.17501C21.0921 3.74547 18.5705 4.3014 17.5182 6.34644C17.141 7.08106 17.0616 7.4583 17.141 8.41133C17.3197 10.4365 18.5904 11.7668 20.7943 12.2036L21.8466 12.422L20.9134 13.6927C17.7168 18.1004 15.0761 20.7411 12.634 22.0118C11.1449 22.7663 9.23882 22.7464 7.76957 21.9324C5.88337 20.8801 5.00976 19.3116 5.20831 17.2467C5.40686 15.1818 7.35262 13.4941 9.23882 13.7721C11.5221 14.1295 12.634 16.5915 11.2044 18.1004C10.5492 18.7556 10.3308 18.7953 10.3308 18.2394C10.3308 17.1673 9.17925 16.4326 8.16666 16.8496C7.37247 17.1871 7.03494 17.882 7.2732 18.7953C7.65044 20.3043 9.79475 20.9198 11.5221 20.0065C13.2098 19.113 13.9841 16.6312 13.1303 14.7648C11.7207 11.6874 7.21364 11.2108 4.91049 13.9111C3.97732 14.9832 3.58022 16.2142 3.58022 17.9615C3.58022 19.1329 3.6795 19.5895 4.13615 20.5029C4.71194 21.6544 4.53325 21.7736 3.65964 20.8007C2.24995 19.252 1.49548 17.1077 1.63446 15.0031C1.85286 11.6278 4.3347 9.26508 7.65044 9.24523C9.23882 9.22537 9.53664 9.08639 9.53664 8.43118C9.53664 7.69656 8.90129 7.47816 7.2732 7.59729C4.27514 7.81569 1.83301 9.44378 0.701286 11.9455C-0.0929029 13.6927 -0.231886 16.2341 0.383611 18.2196C1.65431 22.4486 5.50613 25.0893 9.87417 24.7319C13.2098 24.4738 15.6916 22.7861 19.5236 18.1799C22.2437 14.9237 22.7996 14.4869 24.2887 14.4869C25.4601 14.4869 26.433 15.1421 26.7904 16.1944C27.3066 17.6636 26.4926 19.0535 25.1226 19.0535C24.0107 19.0535 23.3754 18.1799 23.7526 17.1871C23.9115 16.79 24.1696 16.79 24.5468 17.1673C24.9042 17.5246 25.6388 17.5644 25.9764 17.2268C26.1153 17.0878 26.2146 16.6907 26.2146 16.3334C26.2146 15.8171 26.0955 15.6186 25.5793 15.3605C23.7328 14.4075 21.4495 16.3731 22.0253 18.3983C22.4224 19.8079 23.0776 20.3837 24.4674 20.6418C26.7308 21.0588 28.5972 19.4108 28.5972 16.9687C28.5972 14.884 27.3662 13.4743 25.0829 12.8985L23.8122 12.561L25.619 10.1387C29.9473 4.34111 33.2829 2.07767 38.1076 1.68058C43.3492 1.22392 47.9555 4.57937 49.3454 9.92029C49.8417 11.7469 49.802 14.6259 49.2659 16.2738C48.035 20.1653 44.8979 22.7663 40.927 23.223C38.3856 23.5009 36.4596 22.5082 35.5662 20.4433C35.0897 19.3314 34.9705 17.4452 35.3279 16.1547C35.7647 14.5663 37.8296 12.8985 39.418 12.8985C42.5948 12.8985 44.4611 16.3334 42.3962 18.3983C41.8601 18.9343 41.5822 19.0535 40.9071 19.0535C40.4504 19.0535 39.9144 18.9542 39.696 18.8351C39.3187 18.6365 39.3187 18.6167 39.8151 18.0409C40.0931 17.7033 40.3115 17.2665 40.3115 17.068C40.3115 15.4995 38.326 14.7648 37.3531 15.9561C37.0553 16.3135 37.0354 17.9615 37.3134 18.6762C38.2466 21.0985 42.1182 21.436 43.9449 19.252C45.4737 17.4452 44.9972 13.9309 43.0316 12.422C40.2519 10.2975 35.7647 11.4094 34.1764 14.5861C33.4814 15.976 33.2233 18.2593 33.6204 19.7285C33.9182 20.9 33.9182 20.9 33.541 20.4234C32.2703 18.7953 31.5952 16.2341 31.9526 14.4472C32.5681 11.5484 34.7124 9.68203 37.8296 9.38421C39.2195 9.26508 39.6166 8.98712 39.418 8.35176C39.2592 7.81569 38.5643 7.65685 37.2141 7.81569C32.4093 8.37162 29.3914 12.6602 30.404 17.5048C31.3967 22.2501 35.6655 25.3474 40.6688 24.9503C43.3492 24.7319 45.6722 23.7193 47.5783 21.9721C48.7696 20.8801 50.1396 18.9145 50.4771 17.8026C50.6955 17.1077 51.033 16.79 51.033 17.3062C51.033 17.4452 51.311 18.1401 51.6485 18.8549C52.4824 20.622 54.8253 22.9251 56.6916 23.7987C63.5613 27.0549 70.7488 23.4016 71.404 16.3334C71.8209 11.9256 68.7037 8.17307 64.296 7.81569C63.065 7.69656 62.7672 7.73627 62.4892 8.01423C61.7149 8.78857 62.1715 9.22537 63.8989 9.40407C66.341 9.64232 68.1279 10.8138 69.1207 12.7992C69.7163 14.0104 69.7362 14.1692 69.6567 15.9164C69.5773 17.8026 69.1008 19.1726 68.1279 20.4234C67.7706 20.8801 67.7706 20.8801 68.0485 19.6292C68.5846 17.0878 67.8301 14.3479 66.1623 12.8985C63.9783 10.9527 60.6228 10.7939 58.5381 12.5014C56.5328 14.1493 56.1952 17.6438 57.8432 19.4108C59.5904 21.297 62.9657 21.0985 64.1173 19.0535C64.5739 18.2394 64.6732 16.7106 64.3158 16.0554C63.8195 15.1024 62.0325 15.2016 61.5759 16.1944C61.2383 16.9489 61.2979 17.3658 61.8737 18.0409L62.3899 18.6564L61.7546 18.9343C60.4044 19.4903 58.7565 18.5174 58.4587 16.9489C58.1609 15.3803 59.3124 13.5537 60.8611 13.1169C62.0325 12.7992 62.7473 12.8588 63.8393 13.375C65.7851 14.2685 66.619 15.8966 66.48 18.3983C66.2814 21.8331 64.157 23.6002 60.742 23.223C55.0238 22.5876 51.2316 17.4849 52.0258 11.5285C52.7207 6.22731 56.235 2.45491 61.1192 1.74014C63.204 1.44232 66.063 1.87913 68.0088 2.79244C70.8877 4.14256 73.0321 6.12804 76.2287 10.3968L77.8568 12.5808L76.5662 12.8985C74.3028 13.4743 73.0718 14.884 73.0718 16.9687C73.0718 19.4506 74.9977 21.1184 77.281 20.6021C79.0877 20.205 79.7231 19.2917 79.6437 17.207C79.604 16.3532 78.512 15.2811 77.5192 15.1421C76.3279 14.9832 75.4543 15.4796 75.4543 16.3334C75.4543 16.6907 75.5536 17.0878 75.6926 17.2268C76.0301 17.5644 76.7647 17.5246 77.1221 17.1673C77.4994 16.79 77.7575 16.79 77.9163 17.1871C78.2737 18.1401 77.6582 19.0535 76.6258 19.0535C75.8117 19.0535 75.3153 18.7556 74.958 18.0607C74.5609 17.2864 74.5807 16.4922 75.0572 15.7377C75.5536 14.9237 76.4074 14.4869 77.4795 14.4869C78.8693 14.5067 79.5444 15.0428 82.0262 18.0607C84.9449 21.5949 87.3076 23.5605 89.6107 24.3547C91.0006 24.8113 93.8398 24.8312 95.3289 24.3745C97.7909 23.6002 100.094 21.436 101.107 18.8946C101.484 17.9416 101.563 17.3857 101.563 15.4796C101.563 13.375 101.524 13.097 100.988 11.9455C99.8558 9.48348 97.3938 7.83554 94.5149 7.59729C92.9066 7.47816 92.1323 7.73627 92.1323 8.41133C92.1323 9.08639 92.4301 9.22537 94.0185 9.24523C99.7168 9.30479 102.119 16.2738 98.0093 20.8007C97.1357 21.7736 96.957 21.6544 97.5328 20.5029C98.5454 18.4777 98.2277 15.5987 96.7585 13.9111C93.9192 10.5755 88.1812 12.283 88.1614 16.4723C88.1614 17.743 88.9357 19.2719 89.849 19.8477C91.8146 21.0588 94.5347 20.205 94.5149 18.3784C94.495 17.6239 94.1575 17.1474 93.4229 16.8694C92.4103 16.4922 91.3381 17.1871 91.3381 18.2394C91.3381 18.7953 91.1197 18.7556 90.5042 18.1004C89.5115 17.0878 89.6107 15.6782 90.7028 14.6457C92.9463 12.5014 96.4805 14.4472 96.5003 17.8225C96.5003 20.2646 94.5149 22.2898 91.8543 22.5677C88.9357 22.8656 85.3618 20.0263 80.7952 13.7324L79.8224 12.422L80.8747 12.2036C83.2572 11.7072 84.5875 10.238 84.5875 8.09365C84.5676 5.01617 81.1328 3.2491 78.9289 5.17501C78.1149 5.90963 77.817 6.78324 78.0354 7.95467C78.2737 9.20552 79.1275 9.92029 80.3783 9.92029C81.5696 9.92029 82.0262 9.60261 82.0461 8.74886C82.0858 7.6767 80.8945 7.10092 80.3783 7.91496C80.0606 8.43118 79.6238 8.09365 79.6238 7.33917C79.6238 6.32658 80.8151 5.73094 81.8078 6.24716C82.7013 6.70382 83.1381 7.71641 82.8403 8.68929C82.5425 9.68203 81.927 10.238 80.7952 10.5358C79.3657 10.913 78.3928 10.3571 76.6059 8.0738C72.9725 3.42779 69.7759 1.1445 65.6858 0.310602C59.2529 -1.01966 53.3163 2.11738 51.311 7.87525C50.9337 8.92755 50.6359 9.24523 50.6359 8.59002C50.6359 8.39147 50.2587 7.47816 49.802 6.54498C47.3202 1.52174 41.7807 -0.940247 35.864 0.330456Z" fill="#AC8F64"/></symbol><symbol viewBox="0 0 22 22" fill="none" id="svg-instagram_socials"><path d="M16 1H6C3.23858 1 1 3.23858 1 6V16C1 18.7614 3.23858 21 6 21H16C18.7614 21 21 18.7614 21 16V6C21 3.23858 18.7614 1 16 1Z" stroke="#FFFAF1" stroke-width="2" stroke-linecap="round" stroke-linejoin="round"/><path d="M14.9997 10.3701C15.1231 11.2023 14.981 12.0523 14.5935 12.7991 14.206 13.5459 13.5929 14.1515 12.8413 14.5297 12.0898 14.908 11.2382 15.0397 10.4075 14.906 9.57683 14.7723 8.80947 14.3801 8.21455 13.7852 7.61962 13.1903 7.22744 12.4229 7.09377 11.5923 6.96011 10.7616 7.09177 9.90995 7.47003 9.15843 7.84829 8.40691 8.45389 7.7938 9.20069 7.4063 9.94749 7.0188 10.7975 6.87665 11.6297 7.00006 12.4786 7.12594 13.2646 7.52152 13.8714 8.12836 14.4782 8.73521 14.8738 9.52113 14.9997 10.3701zM16.5 5.5H16.51" stroke="#FFFAF1" stroke-width="2" stroke-linecap="round" stroke-linejoin="round"/></symbol><symbol viewBox="0 0 150 188" fill="none" id="svg-logo"><path fill-rule="evenodd" clip-rule="evenodd" d="M145.612 104.008C145.452 107.463 144.174 110.952 142.182 113.808C141.121 115.329 139.856 116.678 138.447 117.748C138.226 117.916 138.009 118.079 137.796 118.241C134.716 120.57 132.558 122.204 132.329 125.146C133.326 125.035 134.229 125.08 135.016 125.261C135.884 125.461 136.62 125.825 137.204 126.33C137.796 126.845 138.217 127.49 138.447 128.247C138.606 128.773 138.659 129.353 138.621 129.969H142.308C143.063 129.969 143.674 130.467 143.674 131.079C143.674 131.696 143.063 132.196 142.308 132.196H138.153H127.157H116.298H103.707H94.985C94.2302 132.196 93.619 131.696 93.619 131.079C93.619 130.467 94.2302 129.969 94.985 129.969H98.7158V108.696L98.7094 108.699V101.288C98.711 101.287 98.7142 101.287 98.7158 101.286V97.6299C98.7142 97.6299 98.711 97.6299 98.7094 97.6299V72.705C98.7094 65.7332 97.2653 60.7083 95.0329 57.2882C94.0993 55.8597 93.027 54.7143 91.8669 53.8261C92.419 53.5155 93.0079 53.2455 93.6366 53.0245C94.2605 53.4462 94.8493 53.8969 95.435 54.3619C98.2594 56.6108 100.717 58.9116 106.186 57.811C103.92 59.4908 103.813 62.1397 103.813 64.9388V97.4436V100.672V106.049V113.222L106.288 112.057L106.294 112.065C107.015 111.68 107.804 111.302 108.67 110.911C109.39 110.59 109.594 110.502 109.8 110.409C110.681 110.021 111.547 109.628 112.39 109.222L112.42 76.687L119.776 71.0483H119.812L119.8 81.163C119.958 81.1139 120.107 81.0518 120.274 81.0143C120.758 80.2415 121.383 79.5526 122.101 78.9676C123.511 77.8194 125.296 77.064 127.075 76.8546C129.515 76.5715 131.93 77.2893 133.426 79.3793H136.458L137.799 82.1322H144.726V90.7953L140.531 92.7134C141.158 93.1929 141.723 93.7056 142.225 94.2487C144.783 97.0117 145.774 100.494 145.612 104.008ZM116.443 129.969H126.67L124.474 119.961C123.763 120.592 122.875 121.142 121.838 121.6C119.378 122.685 116.022 123.267 112.214 123.169L111.027 125.017C112.562 125.019 113.783 125.36 114.696 126.036C115.854 126.888 116.413 128.22 116.443 129.969ZM110.879 112.423L109.76 112.917C106.763 114.259 104.805 115.437 103.849 116.909C103.27 117.8 103.074 118.893 103.171 120.234L105.75 129.957H114.009C113.989 128.911 113.701 128.179 113.143 127.766C112.372 127.197 110.989 127.09 108.983 127.457L106.299 127.948L110.837 120.874L111.587 120.91C115.278 121.09 118.492 120.589 120.758 119.588C121.995 119.044 122.923 118.36 123.451 117.578C123.933 116.867 124.083 116.037 123.826 115.124C123.536 114.091 122.751 112.946 121.377 111.712L123.116 110.129C124.829 111.666 125.828 113.165 126.222 114.572C126.455 115.397 126.483 116.188 126.332 116.933L129.188 129.957H136.16C136.2 129.537 136.17 129.16 136.071 128.835C135.962 128.477 135.771 128.179 135.504 127.948C135.23 127.713 134.861 127.536 134.409 127.431C133.626 127.25 132.624 127.285 131.437 127.578L130.004 127.935L129.879 126.595C129.459 122.057 131.714 119.961 135.263 117.245C135.483 115.235 134.326 113.014 131.99 110.619C129.582 108.15 125.97 105.546 121.348 102.831C120.576 108.145 115.774 110.264 110.879 112.423ZM119.778 99.119C120.223 99.4628 120.673 99.8036 121.141 100.069C126.694 103.217 131.015 106.247 133.837 109.14C135.916 111.272 137.208 113.352 137.617 115.372C137.942 111.916 136.358 108.631 133.514 105.454C130.434 102.018 125.891 98.716 120.668 95.475C120.353 95.2785 120.068 95.0561 119.783 94.8366L119.778 99.119ZM119.789 87.3896L119.784 91.4756C120.376 92.2873 121.109 93.0384 122.058 93.6276C127.455 96.9771 132.172 100.415 135.426 104.047C137.914 106.82 139.549 109.709 139.998 112.756C140.03 112.71 140.062 112.664 140.093 112.621C140.317 112.297 140.531 111.968 140.735 111.63C140.548 108.458 139 105.437 136.473 102.523C133.786 99.4223 130.008 96.46 125.579 93.5742C122.422 91.516 120.625 89.4001 119.789 87.3896ZM142.246 89.4246V84.3738H136.184L134.843 81.618H132.804C132.167 81.7307 131.679 81.9242 131.323 82.1842C130.961 82.4499 130.725 82.7937 130.597 83.188C130.455 83.6314 130.444 84.1441 130.546 84.6944C130.741 85.743 131.338 86.8754 132.239 87.885C133.031 88.766 134.232 89.3076 135.56 89.9027C136.426 90.2927 137.339 90.7029 138.266 91.2445L142.246 89.4246ZM140.326 95.6844C139.564 94.8626 138.632 94.1187 137.516 93.4818L138.174 92.5372L137.454 93.4457C136.452 92.7957 135.429 92.3364 134.47 91.906C132.887 91.1939 131.456 90.5512 130.328 89.2903C129.156 87.9817 128.374 86.4811 128.113 85.0613C127.951 84.1933 127.982 83.3425 128.231 82.5669C128.496 81.7422 128.998 81.0157 129.767 80.4524C130.045 80.2473 130.353 80.0682 130.696 79.9122C129.788 79.1727 128.59 78.9286 127.379 79.0687C126.097 79.2175 124.795 79.7765 123.748 80.6272C122.721 81.4678 121.958 82.5828 121.741 83.8596C121.359 86.1041 122.642 88.9119 127.018 91.7616C131.631 94.7672 135.579 97.8711 138.415 101.14C140.271 103.279 141.656 105.493 142.452 107.801C142.846 106.531 143.087 105.221 143.146 103.921C143.285 100.929 142.462 97.9867 140.326 95.6844ZM119.807 54.8862L112.42 60.5191V43.1221H77.427V36.4334H119.808V43.1221V54.8862H119.807ZM89.4398 20.6092L89.1685 20.9125H88.6371H75.919H74.7222H74.3265H73.1169H60.3988H59.8674L59.6089 20.6092L51.5105 10.7661L50.7079 9.86771H52.3132H59.0919H59.6344L59.8946 10.1739L64.6962 15.453L61.918 15.5165L58.3499 11.7092H55.1712L61.2126 19.0075H72.7227L65.4876 10.8325L65.2164 10.5263L65.4876 10.2288L73.7233 0.909932L74.5243 0L75.327 0.909932L83.5626 10.2288L83.8339 10.5263L83.5626 10.8325L76.3275 19.0089H87.8249L93.8664 11.7107H90.6876L87.1084 15.5598L84.319 15.5179L89.1445 10.1739L89.4158 9.86771H89.9472H96.7371H98.3297L97.527 10.7661L89.4398 20.6092ZM80.9951 10.5249L74.5243 3.04466L68.0536 10.5249L74.5243 17.9358L80.9951 10.5249ZM72.5919 43.1221H37.5988V60.5191L30.2121 54.8862V43.1221V41.8684V36.4334H72.5919V43.1221ZM30.2121 71.0483H30.2472L37.6036 76.687L37.6339 109.222C38.4765 109.628 39.343 110.021 40.2238 110.409C40.4297 110.502 40.6323 110.59 41.3536 110.911C42.2201 111.301 43.0084 111.68 43.7297 112.065L43.736 112.057L46.211 113.222V106.049V100.672V97.4436V64.9388C46.211 62.1382 46.1041 59.4893 43.8382 57.811C49.3084 58.9101 51.7642 56.6108 54.5887 54.3619C55.1727 53.8969 55.7616 53.4448 56.3871 53.0245C57.0158 53.2455 57.6047 53.5155 58.1568 53.8261C56.9967 54.7143 55.9243 55.8597 54.9908 57.2882C52.76 60.7083 51.3142 65.7332 51.3142 72.705V97.6328C51.3126 97.6328 51.3094 97.6328 51.3079 97.6328V101.288C51.3094 101.29 51.3126 101.29 51.3142 101.291V108.702L51.3079 108.698V129.97H55.0387C55.7935 129.97 56.4047 130.468 56.4047 131.081C56.4047 131.697 55.7935 132.197 55.0387 132.197H46.3164H33.7259H22.8637H11.8642H7.70892C6.95413 132.197 6.34296 131.697 6.34296 131.081C6.34296 130.468 6.95413 129.97 7.70892 129.97H11.3967C11.36 129.353 11.4126 128.773 11.5706 128.248C11.8004 127.492 12.2217 126.845 12.8137 126.332C13.3977 125.826 14.1334 125.462 15.0015 125.263C15.7882 125.081 16.6898 125.036 17.6887 125.147C17.4589 122.205 15.3015 120.572 12.2217 118.242C12.0095 118.08 11.7924 117.917 11.5706 117.75C10.1616 116.679 8.89615 115.33 7.83498 113.809C5.84349 110.952 4.5653 107.463 4.40573 104.01C4.24296 100.495 5.23551 97.0132 7.79828 94.2502C8.30094 93.7085 8.86583 93.1944 9.49296 92.7148L5.29775 90.7967V82.1336H12.2249L13.5653 79.3807H16.5972C18.0924 77.2908 20.5068 76.5744 22.9483 76.856C24.7275 77.0655 26.5132 77.8208 27.9222 78.9691C28.6403 79.5555 29.2658 80.243 29.7493 81.0157C29.9169 81.0533 30.0637 81.1154 30.2217 81.1645L30.2121 71.0483ZM33.5759 129.969C33.6063 128.218 34.1648 126.886 35.3201 126.036C36.2329 125.36 37.4536 125.019 38.9887 125.017L37.8015 123.169C33.9956 123.268 30.6398 122.686 28.1775 121.6C27.1419 121.142 26.2531 120.592 25.5414 119.961L23.3456 129.969H33.5759ZM14.7557 117.245C18.3047 119.961 20.5595 122.057 20.1398 126.595L20.0153 127.935L18.5823 127.578C17.3951 127.285 16.393 127.25 15.6095 127.431C15.1595 127.535 14.7908 127.713 14.5164 127.948C14.2499 128.179 14.0584 128.477 13.9499 128.835C13.8509 129.16 13.8206 129.537 13.8605 129.957H20.8323L23.6887 116.933C23.5371 116.188 23.5658 115.397 23.7988 114.572C24.1946 113.164 25.1919 111.666 26.9041 110.129L28.6435 111.712C27.2696 112.946 26.4845 114.091 26.194 115.124C25.9371 116.037 26.0871 116.867 26.569 117.578C27.0972 118.36 28.0243 119.044 29.261 119.588C31.5286 120.589 34.7408 121.09 38.4318 120.91L39.1818 120.874L43.7201 127.948L41.036 127.457C39.0286 127.09 37.6467 127.197 36.8759 127.766C36.3174 128.179 36.0302 128.911 36.0094 129.957H44.269L46.8477 120.234C46.9435 118.892 46.7488 117.8 46.1696 116.909C45.2121 115.437 43.2557 114.259 40.2589 112.917L39.1387 112.423C34.243 110.264 29.4414 108.145 28.669 102.831C24.0462 105.546 20.435 108.15 18.027 110.619C15.694 113.014 14.5371 115.235 14.7557 117.245ZM12.4036 115.372C12.8121 113.352 14.1047 111.272 16.1839 109.14C19.0052 106.247 23.3265 103.217 28.8797 100.069C29.3472 99.8036 29.7972 99.4628 30.2424 99.119L30.2376 94.8351C29.952 95.0561 29.6696 95.2771 29.352 95.4735C24.1291 98.7146 19.586 102.018 16.5063 105.452C13.6626 108.631 12.0797 111.916 12.4036 115.372ZM18.6956 82.1842C18.3414 81.9242 17.8531 81.7307 17.2148 81.618H15.177L13.8366 84.3738H7.77275V89.4246L11.7509 91.2445C12.6781 90.7029 13.5908 90.2927 14.4573 89.9027C15.7866 89.3076 16.9882 88.766 17.7781 87.885C18.6797 86.8754 19.2765 85.743 19.4712 84.6944C19.5733 84.1441 19.5621 83.6314 19.4201 83.188C19.2956 82.7937 19.0579 82.4499 18.6956 82.1842ZM28.2765 83.861C28.0595 82.5843 27.2983 81.4692 26.269 80.6286C25.2222 79.7779 23.9201 79.219 22.6387 79.0702C21.4275 78.9301 20.2307 79.1727 19.3227 79.9137C19.6658 80.0697 19.9738 80.2488 20.2515 80.4539C21.0222 81.0171 21.5249 81.7437 21.7882 82.5684C22.0371 83.3425 22.0674 84.1947 21.9063 85.0627C21.643 86.4825 20.861 87.9832 19.6898 89.2918C18.5616 90.5527 17.1302 91.1954 15.5472 91.9074C14.5882 92.3379 13.5669 92.7972 12.5648 93.4471L11.8467 92.5386L12.5041 93.4832C11.3887 94.1202 10.4584 94.864 9.69402 95.6858C7.55892 97.9867 6.73392 100.93 6.87275 103.923C6.93179 105.223 7.17435 106.533 7.5669 107.802C8.36158 105.494 9.74668 103.28 11.6041 101.141C14.4382 97.874 18.386 94.7701 23.0009 91.763C27.3749 88.9133 28.6579 86.107 28.2765 83.861ZM24.4403 93.5742C20.0121 96.46 16.235 99.4223 13.5462 102.523C11.0185 105.437 9.47062 108.457 9.28392 111.63C9.48658 111.968 9.70041 112.297 9.92541 112.621C9.95732 112.665 9.98924 112.71 10.0212 112.756C10.4696 109.71 12.1068 106.822 14.593 104.047C17.8467 100.415 22.5637 96.9756 27.9605 93.6276C28.91 93.0398 29.6424 92.2873 30.2345 91.4756L30.2297 87.3896C29.3935 89.4001 27.5967 91.516 24.4403 93.5742ZM60.0094 22.9808H89.1493V24.7516H60.0094V22.9808ZM75.0094 97.2991C74.577 97.6935 74.1382 98.0704 73.693 98.42C69.7563 101.507 63.7116 102.668 58.9977 100.389C56.3935 99.1306 54.6781 97.0565 53.7493 94.7513C52.7616 92.2974 52.6211 89.3813 53.5275 86.8884C54.5153 84.1716 56.6648 82.1943 59.7701 82.2116C64.1552 82.2333 66.0685 86.9346 64.8493 90.2753C64.3195 91.7283 63.2568 92.6108 62.1079 92.9633C61.5876 93.1886 61.0132 93.3258 60.3988 93.3258C58.2063 93.3258 56.4286 91.7168 56.4286 89.7323C56.4286 87.7463 58.2063 86.1388 60.3988 86.1388C61.819 86.1388 63.0573 86.819 63.7579 87.8359C63.6222 85.7069 62.269 83.5404 59.7637 83.5274C57.3685 83.513 55.6834 85.109 54.8871 87.3029C54.0813 89.5214 54.2217 92.1183 55.0977 94.3007C55.9196 96.3416 57.4515 98.1744 59.7844 99.2721C63.9366 101.225 68.585 100.293 71.9584 97.4479C72.5105 96.9828 73.0499 96.4513 73.5797 95.8895C68.0887 90.1078 63.7563 81.1544 61.0882 75.3308C64.0467 70.9126 68.5036 59.7782 73.1903 54.4385C71.0153 52.4583 68.2674 51.2869 64.9626 51.3953C63.9126 51.4299 62.8594 51.6004 61.8334 51.9167C61.3148 51.5989 60.7818 51.3014 60.2328 51.0342C64.7424 49.3616 69.8664 49.4613 74.3376 52.2055C74.561 52.3427 74.7844 52.5262 75.0063 52.6981C75.2297 52.5262 75.4531 52.3427 75.6765 52.2055C80.1477 49.4598 85.2717 49.3616 89.7813 51.0342C89.2323 51.3014 88.6993 51.5989 88.1807 51.9167C87.1547 51.5989 86.1015 51.4299 85.0515 51.3953C81.7467 51.2869 79.0004 52.4568 76.8238 54.4385C81.5105 59.7782 85.9674 70.9126 88.9259 75.3308C86.2579 81.1544 81.9254 90.1078 76.4344 95.8895C76.9642 96.4499 77.5052 96.9828 78.0573 97.4479C81.4323 100.292 86.0791 101.223 90.2313 99.2721C92.5658 98.1744 94.0977 96.3401 94.918 94.3007C95.7956 92.1183 95.9344 89.5214 95.1286 87.3029C94.3307 85.109 92.6456 83.513 90.252 83.5274C87.7467 83.5404 86.3935 85.7069 86.2578 87.8359C86.96 86.8205 88.1967 86.1388 89.6169 86.1388C91.8094 86.1388 93.5871 87.7463 93.5871 89.7323C93.5871 91.7168 91.8094 93.3258 89.6169 93.3258C89.0025 93.3258 88.4265 93.1886 87.9079 92.9633C86.7589 92.6123 85.6961 91.7283 85.1664 90.2753C83.9472 86.9346 85.8605 82.2333 90.2456 82.2116C93.3509 82.1957 95.5004 84.1716 96.4882 86.8884C97.3945 89.3813 97.2525 92.2974 96.2664 94.7513C95.3392 97.0565 93.6222 99.132 91.018 100.389C86.3041 102.668 80.2594 101.507 76.3227 98.42C75.8807 98.0704 75.4419 97.6949 75.0094 97.2991ZM78.8648 86.4695C79.5653 83.6531 80.1573 81.2049 80.1573 75.7728C80.1573 70.2583 78.627 64.4318 77.7573 61.8161C77.0935 59.8259 76.1584 58.032 75.011 56.4865C73.8637 58.032 72.927 59.8273 72.2648 61.8161C71.3935 64.4318 69.8648 70.2583 69.8648 75.7728C69.8648 81.2049 70.4568 83.6531 71.1573 86.4695C71.8642 89.3163 73.2892 91.9984 75.0126 94.227C76.7328 91.9984 78.1579 89.3149 78.8648 86.4695Z" fill="#AC8F64"/><path d="M119.827 28.9098H30.1753V32.8399H119.829V28.9098H119.827ZM30.3588 60.0338V66.0076L37.7455 71.6492V65.5743L30.6045 60.1017L30.3588 60.0338ZM119.66 60.0338L119.414 60.1032L112.275 65.5758V71.6506L119.661 66.0091V60.0338H119.66Z" fill="#fff"/><path d="M14.2188 138.64L22.9724 162.326C23.3086 163.234 23.6808 163.864 24.0891 164.218 24.5214 164.545 24.9056 164.722 25.2418 164.747V165.504C24.5214 165.454 23.6688 165.428 22.6842 165.428 21.7236 165.403 20.751 165.391 19.7663 165.391 18.6616 165.391 17.6169 165.403 16.6323 165.428 15.6477 165.428 14.8672 165.454 14.2908 165.504V164.747C15.5156 164.697 16.2841 164.482 16.5963 164.104 16.9325 163.7 16.8605 162.855 16.3801 161.569L10.2562 143.975 10.9046 142.991 5.4291 157.974C4.90076 159.362 4.57655 160.497 4.45647 161.38 4.36041 162.263 4.42045 162.944 4.63659 163.423 4.87674 163.902 5.24898 164.243 5.75331 164.445 6.28165 164.621 6.90605 164.722 7.62651 164.747V165.504C6.834 165.454 6.07751 165.428 5.35705 165.428 4.63659 165.403 3.90412 165.391 3.15964 165.391 2.6313 165.391 2.12697 165.403 1.64666 165.428 1.19037 165.428.782107 165.454.421875 165.504V164.747C.9262 164.646 1.44253 164.306 1.97087 163.726 2.49921 163.146 3.01554 162.162 3.51987 160.774L11.7332 138.64C12.1174 138.665 12.5257 138.678 12.9579 138.678 13.4142 138.678 13.8345 138.665 14.2188 138.64zM16.7404 154.607V155.364H6.00547L6.3657 154.607H16.7404zM26.9347 138.715C27.5591 138.741 28.3756 138.766 29.3842 138.791 30.3929 138.816 31.4015 138.829 32.4102 138.829 33.5629 138.829 34.6796 138.816 35.7603 138.791 36.841 138.766 37.6095 138.753 38.0658 138.753 41.0437 138.753 43.2652 139.308 44.7301 140.418 46.2191 141.528 46.9635 142.953 46.9635 144.694 46.9635 145.576 46.7114 146.472 46.2071 147.38 45.7027 148.288 44.9222 149.095 43.8655 149.802 42.8089 150.508 41.44 151.025 39.7589 151.353V151.429C42.0164 151.605 43.8055 152.034 45.1264 152.715 46.4472 153.396 47.3958 154.216 47.9722 155.175 48.5486 156.133 48.8367 157.129 48.8367 158.164 48.8367 159.753 48.4405 161.09 47.648 162.174 46.8555 163.259 45.7147 164.091 44.2258 164.672 42.7368 165.227 40.9597 165.504 38.8944 165.504 38.318 165.504 37.4894 165.491 36.4088 165.466 35.3281 165.416 34.0192 165.391 32.4822 165.391 31.4255 165.391 30.3929 165.403 29.3842 165.428 28.3756 165.428 27.5591 165.454 26.9347 165.504V164.747C27.7031 164.697 28.2795 164.596 28.6638 164.445 29.048 164.293 29.3002 163.991 29.4203 163.537 29.5643 163.082 29.6364 162.401 29.6364 161.493V142.726C29.6364 141.793 29.5643 141.112 29.4203 140.683 29.3002 140.229 29.036 139.926 28.6277 139.775 28.2435 139.598 27.6791 139.497 26.9347 139.472V138.715zM37.5975 139.472C36.6609 139.472 36.0485 139.687 35.7603 140.115 35.4962 140.544 35.3641 141.414 35.3641 142.726V161.493C35.3641 162.376 35.4241 163.045 35.5442 163.499 35.6883 163.953 35.9284 164.255 36.2647 164.407 36.6249 164.558 37.1532 164.634 37.8497 164.634 39.5788 164.634 40.8396 164.066 41.6321 162.931 42.4486 161.771 42.8569 160.131 42.8569 158.012 42.8569 156.07 42.3886 154.569 41.452 153.51 40.5394 152.45 39.0144 151.921 36.8771 151.921H33.8151C33.8151 151.921 33.8151 151.82 33.8151 151.618 33.8151 151.391 33.8151 151.277 33.8151 151.277H36.9131C38.0418 151.277 38.9064 151 39.5067 150.445 40.1071 149.865 40.5274 149.108 40.7676 148.175 41.0077 147.216 41.1278 146.195 41.1278 145.11 41.1278 143.243 40.8516 141.843 40.2993 140.91 39.7469 139.951 38.8463 139.472 37.5975 139.472zM51.7527 138.715C52.353 138.741 53.1576 138.766 54.1662 138.791 55.1989 138.816 56.2195 138.829 57.2282 138.829 58.3809 138.829 59.4976 138.816 60.5783 138.791 61.659 138.766 62.4275 138.753 62.8838 138.753 66.222 138.753 68.7196 139.447 70.3766 140.834 72.0337 142.222 72.8622 144.013 72.8622 146.207 72.8622 147.115 72.6941 148.074 72.3579 149.083 72.0217 150.067 71.4453 150.987 70.6288 151.845 69.8363 152.677 68.7436 153.358 67.3507 153.888 65.9578 154.418 64.2047 154.683 62.0913 154.683H58.417V153.926H61.7311C63.148 153.926 64.2167 153.585 64.9371 152.904 65.6816 152.223 66.1859 151.328 66.4501 150.218 66.7383 149.108 66.8824 147.91 66.8824 146.623 66.8824 144.227 66.5462 142.436 65.8737 141.25 65.2013 140.065 64.0486 139.472 62.4155 139.472 61.4789 139.472 60.8665 139.687 60.5783 140.115 60.3142 140.544 60.1821 141.414 60.1821 142.726V161.266C60.1821 162.25 60.2781 162.982 60.4703 163.461 60.6624 163.94 61.0346 164.255 61.587 164.407 62.1393 164.558 62.9559 164.646 64.0366 164.672V165.504C63.2921 165.479 62.3315 165.454 61.1547 165.428 59.978 165.403 58.7412 165.391 57.4443 165.391 56.4117 165.391 55.403 165.403 54.4184 165.428 53.4337 165.454 52.5452 165.479 51.7527 165.504V164.747C52.5212 164.697 53.0975 164.596 53.4818 164.445 53.866 164.293 54.1182 163.991 54.2383 163.537 54.3824 163.082 54.4544 162.401 54.4544 161.493V142.726C54.4544 141.793 54.3824 141.112 54.2383 140.683 54.1182 140.229 53.854 139.926 53.4457 139.775 53.0615 139.598 52.4971 139.497 51.7527 139.472V138.715zM88.6269 138.186C91.1725 138.186 93.394 138.728 95.2912 139.813 97.2124 140.897 98.7014 142.461 99.758 144.504 100.815 146.522 101.343 148.982 101.343 151.883 101.343 154.708 100.803 157.18 99.722 159.299 98.6413 161.418 97.1284 163.07 95.1831 164.255 93.2619 165.441 91.0645 166.034 88.5909 166.034 86.0452 166.034 83.8118 165.491 81.8905 164.407 79.9933 163.322 78.5164 161.758 77.4597 159.715 76.403 157.672 75.8747 155.212 75.8747 152.337 75.8747 149.512 76.415 147.04 77.4957 144.921 78.6004 142.802 80.1014 141.15 81.9986 139.964 83.9199 138.778 86.1293 138.186 88.6269 138.186zM88.4828 138.867C87.1379 138.867 85.9612 139.434 84.9525 140.569 83.9679 141.705 83.1994 143.268 82.647 145.261 82.1187 147.254 81.8545 149.562 81.8545 152.185 81.8545 154.859 82.1547 157.192 82.7551 159.185 83.3795 161.153 84.208 162.679 85.2407 163.764 86.2974 164.823 87.4621 165.353 88.735 165.353 90.0798 165.353 91.2446 164.785 92.2292 163.65 93.2378 162.515 94.0063 160.951 94.5347 158.958 95.087 156.94 95.3632 154.632 95.3632 152.034 95.3632 149.335 95.051 147.002 94.4266 145.034 93.8262 143.067 92.9977 141.553 91.941 140.494 90.9083 139.409 89.7556 138.867 88.4828 138.867zM104.555 138.715C105.155 138.741 105.96 138.766 106.968 138.791 108.001 138.816 109.022 138.829 110.03 138.829 111.183 138.829 112.3 138.816 113.38 138.791 114.461 138.766 115.23 138.753 115.686 138.753 119.024 138.753 121.522 139.447 123.179 140.834 124.836 142.222 125.664 144.013 125.664 146.207 125.664 147.115 125.496 148.074 125.16 149.083 124.824 150.067 124.247 150.987 123.431 151.845 122.638 152.677 121.546 153.358 120.153 153.888 118.76 154.418 117.007 154.683 114.893 154.683H111.219V153.926H114.533C115.95 153.926 117.019 153.585 117.739 152.904 118.484 152.223 118.988 151.328 119.252 150.218 119.54 149.108 119.685 147.91 119.685 146.623 119.685 144.227 119.348 142.436 118.676 141.25 118.003 140.065 116.851 139.472 115.218 139.472 114.281 139.472 113.669 139.687 113.38 140.115 113.116 140.544 112.984 141.414 112.984 142.726V161.266C112.984 162.25 113.08 162.982 113.272 163.461 113.464 163.94 113.837 164.255 114.389 164.407 114.941 164.558 115.758 164.646 116.839 164.672V165.504C116.094 165.479 115.134 165.454 113.957 165.428 112.78 165.403 111.543 165.391 110.246 165.391 109.214 165.391 108.205 165.403 107.22 165.428 106.236 165.454 105.347 165.479 104.555 165.504V164.747C105.323 164.697 105.9 164.596 106.284 164.445 106.668 164.293 106.92 163.991 107.04 163.537 107.184 163.082 107.257 162.401 107.257 161.493V142.726C107.257 141.793 107.184 141.112 107.04 140.683 106.92 140.229 106.656 139.926 106.248 139.775 105.864 139.598 105.299 139.497 104.555 139.472V138.715zM138.344 138.64L147.098 162.326C147.434 163.234 147.806 163.864 148.214 164.218 148.647 164.545 149.031 164.722 149.367 164.747V165.504C148.647 165.454 147.794 165.428 146.809 165.428 145.849 165.403 144.876 165.391 143.892 165.391 142.787 165.391 141.742 165.403 140.757 165.428 139.773 165.428 138.992 165.454 138.416 165.504V164.747C139.641 164.697 140.409 164.482 140.721 164.104 141.058 163.7 140.986 162.855 140.505 161.569L134.381 143.975 135.03 142.991 129.554 157.974C129.026 159.362 128.702 160.497 128.582 161.38 128.486 162.263 128.546 162.944 128.762 163.423 129.002 163.902 129.374 164.243 129.878 164.445 130.407 164.621 131.031 164.722 131.752 164.747V165.504C130.959 165.454 130.203 165.428 129.482 165.428 128.762 165.403 128.029 165.391 127.285 165.391 126.756 165.391 126.252 165.403 125.772 165.428 125.316 165.428 124.907 165.454 124.547 165.504V164.747C125.051 164.646 125.568 164.306 126.096 163.726 126.624 163.146 127.141 162.162 127.645 160.774L135.858 138.64C136.243 138.665 136.651 138.678 137.083 138.678 137.539 138.678 137.96 138.665 138.344 138.64zM140.866 154.607V155.364H130.131L130.491 154.607H140.866z" fill="#AC8F64"/></symbol><symbol viewBox="0 0 12 12" fill="none" id="svg-phone"><path d="M7.52521 2.5C8.01358 2.59528 8.4624 2.83413 8.81424 3.18597C9.16608 3.53781 9.40493 3.98663 9.50021 4.475M7.52521 0.5C8.53985 0.612718 9.48601 1.06709 10.2083 1.7885C10.9307 2.50992 11.3862 3.4555 11.5002 4.47M11.0002 8.46V9.96C11.0008 10.0993 10.9723 10.2371 10.9165 10.3647C10.8607 10.4923 10.7789 10.6068 10.6762 10.7009C10.5736 10.7951 10.4525 10.8667 10.3206 10.9114C10.1887 10.956 10.0489 10.9725 9.91021 10.96C8.37163 10.7928 6.89371 10.2671 5.59521 9.425C4.38712 8.65733 3.36288 7.63309 2.59521 6.425C1.7502 5.1206 1.22433 3.6355 1.06021 2.09C1.04772 1.95173 1.06415 1.81238 1.10846 1.68081C1.15277 1.54924 1.224 1.42834 1.31759 1.32581C1.41119 1.22328 1.52511 1.14135 1.65211 1.08526C1.7791 1.02917 1.91638 1.00013 2.05521 1H3.55521C3.79786 0.997612 4.03311 1.08354 4.21709 1.24177C4.40108 1.39999 4.52125 1.61972 4.55521 1.86C4.61852 2.34003 4.73594 2.81136 4.90521 3.265C4.97248 3.44396 4.98704 3.63846 4.94716 3.82544C4.90729 4.01242 4.81464 4.18406 4.68021 4.32L4.04521 4.955C4.75699 6.20677 5.79344 7.24322 7.04521 7.955L7.68021 7.32C7.81616 7.18557 7.98779 7.09292 8.17477 7.05305C8.36175 7.01317 8.55625 7.02773 8.73521 7.095C9.18885 7.26428 9.66018 7.38169 10.1402 7.445C10.3831 7.47926 10.6049 7.6016 10.7635 7.78875C10.922 7.97589 11.0063 8.21479 11.0002 8.46Z" stroke="#57585A" stroke-linecap="round" stroke-linejoin="round"/></symbol><symbol viewBox="0 0 20 21" fill="none" id="svg-whatsapp_socials"><path d="M14.6 13C14.4 12.9 13.1 12.3 12.9 12.2C12.7 12.1 12.5 12.1 12.3 12.3C12.1 12.5 11.7 13.1 11.5 13.3C11.4 13.5 11.2 13.5 11 13.4C10.3 13.1 9.6 12.7 9 12.2C8.5 11.7 8 11.1 7.6 10.5C7.5 10.3 7.6 10.1 7.7 9.99998C7.8 9.89997 7.9 9.69998 8.1 9.59998C8.2 9.49998 8.3 9.29998 8.3 9.19998C8.4 9.09997 8.4 8.89998 8.3 8.79998C8.2 8.69998 7.7 7.49998 7.5 6.99998C7.4 6.29998 7.2 6.29998 7 6.29998C6.9 6.29998 6.7 6.29998 6.5 6.29998C6.3 6.29998 6 6.49998 5.9 6.59998C5.3 7.19998 5 7.89998 5 8.69998C5.1 9.59998 5.4 10.5 6 11.3C7.1 12.9 8.5 14.2 10.2 15C10.7 15.2 11.1 15.4 11.6 15.5C12.1 15.7 12.6 15.7 13.2 15.6C13.9 15.5 14.5 15 14.9 14.4C15.1 14 15.1 13.6 15 13.2C15 13.2 14.8 13.1 14.6 13ZM17.1 3.89998C13.2 -2.43187e-05 6.9 -2.43187e-05 3 3.89998C-0.2 7.09998 -0.8 12 1.4 15.9L0 21L5.3 19.6C6.8 20.4 8.4 20.8 10 20.8C15.5 20.8 19.9 16.4 19.9 10.9C20 8.29997 18.9 5.79998 17.1 3.89998ZM14.4 17.9C13.1 18.7 11.6 19.2 10 19.2C8.5 19.2 7.1 18.8 5.8 18.1L5.5 17.9L2.4 18.7L3.2 15.7L3 15.4C0.6 11.4 1.8 6.39998 5.7 3.89998C9.6 1.39998 14.6 2.69998 17 6.49998C19.4 10.4 18.3 15.5 14.4 17.9Z" fill="#fff"/></symbol><symbol viewBox="0 0 22 18" fill="none" id="svg-writing_socials"><path fill-rule="evenodd" clip-rule="evenodd" d="M3 2C2.45228 2 2 2.45228 2 3V15C2 15.5477 2.45228 16 3 16H19C19.5477 16 20 15.5477 20 15V3C20 2.45228 19.5477 2 19 2H3ZM0 3C0 1.34772 1.34772 0 3 0H19C20.6523 0 22 1.34772 22 3V15C22 16.6523 20.6523 18 19 18H3C1.34772 18 0 16.6523 0 15V3Z" fill="#fff"/><path fill-rule="evenodd" clip-rule="evenodd" d="M0.180854 2.42656C0.497568 1.97411 1.1211 1.86408 1.57355 2.18079L11.0001 8.77937L20.4266 2.18079C20.8791 1.86408 21.5026 1.97411 21.8193 2.42656C22.136 2.87901 22.026 3.50254 21.5735 3.81926L11.5735 10.8193C11.2292 11.0603 10.7709 11.0603 10.4266 10.8193L0.426623 3.81926C-0.0258258 3.50254 -0.135861 2.87901 0.180854 2.42656Z" fill="#fff"/></symbol><symbol viewBox="0 0 24 18" fill="none" id="svg-youtube_socials"><path d="M22.5396 3.42C22.4208 2.94541 22.1789 2.51057 21.8382 2.15941C21.4976 1.80824 21.0703 1.55318 20.5996 1.42C18.8796 1 11.9996 1 11.9996 1C11.9996 1 5.1196 1 3.3996 1.46C2.92884 1.59318 2.50157 1.84824 2.16094 2.19941C1.82031 2.55057 1.57838 2.98541 1.4596 3.46C1.14481 5.20556 0.990831 6.97631 0.999595 8.75C0.988374 10.537 1.14236 12.3213 1.4596 14.08C1.59055 14.5398 1.8379 14.9581 2.17774 15.2945C2.51758 15.6308 2.93842 15.8738 3.3996 16C5.1196 16.46 11.9996 16.46 11.9996 16.46C11.9996 16.46 18.8796 16.46 20.5996 16C21.0703 15.8668 21.4976 15.6118 21.8382 15.2606C22.1789 14.9094 22.4208 14.4746 22.5396 14C22.852 12.2676 23.0059 10.5103 22.9996 8.75C23.0108 6.96295 22.8568 5.1787 22.5396 3.42Z" stroke="#FFFAF1" stroke-width="2" stroke-linecap="round" stroke-linejoin="round"/><path d="M9.75 12.02L15.5 8.74998L9.75 5.47998V12.02Z" stroke="#FFFAF1" stroke-width="2" stroke-linecap="round" stroke-linejoin="round"/></symbol></svg>