<svg width="102" height="25" viewBox="0 0 102 25" fill="none" xmlns="http://www.w3.org/2000/svg">
<path d="M35.864 0.330456C31.9129 1.16435 28.4383 3.66605 25.0233 8.11351C23.0379 10.7145 21.6083 11.2506 19.8412 10.0593C18.4713 9.14595 18.4117 7.14063 19.742 6.32658C20.7546 5.69123 22.0451 6.26702 22.0451 7.35903C22.0451 8.0738 21.7274 8.25249 21.2311 7.81569C20.9333 7.53772 20.7347 7.49801 20.2979 7.65685C19.8611 7.81569 19.742 7.97453 19.7023 8.62973C19.6228 9.60261 20.0001 9.92029 21.2708 9.92029C23.6931 9.92029 24.6461 6.86266 22.74 5.17501C21.0921 3.74547 18.5705 4.3014 17.5182 6.34644C17.141 7.08106 17.0616 7.4583 17.141 8.41133C17.3197 10.4365 18.5904 11.7668 20.7943 12.2036L21.8466 12.422L20.9134 13.6927C17.7168 18.1004 15.0761 20.7411 12.634 22.0118C11.1449 22.7663 9.23882 22.7464 7.76957 21.9324C5.88337 20.8801 5.00976 19.3116 5.20831 17.2467C5.40686 15.1818 7.35262 13.4941 9.23882 13.7721C11.5221 14.1295 12.634 16.5915 11.2044 18.1004C10.5492 18.7556 10.3308 18.7953 10.3308 18.2394C10.3308 17.1673 9.17925 16.4326 8.16666 16.8496C7.37247 17.1871 7.03494 17.882 7.2732 18.7953C7.65044 20.3043 9.79475 20.9198 11.5221 20.0065C13.2098 19.113 13.9841 16.6312 13.1303 14.7648C11.7207 11.6874 7.21364 11.2108 4.91049 13.9111C3.97732 14.9832 3.58022 16.2142 3.58022 17.9615C3.58022 19.1329 3.6795 19.5895 4.13615 20.5029C4.71194 21.6544 4.53325 21.7736 3.65964 20.8007C2.24995 19.252 1.49548 17.1077 1.63446 15.0031C1.85286 11.6278 4.3347 9.26508 7.65044 9.24523C9.23882 9.22537 9.53664 9.08639 9.53664 8.43118C9.53664 7.69656 8.90129 7.47816 7.2732 7.59729C4.27514 7.81569 1.83301 9.44378 0.701286 11.9455C-0.0929029 13.6927 -0.231886 16.2341 0.383611 18.2196C1.65431 22.4486 5.50613 25.0893 9.87417 24.7319C13.2098 24.4738 15.6916 22.7861 19.5236 18.1799C22.2437 14.9237 22.7996 14.4869 24.2887 14.4869C25.4601 14.4869 26.433 15.1421 26.7904 16.1944C27.3066 17.6636 26.4926 19.0535 25.1226 19.0535C24.0107 19.0535 23.3754 18.1799 23.7526 17.1871C23.9115 16.79 24.1696 16.79 24.5468 17.1673C24.9042 17.5246 25.6388 17.5644 25.9764 17.2268C26.1153 17.0878 26.2146 16.6907 26.2146 16.3334C26.2146 15.8171 26.0955 15.6186 25.5793 15.3605C23.7328 14.4075 21.4495 16.3731 22.0253 18.3983C22.4224 19.8079 23.0776 20.3837 24.4674 20.6418C26.7308 21.0588 28.5972 19.4108 28.5972 16.9687C28.5972 14.884 27.3662 13.4743 25.0829 12.8985L23.8122 12.561L25.619 10.1387C29.9473 4.34111 33.2829 2.07767 38.1076 1.68058C43.3492 1.22392 47.9555 4.57937 49.3454 9.92029C49.8417 11.7469 49.802 14.6259 49.2659 16.2738C48.035 20.1653 44.8979 22.7663 40.927 23.223C38.3856 23.5009 36.4596 22.5082 35.5662 20.4433C35.0897 19.3314 34.9705 17.4452 35.3279 16.1547C35.7647 14.5663 37.8296 12.8985 39.418 12.8985C42.5948 12.8985 44.4611 16.3334 42.3962 18.3983C41.8601 18.9343 41.5822 19.0535 40.9071 19.0535C40.4504 19.0535 39.9144 18.9542 39.696 18.8351C39.3187 18.6365 39.3187 18.6167 39.8151 18.0409C40.0931 17.7033 40.3115 17.2665 40.3115 17.068C40.3115 15.4995 38.326 14.7648 37.3531 15.9561C37.0553 16.3135 37.0354 17.9615 37.3134 18.6762C38.2466 21.0985 42.1182 21.436 43.9449 19.252C45.4737 17.4452 44.9972 13.9309 43.0316 12.422C40.2519 10.2975 35.7647 11.4094 34.1764 14.5861C33.4814 15.976 33.2233 18.2593 33.6204 19.7285C33.9182 20.9 33.9182 20.9 33.541 20.4234C32.2703 18.7953 31.5952 16.2341 31.9526 14.4472C32.5681 11.5484 34.7124 9.68203 37.8296 9.38421C39.2195 9.26508 39.6166 8.98712 39.418 8.35176C39.2592 7.81569 38.5643 7.65685 37.2141 7.81569C32.4093 8.37162 29.3914 12.6602 30.404 17.5048C31.3967 22.2501 35.6655 25.3474 40.6688 24.9503C43.3492 24.7319 45.6722 23.7193 47.5783 21.9721C48.7696 20.8801 50.1396 18.9145 50.4771 17.8026C50.6955 17.1077 51.033 16.79 51.033 17.3062C51.033 17.4452 51.311 18.1401 51.6485 18.8549C52.4824 20.622 54.8253 22.9251 56.6916 23.7987C63.5613 27.0549 70.7488 23.4016 71.404 16.3334C71.8209 11.9256 68.7037 8.17307 64.296 7.81569C63.065 7.69656 62.7672 7.73627 62.4892 8.01423C61.7149 8.78857 62.1715 9.22537 63.8989 9.40407C66.341 9.64232 68.1279 10.8138 69.1207 12.7992C69.7163 14.0104 69.7362 14.1692 69.6567 15.9164C69.5773 17.8026 69.1008 19.1726 68.1279 20.4234C67.7706 20.8801 67.7706 20.8801 68.0485 19.6292C68.5846 17.0878 67.8301 14.3479 66.1623 12.8985C63.9783 10.9527 60.6228 10.7939 58.5381 12.5014C56.5328 14.1493 56.1952 17.6438 57.8432 19.4108C59.5904 21.297 62.9657 21.0985 64.1173 19.0535C64.5739 18.2394 64.6732 16.7106 64.3158 16.0554C63.8195 15.1024 62.0325 15.2016 61.5759 16.1944C61.2383 16.9489 61.2979 17.3658 61.8737 18.0409L62.3899 18.6564L61.7546 18.9343C60.4044 19.4903 58.7565 18.5174 58.4587 16.9489C58.1609 15.3803 59.3124 13.5537 60.8611 13.1169C62.0325 12.7992 62.7473 12.8588 63.8393 13.375C65.7851 14.2685 66.619 15.8966 66.48 18.3983C66.2814 21.8331 64.157 23.6002 60.742 23.223C55.0238 22.5876 51.2316 17.4849 52.0258 11.5285C52.7207 6.22731 56.235 2.45491 61.1192 1.74014C63.204 1.44232 66.063 1.87913 68.0088 2.79244C70.8877 4.14256 73.0321 6.12804 76.2287 10.3968L77.8568 12.5808L76.5662 12.8985C74.3028 13.4743 73.0718 14.884 73.0718 16.9687C73.0718 19.4506 74.9977 21.1184 77.281 20.6021C79.0877 20.205 79.7231 19.2917 79.6437 17.207C79.604 16.3532 78.512 15.2811 77.5192 15.1421C76.3279 14.9832 75.4543 15.4796 75.4543 16.3334C75.4543 16.6907 75.5536 17.0878 75.6926 17.2268C76.0301 17.5644 76.7647 17.5246 77.1221 17.1673C77.4994 16.79 77.7575 16.79 77.9163 17.1871C78.2737 18.1401 77.6582 19.0535 76.6258 19.0535C75.8117 19.0535 75.3153 18.7556 74.958 18.0607C74.5609 17.2864 74.5807 16.4922 75.0572 15.7377C75.5536 14.9237 76.4074 14.4869 77.4795 14.4869C78.8693 14.5067 79.5444 15.0428 82.0262 18.0607C84.9449 21.5949 87.3076 23.5605 89.6107 24.3547C91.0006 24.8113 93.8398 24.8312 95.3289 24.3745C97.7909 23.6002 100.094 21.436 101.107 18.8946C101.484 17.9416 101.563 17.3857 101.563 15.4796C101.563 13.375 101.524 13.097 100.988 11.9455C99.8558 9.48348 97.3938 7.83554 94.5149 7.59729C92.9066 7.47816 92.1323 7.73627 92.1323 8.41133C92.1323 9.08639 92.4301 9.22537 94.0185 9.24523C99.7168 9.30479 102.119 16.2738 98.0093 20.8007C97.1357 21.7736 96.957 21.6544 97.5328 20.5029C98.5454 18.4777 98.2277 15.5987 96.7585 13.9111C93.9192 10.5755 88.1812 12.283 88.1614 16.4723C88.1614 17.743 88.9357 19.2719 89.849 19.8477C91.8146 21.0588 94.5347 20.205 94.5149 18.3784C94.495 17.6239 94.1575 17.1474 93.4229 16.8694C92.4103 16.4922 91.3381 17.1871 91.3381 18.2394C91.3381 18.7953 91.1197 18.7556 90.5042 18.1004C89.5115 17.0878 89.6107 15.6782 90.7028 14.6457C92.9463 12.5014 96.4805 14.4472 96.5003 17.8225C96.5003 20.2646 94.5149 22.2898 91.8543 22.5677C88.9357 22.8656 85.3618 20.0263 80.7952 13.7324L79.8224 12.422L80.8747 12.2036C83.2572 11.7072 84.5875 10.238 84.5875 8.09365C84.5676 5.01617 81.1328 3.2491 78.9289 5.17501C78.1149 5.90963 77.817 6.78324 78.0354 7.95467C78.2737 9.20552 79.1275 9.92029 80.3783 9.92029C81.5696 9.92029 82.0262 9.60261 82.0461 8.74886C82.0858 7.6767 80.8945 7.10092 80.3783 7.91496C80.0606 8.43118 79.6238 8.09365 79.6238 7.33917C79.6238 6.32658 80.8151 5.73094 81.8078 6.24716C82.7013 6.70382 83.1381 7.71641 82.8403 8.68929C82.5425 9.68203 81.927 10.238 80.7952 10.5358C79.3657 10.913 78.3928 10.3571 76.6059 8.0738C72.9725 3.42779 69.7759 1.1445 65.6858 0.310602C59.2529 -1.01966 53.3163 2.11738 51.311 7.87525C50.9337 8.92755 50.6359 9.24523 50.6359 8.59002C50.6359 8.39147 50.2587 7.47816 49.802 6.54498C47.3202 1.52174 41.7807 -0.940247 35.864 0.330456Z" fill="#AC8F64"/>
</svg>
