<svg width="12" height="12" viewBox="0 0 12 12" fill="none" xmlns="http://www.w3.org/2000/svg">
<path d="M7.52521 2.5C8.01358 2.59528 8.4624 2.83413 8.81424 3.18597C9.16608 3.53781 9.40493 3.98663 9.50021 4.475M7.52521 0.5C8.53985 0.612718 9.48601 1.06709 10.2083 1.7885C10.9307 2.50992 11.3862 3.4555 11.5002 4.47M11.0002 8.46V9.96C11.0008 10.0993 10.9723 10.2371 10.9165 10.3647C10.8607 10.4923 10.7789 10.6068 10.6762 10.7009C10.5736 10.7951 10.4525 10.8667 10.3206 10.9114C10.1887 10.956 10.0489 10.9725 9.91021 10.96C8.37163 10.7928 6.89371 10.2671 5.59521 9.425C4.38712 8.65733 3.36288 7.63309 2.59521 6.425C1.7502 5.1206 1.22433 3.6355 1.06021 2.09C1.04772 1.95173 1.06415 1.81238 1.10846 1.68081C1.15277 1.54924 1.224 1.42834 1.31759 1.32581C1.41119 1.22328 1.52511 1.14135 1.65211 1.08526C1.7791 1.02917 1.91638 1.00013 2.05521 1H3.55521C3.79786 0.997612 4.03311 1.08354 4.21709 1.24177C4.40108 1.39999 4.52125 1.61972 4.55521 1.86C4.61852 2.34003 4.73594 2.81136 4.90521 3.265C4.97248 3.44396 4.98704 3.63846 4.94716 3.82544C4.90729 4.01242 4.81464 4.18406 4.68021 4.32L4.04521 4.955C4.75699 6.20677 5.79344 7.24322 7.04521 7.955L7.68021 7.32C7.81616 7.18557 7.98779 7.09292 8.17477 7.05305C8.36175 7.01317 8.55625 7.02773 8.73521 7.095C9.18885 7.26428 9.66018 7.38169 10.1402 7.445C10.3831 7.47926 10.6049 7.6016 10.7635 7.78875C10.922 7.97589 11.0063 8.21479 11.0002 8.46Z" stroke="#57585A" stroke-linecap="round" stroke-linejoin="round"/>
</svg>
